<svg width="10450" height="2475" xmlns="http://www.w3.org/2000/svg" xmlns:xlink="http://www.w3.org/1999/xlink" xml:space="preserve" overflow="hidden"><defs><clipPath id="clip0"><path d="M1332.09 1126.82 2850.34 823.635 3067.91 1913.14 1549.66 2216.33Z" fill-rule="evenodd" clip-rule="evenodd"/></clipPath><clipPath id="clip1"><path d="M1332.09 1126.82 2850.34 823.635 3067.91 1913.14 1549.66 2216.33Z" fill-rule="evenodd" clip-rule="evenodd"/></clipPath><clipPath id="clip2"><path d="M1246.47 698.085 2764.72 394.897 3067.91 1913.14 1549.66 2216.33Z" fill-rule="evenodd" clip-rule="evenodd"/></clipPath><clipPath id="clip3"><path d="M1576.68 326.563 2226.37 496.436 2039.84 1209.86 1390.14 1039.99Z" fill-rule="evenodd" clip-rule="evenodd"/></clipPath><clipPath id="clip4"><path d="M1576.68 326.563 2226.37 496.436 2039.84 1209.86 1390.14 1039.99Z" fill-rule="evenodd" clip-rule="evenodd"/></clipPath><clipPath id="clip5"><path d="M1576.68 326.563 2226.37 496.436 2017.9 1293.78 1368.2 1123.9Z" fill-rule="evenodd" clip-rule="evenodd"/></clipPath></defs><g transform="translate(3025 0)"><g clip-path="url(#clip0)"><g clip-path="url(#clip1)"><g clip-path="url(#clip2)"><path d="M651.337 844.013C666.361 867.387 687.063 897.017 740.849 916.007 750.435 919.388 745.293 933.964 735.709 930.582 684.177 912.388 662.516 889.553 634.096 845.697 622.112 846.236 610.207 845.475 598.616 843.621 561.795 856.436 501.741 863.806 441.523 871.193 364.873 880.592 287.94 890.033 262.897 909.722 197.803 960.922 224.892 1050.74 302.792 1067.59 334.084 1074.36 394.678 1064.02 427.623 1046.59 450.539 1034.47 459.912 1018.16 460.245 994.326 460.844 951.24 412.831 916.931 373.616 926.637 363.792 929.262 359.802 914.324 369.624 911.699 404.504 903.831 443.517 919.354 461.055 946.669 457.82 933.051 453.188 917.04 446.041 905.161 442.917 899.94 450.864 895.187 453.989 900.408 468.776 924.993 476.3 966.933 475.69 995.147 475.222 1016.74 468.271 1035.65 450.355 1050.15 465.106 1060.01 520.443 1053.26 578.189 1043.1 561.345 1025.64 541.625 996.987 529.796 976.04 526.812 970.744 534.872 966.208 537.85 971.505 546.024 985.98 576.989 1032.44 589.417 1040.81 590.49 1041.53 645.868 1030.18 652.127 1028.91 633.081 1010.96 612.105 978.123 602.439 954.103 600.171 948.448 608.774 945.001 611.037 950.656 620.274 973.602 644.007 1011.31 663.582 1026.59 674.276 1024.42 684.971 1022.21 695.675 1020.1 784.199 1002.74 828.926 1098.48 772.365 1149.99 828.644 1158.5 846.818 1228.42 809.498 1269.46 831.144 1269.56 852.291 1278.37 863.818 1297.38 885.171 1332.64 860.113 1370.01 831.497 1392.9 803.586 1415.22 761.716 1441.27 721.897 1461.81 721.686 1461.95 721.464 1462.09 721.238 1462.21 718.007 1463.99 715.885 1466.51 714.574 1469.3 712.776 1473.11 712.372 1477.53 712.69 1481.42 713.043 1485.67 709.873 1489.4 705.614 1489.76 701.355 1490.11 697.621 1486.94 697.268 1482.68 697.037 1479.89 697.061 1476.89 697.444 1473.83 682.93 1480.59 669.187 1486.31 657.096 1490.43 700.328 1501.74 769.11 1505.28 841.993 1501.19 911.885 1497.29 985.216 1486.33 1043.17 1468.45 1062.91 1462.36 1079.62 1455.03 1097.34 1443.39 1108.62 1435.99 1117.22 1428.43 1122.98 1421.13 1129.25 1413.18 1141.35 1422.74 1135.07 1430.69 1131.04 1435.8 1125.95 1440.94 1119.86 1446 1137.78 1442.96 1158.45 1440.68 1180.41 1439.69 1217.09 1438.03 1257.6 1439.86 1295.22 1447.48 1305.15 1449.48 1302.13 1464.6 1292.18 1462.61 1255.93 1455.26 1216.7 1453.5 1181.08 1455.11 1116.35 1457.78 1098.85 1467.48 1047.04 1483.38 987.851 1501.56 913.522 1512.66 842.833 1516.63 754.934 1521.54 672.193 1515.35 630.533 1497.87 564.331 1510.87 508.867 1464.72 512.97 1399.82 513.585 1390.12 515.913 1391.94 506.61 1391.31 458.612 1388.1 417.699 1355.04 401.148 1309.76 392.61 1286.39 389.894 1253.77 398.698 1229.94 402.296 1220.2 404.676 1223.52 394.203 1219.86 359.822 1207.88 335.505 1178.96 328.097 1143.08 324.186 1124.15 325.173 1102.01 335.208 1085.01 322.244 1085.61 310.004 1084.96 299.522 1082.69 208.895 1063.09 177.972 956.822 253.33 897.553 281.782 875.176 360.85 865.48 439.634 855.818 486.6 850.058 533.459 844.312 568.39 836.128 540.38 826.678 512.681 809.896 493.403 787.251 467.524 783.562 443.006 772.827 420.679 757.662 384.968 733.406 354.88 697.78 333.98 661.781 312.431 624.658 299.494 575.309 342.154 547.539 372.701 527.657 416.118 554.096 455.973 578.358 481.706 594.027 505.807 608.703 520.236 607.366 536.469 605.87 599.89 623.877 675.058 647.941 793.237 685.78 941.623 738.682 978.523 753.474 1023.4 771.461 1065.26 793.016 1106.44 817.616 1193.2 869.461 1226.63 888.198 1330.09 891.736 1340.23 892.053 1339.75 907.475 1329.61 907.157 1268.22 905.056 1231.62 901.497 1174.58 874.076 1188.45 890.168 1200.66 908.321 1207.91 926.55 1211.65 935.979 1197.32 941.659 1193.58 932.235 1177.33 891.387 1137.04 853.957 1100.07 831.772 1059.05 807.158 1017.45 785.714 972.771 767.802 936.016 753.071 788.146 700.355 670.339 662.631 596.854 639.101 535.527 621.436 521.619 622.721 502.105 624.519 475.903 608.569 447.923 591.534 412.044 569.691 372.956 545.889 350.554 560.474 315.9 583.027 330.41 624.862 347.338 654.033 367.215 688.263 395.685 722.051 429.321 744.896 457.014 763.704 488.215 775.059 520.903 772.942 531.049 772.307 532.012 787.729 521.871 788.364 514.266 788.858 515.834 788.61 522.244 793.797 557.467 822.302 607.084 835.909 651.778 828.259 661.803 826.55 664.403 841.79 654.379 843.498 653.356 843.675 652.333 843.836 651.315 843.992ZM598.212 188.909C595.335 186.03 599.709 181.652 602.592 184.529 621.859 203.798 648.131 248.237 623.659 272.712 620.78 275.589 616.401 271.214 619.278 268.331 640.748 246.861 614.712 205.409 598.212 188.909ZM628.627 341.318C610.166 359.78 580.597 363 549.094 355.052 482.191 338.174 413.96 270.339 396.787 203.507 389.067 173.471 391.223 144.844 408.6 126.863L444.604 89.6085C462.259 71.3395 492.074 69.3436 522.893 77.0897 590.334 94.044 658.027 161.738 674.98 229.177 682.741 260.051 680.378 289.569 662.376 307.566L628.619 341.312ZM422.507 134.566C407.963 149.585 404.918 173.237 411.722 199.705 427.456 260.939 491.548 324.596 552.843 340.064 579.604 346.817 603.568 343.799 618.658 329.455 606.088 330.932 592.315 329.788 577.991 326.19 510.549 309.235 442.857 241.542 425.904 174.103 422.412 160.213 421.232 146.837 422.512 134.575ZM581.742 311.18C609.068 318.049 633.49 314.778 648.539 299.729 663.582 284.686 666.858 260.257 659.989 232.933 644.436 171.069 581.01 107.644 519.152 92.096 491.826 85.2268 467.404 88.4975 452.356 103.546 437.312 118.59 434.036 143.018 440.905 170.343 456.458 232.206 519.884 295.632 581.742 311.18ZM1248.07 1252.45C1246.5 1258.34 1237.53 1255.95 1239.11 1250.05 1245.42 1226.45 1249.07 1201.15 1250.53 1176.77 1250.89 1170.69 1260.14 1171.23 1259.78 1177.32 1258.29 1202.23 1254.52 1228.33 1248.07 1252.45ZM1201.85 1274.92C1199.3 1280.46 1190.88 1276.58 1193.44 1271.04 1210.64 1233.79 1218.16 1164.91 1213.71 1124.14 1213.06 1118.08 1222.28 1117.1 1222.92 1123.17 1227.55 1165.57 1219.76 1236.16 1201.85 1274.92ZM828.484 1133.84C822.708 1131.89 825.682 1123.1 831.458 1125.06 892.51 1145.96 990.035 1131.58 1042.65 1093.87 1047.61 1090.31 1053.02 1097.86 1048.06 1101.42 993.036 1140.85 892.343 1155.71 828.479 1133.84ZM645.781 1477.88C697.984 1460.94 782.102 1413.94 822.059 1380.19 843.625 1361.97 866.994 1332.68 850.625 1305.41 821.475 1257.29 725.049 1312.63 689.404 1328.83 640.614 1350.97 589.631 1375.81 547.29 1387.16 544.352 1387.94 541.429 1388.63 538.521 1389.19 528.945 1391.09 529.449 1388.38 528.854 1398.57 524.984 1465.08 582.815 1498.32 645.778 1477.88ZM740.932 1168.14C698.785 1184.55 635.672 1199.87 575.208 1210.63 519.096 1220.61 464.968 1226.65 431.636 1226 420.982 1225.8 416.437 1227.34 413.73 1233.14 405.032 1251.83 408.947 1286.57 415.903 1305.2 435.533 1357.79 488.536 1386.91 543.293 1372.23 584.231 1361.26 634.397 1337.07 682.388 1315.25 729.192 1293.97 830.166 1263.54 810.534 1203.51 801.931 1177.18 774.787 1157.36 740.925 1168.14ZM437.816 1058.62C415.323 1071.33 382.751 1079.38 357.442 1082.93 340.74 1094.66 339.44 1121.74 343.215 1140.03 350.755 1176.54 378.015 1203.34 415.283 1209.33 441.949 1213.61 505.491 1207.31 572.544 1195.38 635.673 1184.16 701.517 1167.96 742.332 1150.9 809.885 1122.68 786.431 1018.09 698.627 1035.32 645.589 1045.72 472.252 1086.3 437.804 1058.62Z" fill="#582F84" transform="matrix(0.98064 -0.195829 0.195829 0.980638 1246.47 698.085)"/></g></g></g><g clip-path="url(#clip3)"><g clip-path="url(#clip4)"><g clip-path="url(#clip5)"><path d="M94.1477 86.4923C109.529 71.8268 125.649 59.0447 143.677 47.7411 150.593 43.3772 157.223 53.8697 150.307 58.234 132.994 69.1078 117.565 81.3417 102.756 95.4352 96.8179 100.992 88.281 92.3352 94.1471 86.4929ZM16.3363 264.483C19.1503 244.523 23.9911 224.849 30.9066 205.939 33.4343 197.974 22.1072 194.183 19.2215 201.742 12.0435 221.464 6.98812 241.996 4.03098 262.79 2.95788 270.994 15.2387 272.52 16.3357 264.483ZM18.721 360.731C14.8816 340.89 13.2601 320.811 13.5224 300.613 13.5224 292.553 1.47955 292.1 1.098 300.446 0.859533 318.689 2.14723 345.564 6.53503 363.142 8.37122 371.25 20.1755 368.722 18.7207 360.733ZM45.3817 172.698C54.6103 154.813 65.556 137.762 78.2899 122.143 83.465 115.49 73.4733 108.097 68.6322 114.369 53.6091 132.826 46.3359 147.588 34.3168 167.118 30.6206 174.463 41.7329 179.972 45.3817 172.698ZM182.116 40.8958C200.43 32.3827 219.484 25.8006 239.182 21.2458 247.289 19.0281 244.118 7.39104 236.32 9.15532 215.717 13.9008 196.043 20.7684 176.846 29.6399 169.549 33.3122 174.51 44.1625 182.117 40.8958ZM274.927 15.3083C295.316 13.3052 315.18 13.2337 335.545 15.3083 343.605 16.0237 345.06 4.02853 336.785 2.95593 316.229 0.857414 294.099 0.642771 273.589 2.95593 265.457 4.02902 266.768 16.0238 274.924 15.3083ZM550.765 147.989C555.057 154.738 558.92 161.462 562.879 168.593 566.79 175.699 577.544 170.19 573.825 162.751 569.461 154.905 565.24 147.56 560.471 140.144 557.513 143.077 554.271 145.7 550.765 147.99ZM605.636 257.973C603.132 238.8 596.503 215.192 589.468 197.164 586.559 189.557 574.969 193.945 577.879 201.623 584.604 219.246 590.923 241.233 593.379 259.905 594.834 267.965 606.686 266.152 605.637 257.973ZM462.675 59.8792C464.964 56.3976 467.611 53.1542 470.52 50.1738 463.056 45.4045 455.735 41.2792 447.866 36.7959 440.498 33.0996 434.917 43.8304 442.072 47.7655 449.178 51.6525 455.95 55.5869 462.675 59.8798ZM365.713 20.0316C382.477 23.6563 398.478 28.4494 414.384 34.8643 421.967 37.7498 426.594 26.6131 418.963 23.3465 402.389 16.6453 385.697 11.6375 368.241 7.89407 360.109 6.39175 357.796 18.2435 365.713 20.0322ZM584.031 391.47C578.308 410.381 570.033 429.72 560.375 446.961 556.417 454.139 567.315 460.1 571.249 452.947 581.503 434.609 589.682 415.126 595.931 395.07 598.101 387.034 586.487 383.743 584.031 391.469ZM27.7347 395.834C25.3023 388.226 13.4025 391.756 15.9543 399.745 22.4406 419.562 31.0496 439.187 41.5656 457.192 46.0011 464.226 56.2073 458.074 52.2966 450.944 42.1615 433.274 34.0775 415.222 27.7347 395.835ZM540.846 477.46C528.422 494.106 515.759 508.271 500.378 522.268 494.417 527.515 502.429 537.006 508.725 531.449 524.487 517.069 538.223 501.998 550.862 484.781 555.512 477.985 545.878 470.974 540.846 477.46ZM596.767 296.008C597.459 316.111 595.956 336.405 592.522 356.222 591.091 364.139 603.277 366.523 604.756 358.344 608.237 338.217 610.097 316.04 609.168 295.606 608.81 287.593 596.768 287.617 596.768 296.011ZM472.022 544.802C455.758 556.248 437.564 566.335 419.226 574.038 411.714 577.258 416.603 588.68 424.114 585.461 443.239 577.425 462.15 566.884 479.129 554.961 485.782 550.168 478.771 540.2 472.022 544.802ZM72.325 481.178C67.3172 474.739 57.5876 481.989 62.4047 488.666 74.4238 504.882 89.9952 521.551 105.305 534.691 111.314 540.009 119.685 530.804 113.436 525.295 98.6273 512.465 84.0095 496.917 72.3244 481.178ZM142.17 547.427C135.135 542.992 128.577 553.174 135.278 557.753 152.877 569.604 171.167 579.31 190.769 587.347 198.424 590.256 202.955 579.072 195.419 575.829 176.866 568.413 158.719 558.564 142.169 547.428ZM289.374 596.766C268.555 595.526 249.955 592.545 229.757 587.346 221.554 585.486 218.859 597.243 226.609 599.341 247.476 604.706 267.196 607.95 288.732 609.142 297.03 609.523 297.412 597.123 289.376 596.766ZM325.645 596.48C317.537 597.196 318.229 609.238 326.503 608.856 346.296 607.95 369.379 603.467 388.454 598.054L385.045 586.131C366.611 591.329 344.72 595.622 325.642 596.48ZM394.512 394.785C272.893 509.225 101.435 337.815 215.85 216.123 337.47 101.732 508.977 273.116 394.512 394.785ZM357.097 305.478C357.097 302.044 354.307 299.278 350.897 299.278L311.383 299.278 311.383 259.764C311.383 256.33 308.593 253.564 305.183 253.564 301.749 253.564 298.983 256.354 298.983 259.764L298.983 299.278 259.468 299.278C256.034 299.278 253.268 302.044 253.268 305.478 253.268 308.911 256.058 311.678 259.468 311.678L298.983 311.678 298.983 351.192C298.983 354.626 301.773 357.392 305.183 357.392 308.617 357.392 311.383 354.602 311.383 351.192L311.383 311.678 350.897 311.678C354.331 311.678 357.097 308.888 357.097 305.478ZM464.645 94.8149C465.742 27.4974 565.947 27.4974 567.064 94.8387 565.896 162.089 465.762 162.132 464.645 94.8149ZM487.251 101.015 517.322 101.015 544.436 101.015C552.496 101.134 552.472 88.4715 544.436 88.5905L487.227 88.5905C479.191 88.4709 479.215 101.134 487.251 101.015Z" fill="#582F84" fill-rule="evenodd" transform="matrix(0.967488 0.252967 -0.252964 0.967476 1590.77 393.347)"/><text fill="#582F84" font-family="Arial,Arial_MSFontService,sans-serif" font-weight="700" font-size="5" transform="matrix(5.90629 1.5443 -1.54428 5.90621 1409.32 1087)">Created by mangunkarsa</text><text fill="#582F84" font-family="Arial,Arial_MSFontService,sans-serif" font-weight="700" font-size="5" transform="matrix(5.90629 1.5443 -1.54428 5.90621 1401.6 1117)">from Noun Project</text></g></g></g></g></svg>