<svg width="10450" height="2475" xmlns="http://www.w3.org/2000/svg" xmlns:xlink="http://www.w3.org/1999/xlink" xml:space="preserve" overflow="hidden"><defs><linearGradient x1="2098.5" y1="2075.5" x2="2098.5" y2="611.5" gradientUnits="userSpaceOnUse" spreadMethod="reflect" id="fill0"><stop offset="0" stop-color="#786A88"/><stop offset="0.5" stop-color="#AE9AC5"/><stop offset="1" stop-color="#D0B8EA"/></linearGradient></defs><g transform="translate(3025 0)"><path d="M1366.5 1343.5C1366.5 939.228 1694.23 611.5 2098.5 611.5 2502.77 611.5 2830.5 939.228 2830.5 1343.5 2830.5 1747.77 2502.77 2075.5 2098.5 2075.5 1694.23 2075.5 1366.5 1747.77 1366.5 1343.5Z" stroke="#582F84" stroke-width="6.875" stroke-linejoin="round" stroke-miterlimit="10" fill="url(#fill0)" fill-rule="evenodd"/><path d="M1.2585-1.17059 599.856 642.376 597.339 644.717-1.2585 1.17059ZM605.544 630.826 614.206 660.327 585.409 649.556Z" fill="#582F84" transform="matrix(1 -1.22465e-16 -1.22465e-16 -1 2099.5 1339.83)"/><path d="M2098.8 1338.81 2793.27 1462.96 2792.66 1466.34 2098.2 1342.19ZM2790.87 1450.31 2815.52 1468.68 2786.03 1477.38Z" fill="#582F84"/><path d="M0.865179-1.48512 609.491 353.08 607.76 356.05-0.865179 1.48512ZM611.587 340.377 628.427 366.101 597.744 364.139Z" fill="#582F84" transform="matrix(-1 0 0 1 2097.93 1340.5)"/><path d="M2100.22 634.417 2100.22 1340.82 2096.78 1340.82 2096.78 634.417ZM2084.75 639 2098.5 611.5 2112.25 639Z" fill="#582F84"/><path d="M3.35341-0.755667 115.545 497.116 108.838 498.628-3.35341 0.755667ZM124.598 490.379 117.23 520.229 97.7708 496.424Z" fill="#AB82EC" transform="matrix(-1 0 0 1 2734.73 688.5)"/><path d="M2599.93 835.315 2618.88 1186.22 2612.01 1186.59 2593.07 835.685ZM2628.93 1181.09 2616.68 1209.29 2601.47 1182.57Z" fill="#ECAB82"/><path d="M2567.5 806C2567.5 789.708 2580.71 776.5 2597 776.5 2613.29 776.5 2626.5 789.708 2626.5 806 2626.5 822.293 2613.29 835.5 2597 835.5 2580.71 835.5 2567.5 822.293 2567.5 806Z" stroke="#0E2841" stroke-width="3.4375" stroke-linejoin="round" stroke-miterlimit="10" fill="#ECAB82" fill-rule="evenodd"/><path d="M2705.5 659C2705.5 642.708 2718.48 629.5 2734.5 629.5 2750.52 629.5 2763.5 642.708 2763.5 659 2763.5 675.292 2750.52 688.5 2734.5 688.5 2718.48 688.5 2705.5 675.292 2705.5 659Z" stroke="#0E2841" stroke-width="3.4375" stroke-linejoin="round" stroke-miterlimit="10" fill="#AB82EC" fill-rule="evenodd"/><path d="M2923.52 1422.57 2926.31 1422.57 2941.11 1437.64 2938.72 1440.2 2927.81 1431.6 2927.81 1483.24 2922.06 1483.24 2922.06 1431.6 2911.16 1440.2 2908.77 1437.64Z" fill="#582F84" fill-rule="evenodd"/><text fill="#000000" fill-opacity="0" font-family="Arial,Arial_MSFontService,sans-serif" font-size="60.6694" x="2908.77" y="1475.65">↑</text><path d="M2955.32 1469.52C2956.03 1469.52 2956.63 1469.59 2957.14 1469.74 2957.65 1469.89 2958.11 1470.12 2958.52 1470.43 2958.93 1470.74 2959.29 1471.15 2959.62 1471.64 2959.94 1472.14 2960.26 1472.74 2960.6 1473.45 2960.77 1473.87 2960.96 1474.49 2961.15 1475.29 2961.35 1476.09 2961.55 1477.02 2961.77 1478.07 2961.98 1479.13 2962.2 1480.29 2962.41 1481.56 2962.63 1482.83 2962.84 1484.16 2963.06 1485.54 2963.27 1486.93 2963.48 1488.35 2963.67 1489.81 2963.87 1491.26 2964.05 1492.69 2964.23 1494.1 2965.69 1492.19 2967.01 1490.25 2968.18 1488.28 2969.36 1486.32 2970.35 1484.47 2971.16 1482.72 2971.97 1480.97 2972.59 1479.38 2973.02 1477.94 2973.45 1476.51 2973.65 1475.36 2973.63 1474.5 2973.63 1473.64 2973.41 1473.03 2972.96 1472.65 2972.51 1472.28 2971.76 1472.07 2970.7 1472.01L2971.08 1470.13 2979.43 1470.13 2980.46 1471.83C2978.51 1476.66 2976.23 1481.31 2973.62 1485.79 2971.01 1490.28 2968.07 1494.63 2964.79 1498.85 2963.36 1500.54 2962.08 1502.01 2960.93 1503.24 2959.79 1504.47 2958.74 1505.53 2957.77 1506.42 2956.8 1507.31 2955.9 1508.04 2955.07 1508.6 2954.24 1509.17 2953.44 1509.62 2952.66 1509.96 2951.88 1510.31 2951.1 1510.55 2950.33 1510.7 2949.56 1510.84 2948.75 1510.94 2947.91 1510.97 2947.46 1510.97 2946.92 1510.93 2946.29 1510.83 2945.65 1510.73 2945.09 1510.6 2944.6 1510.45L2946.07 1504.03 2948.73 1504.03 2948.73 1504.21C2948.73 1505.54 2949.27 1506.2 2950.34 1506.2 2951.77 1506.2 2953.21 1505.65 2954.68 1504.54 2956.14 1503.44 2957.91 1501.68 2959.98 1499.26 2959.34 1495.54 2958.77 1492.34 2958.28 1489.63 2957.79 1486.93 2957.35 1484.62 2956.95 1482.72 2956.55 1480.81 2956.18 1479.27 2955.85 1478.07 2955.52 1476.88 2955.2 1475.95 2954.88 1475.29 2954.57 1474.63 2954.25 1474.17 2953.93 1473.93 2953.61 1473.68 2953.26 1473.56 2952.89 1473.56 2952.54 1473.56 2952.22 1473.61 2951.92 1473.69 2951.63 1473.78 2951.33 1473.96 2951.02 1474.24 2950.7 1474.51 2950.37 1474.9 2950.01 1475.39 2949.64 1475.89 2949.2 1476.54 2948.67 1477.34L2946.42 1475.88C2947.26 1474.65 2948.03 1473.62 2948.73 1472.8 2949.43 1471.98 2950.13 1471.33 2950.83 1470.85 2951.52 1470.37 2952.23 1470.03 2952.95 1469.83 2953.67 1469.62 2954.46 1469.52 2955.32 1469.52Z" fill="#582F84" fill-rule="evenodd"/><text fill="#000000" fill-opacity="0" font-family="Arial,Arial_MSFontService,sans-serif" font-size="41.4551" x="2944.6" y="1505.79">𝑦</text><path d="M2082.84 416.487 2085.64 416.487 2100.43 431.563 2098.04 434.116 2087.14 425.524 2087.14 477.156 2081.39 477.156 2081.39 425.524 2070.48 434.116 2068.09 431.563Z" fill="#582F84" fill-rule="evenodd"/><text fill="#000000" fill-opacity="0" font-family="Arial,Arial_MSFontService,sans-serif" font-size="60.6694" x="2068.09" y="469.573">↑</text><path d="M2110.52 464.055 2133.31 464.055 2134.01 465.813C2132.73 467.238 2131.5 468.596 2130.34 469.885 2129.18 471.174 2128.02 472.443 2126.88 473.693 2125.74 474.943 2124.6 476.189 2123.45 477.429 2122.31 478.669 2121.12 479.958 2119.89 481.296 2118.66 482.634 2117.37 484.04 2116.03 485.515 2114.68 486.989 2113.23 488.576 2111.69 490.275 2111.77 490.354 2111.83 490.402 2111.87 490.422L2119.07 490.422C2119.82 490.422 2120.46 490.417 2121.01 490.407 2121.55 490.397 2122.03 490.344 2122.44 490.246 2122.85 490.148 2123.23 489.987 2123.57 489.763 2123.91 489.538 2124.25 489.206 2124.58 488.767 2124.91 488.327 2125.26 487.766 2125.64 487.082 2126.01 486.398 2126.45 485.549 2126.95 484.533L2129.97 484.533 2128.1 493.352 2104.84 493.352 2104.04 491.594C2105.92 489.523 2107.87 487.375 2109.89 485.148 2111.91 482.922 2113.9 480.734 2115.87 478.586 2117.83 476.438 2119.72 474.382 2121.53 472.419 2123.35 470.456 2124.99 468.693 2126.46 467.131 2126.38 467.053 2126.32 467.004 2126.28 466.984L2118.75 466.984C2117.89 466.984 2117.16 467.053 2116.55 467.189 2115.95 467.326 2115.39 467.59 2114.88 467.98 2114.38 468.371 2113.88 468.918 2113.39 469.621 2112.9 470.324 2112.34 471.252 2111.69 472.404L2108.7 472.404Z" fill="#582F84" fill-rule="evenodd"/><text fill="#000000" fill-opacity="0" font-family="Arial,Arial_MSFontService,sans-serif" font-size="29.2969" x="2104.04" y="489.689">𝑧</text></g></svg>