<svg width="3054" height="1363" xmlns="http://www.w3.org/2000/svg" xmlns:xlink="http://www.w3.org/1999/xlink" xml:space="preserve" overflow="hidden"><defs><linearGradient x1="2151" y1="1643.5" x2="2151" y2="818.5" gradientUnits="userSpaceOnUse" spreadMethod="reflect" id="fill0"><stop offset="0" stop-color="#786A88"/><stop offset="0.5" stop-color="#AE9AC5"/><stop offset="1" stop-color="#D0B8EA"/></linearGradient></defs><g transform="translate(-624 -584)"><path d="M1738.5 1231C1738.5 1003.18 1923.18 818.5 2151 818.5 2378.82 818.5 2563.5 1003.18 2563.5 1231 2563.5 1458.82 2378.82 1643.5 2151 1643.5 1923.18 1643.5 1738.5 1458.82 1738.5 1231Z" stroke="#582F84" stroke-width="6.875" stroke-linejoin="round" stroke-miterlimit="10" fill="url(#fill0)" fill-rule="evenodd"/><path d="M1.2585-1.17059 331.674 354.057 329.157 356.399-1.2585 1.17059ZM337.362 342.507 346.024 372.008 317.226 361.237Z" fill="#582F84" transform="matrix(1 -1.22465e-16 -1.22465e-16 -1 2152.5 1229.51)"/><path d="M2151.8 1227.81 2533.19 1295.99 2532.59 1299.37 2151.2 1231.19ZM2530.8 1283.34 2555.45 1301.71 2525.96 1310.41Z" fill="#582F84"/><path d="M0.865181-1.48511 335.099 193.229 333.369 196.2-0.865181 1.48511ZM337.195 180.526 354.035 206.25 323.352 204.288Z" fill="#582F84" transform="matrix(-1 0 0 1 2151.54 1229.5)"/><path d="M2153.22 841.417 2153.22 1229.38 2149.78 1229.38 2149.78 841.417ZM2137.75 846 2151.5 818.5 2165.25 846Z" fill="#582F84"/><path d="M3.35341-0.755664 64.3589 269.969 57.6521 271.48-3.35341 0.755664ZM73.4117 263.231 66.0433 293.081 46.5844 269.276Z" fill="#AB82EC" transform="matrix(-1 0 0 1 2509.54 861.5)"/><path d="M2435.93 944.315 2446.06 1132.01 2439.2 1132.38 2429.07 944.685ZM2456.12 1126.88 2443.87 1155.08 2428.66 1128.36Z" fill="#ECAB82"/><path d="M2415.5 928C2415.5 918.887 2422.89 911.5 2432 911.5 2441.11 911.5 2448.5 918.887 2448.5 928 2448.5 937.113 2441.11 944.5 2432 944.5 2422.89 944.5 2415.5 937.113 2415.5 928Z" stroke="#0E2841" stroke-width="3.4375" stroke-linejoin="round" stroke-miterlimit="10" fill="#ECAB82" fill-rule="evenodd"/><path d="M2493.5 845C2493.5 835.887 2500.89 828.5 2510 828.5 2519.11 828.5 2526.5 835.887 2526.5 845 2526.5 854.113 2519.11 861.5 2510 861.5 2500.89 861.5 2493.5 854.113 2493.5 845Z" stroke="#0E2841" stroke-width="3.4375" stroke-linejoin="round" stroke-miterlimit="10" fill="#AB82EC" fill-rule="evenodd"/><path d="M2606.23 1283.21 2609.03 1283.21 2623.82 1298.29 2621.43 1300.84 2610.53 1292.25 2610.53 1343.88 2604.77 1343.88 2604.77 1292.25 2593.87 1300.84 2591.48 1298.29Z" fill="#582F84" fill-rule="evenodd"/><text fill="#000000" fill-opacity="0" font-family="Arial,Arial_MSFontService,sans-serif" font-size="60.6694" x="2591.48" y="1336.3">↑</text><path d="M2638.04 1330.17C2638.74 1330.17 2639.34 1330.24 2639.85 1330.39 2640.36 1330.53 2640.82 1330.76 2641.23 1331.08 2641.64 1331.39 2642.01 1331.79 2642.33 1332.29 2642.65 1332.79 2642.98 1333.39 2643.31 1334.09 2643.49 1334.52 2643.67 1335.14 2643.87 1335.94 2644.06 1336.74 2644.27 1337.67 2644.48 1338.72 2644.7 1339.78 2644.91 1340.94 2645.13 1342.21 2645.34 1343.48 2645.56 1344.81 2645.77 1346.19 2645.99 1347.58 2646.19 1349 2646.39 1350.46 2646.58 1351.91 2646.77 1353.34 2646.94 1354.75 2648.41 1352.83 2649.73 1350.89 2650.9 1348.93 2652.07 1346.97 2653.06 1345.11 2653.87 1343.37 2654.68 1341.62 2655.3 1340.03 2655.73 1338.59 2656.16 1337.15 2656.37 1336.01 2656.35 1335.15 2656.35 1334.29 2656.12 1333.67 2655.67 1333.3 2655.22 1332.93 2654.47 1332.72 2653.42 1332.66L2653.8 1330.78 2662.15 1330.78 2663.17 1332.48C2661.22 1337.31 2658.94 1341.96 2656.33 1346.44 2653.72 1350.92 2650.78 1355.27 2647.5 1359.49 2646.07 1361.19 2644.79 1362.66 2643.65 1363.89 2642.5 1365.12 2641.45 1366.18 2640.48 1367.07 2639.52 1367.96 2638.62 1368.68 2637.79 1369.25 2636.96 1369.82 2636.15 1370.27 2635.37 1370.61 2634.59 1370.95 2633.81 1371.2 2633.04 1371.34 2632.27 1371.49 2631.46 1371.58 2630.62 1371.62 2630.17 1371.62 2629.63 1371.57 2629 1371.48 2628.36 1371.38 2627.8 1371.25 2627.31 1371.09L2628.78 1364.68 2631.44 1364.68 2631.44 1364.85C2631.44 1366.18 2631.98 1366.85 2633.06 1366.85 2634.48 1366.85 2635.93 1366.3 2637.39 1365.19 2638.86 1364.09 2640.62 1362.33 2642.69 1359.9 2642.05 1356.19 2641.48 1352.98 2640.99 1350.28 2640.51 1347.57 2640.06 1345.27 2639.66 1343.37 2639.26 1341.46 2638.9 1339.91 2638.56 1338.72 2638.23 1337.53 2637.91 1336.6 2637.6 1335.94 2637.28 1335.27 2636.97 1334.82 2636.64 1334.58 2636.32 1334.33 2635.98 1334.21 2635.6 1334.21 2635.25 1334.21 2634.93 1334.25 2634.64 1334.34 2634.34 1334.43 2634.04 1334.61 2633.73 1334.88 2633.42 1335.16 2633.08 1335.54 2632.72 1336.04 2632.36 1336.54 2631.91 1337.19 2631.39 1337.99L2629.13 1336.52C2629.97 1335.29 2630.74 1334.27 2631.44 1333.45 2632.15 1332.63 2632.85 1331.98 2633.54 1331.5 2634.23 1331.02 2634.94 1330.68 2635.66 1330.47 2636.39 1330.27 2637.18 1330.17 2638.04 1330.17Z" fill="#582F84" fill-rule="evenodd"/><text fill="#000000" fill-opacity="0" font-family="Arial,Arial_MSFontService,sans-serif" font-size="41.4551" x="2627.31" y="1366.44">𝑦</text><path d="M2133.81 715.98 2136.61 715.98 2151.4 731.056 2149.01 733.609 2138.11 725.017 2138.11 776.649 2132.35 776.649 2132.35 725.017 2121.45 733.609 2119.06 731.056Z" fill="#582F84" fill-rule="evenodd"/><text fill="#000000" fill-opacity="0" font-family="Arial,Arial_MSFontService,sans-serif" font-size="60.6694" x="2119.06" y="769.066">↑</text><path d="M2161.49 763.548 2184.28 763.548 2184.98 765.306C2183.69 766.731 2182.47 768.089 2181.31 769.378 2180.15 770.667 2178.99 771.936 2177.85 773.186 2176.71 774.436 2175.56 775.682 2174.42 776.922 2173.28 778.162 2172.09 779.451 2170.86 780.789 2169.63 782.127 2168.34 783.533 2167 785.008 2165.65 786.482 2164.2 788.069 2162.66 789.768 2162.74 789.847 2162.8 789.895 2162.84 789.915L2170.04 789.915C2170.78 789.915 2171.43 789.91 2171.98 789.9 2172.52 789.891 2173 789.837 2173.41 789.739 2173.82 789.641 2174.2 789.48 2174.54 789.256 2174.88 789.031 2175.22 788.699 2175.55 788.26 2175.88 787.82 2176.23 787.259 2176.6 786.575 2176.98 785.891 2177.42 785.042 2177.92 784.026L2180.94 784.026 2179.07 792.845 2155.8 792.845 2155.01 791.087C2156.89 789.016 2158.84 786.868 2160.86 784.641 2162.88 782.415 2164.87 780.227 2166.83 778.079 2168.8 775.931 2170.69 773.875 2172.5 771.912 2174.32 769.949 2175.96 768.186 2177.43 766.624 2177.35 766.546 2177.29 766.497 2177.25 766.477L2169.72 766.477C2168.86 766.477 2168.13 766.546 2167.52 766.682 2166.92 766.819 2166.36 767.083 2165.85 767.474 2165.35 767.864 2164.85 768.411 2164.36 769.114 2163.87 769.817 2163.3 770.745 2162.66 771.897L2159.67 771.897Z" fill="#582F84" fill-rule="evenodd"/><text fill="#000000" fill-opacity="0" font-family="Arial,Arial_MSFontService,sans-serif" font-size="29.2969" x="2155.01" y="789.182">𝑧</text></g></svg>