<svg width="4142" height="1947" xmlns="http://www.w3.org/2000/svg" xmlns:xlink="http://www.w3.org/1999/xlink" xml:space="preserve" overflow="hidden"><defs><clipPath id="clip0"><rect x="676" y="746" width="130" height="983"/></clipPath><clipPath id="clip1"><rect x="676" y="746" width="130" height="983"/></clipPath><clipPath id="clip2"><rect x="3577" y="746" width="147" height="983"/></clipPath><clipPath id="clip3"><rect x="3577" y="746" width="147" height="983"/></clipPath></defs><g transform="translate(-129 -264)"><g><g><g><path d="M0 56.8402C274.539 56.8402 407.545 227.361 682.084 227.361" stroke="#582F84" stroke-width="3.19625" stroke-miterlimit="10" fill="none" transform="matrix(1.00023 0 0 -1 1193.71 1112.45)"/><path d="M0 56.8402C188.84 56.8402 152.202-284.201 341.042-284.201" stroke="#582F84" stroke-width="3.19625" stroke-miterlimit="10" fill="none" transform="matrix(1.00023 0 0 -1 1193.71 1112.45)"/><path d="M341.042-284.201C490.299-284.201 532.826-454.722 682.084-454.722" stroke="#582F84" stroke-width="3.19625" stroke-miterlimit="10" fill="none" transform="matrix(1.00023 0 0 -1 1193.71 1112.45)"/><path d="M341.042-284.201C490.299-284.201 532.826-113.681 682.084-113.681" stroke="#582F84" stroke-width="3.19625" stroke-miterlimit="10" fill="none" transform="matrix(1.00023 0 0 -1 1193.71 1112.45)"/><path d="M682.084-454.722C822.17-454.722 883.047-568.403 1023.13-568.403" stroke="#582F84" stroke-width="3.19625" stroke-miterlimit="10" fill="none" transform="matrix(1.00023 0 0 -1 1193.71 1112.45)"/><path d="M682.084-454.722C822.17-454.722 883.047-341.042 1023.13-341.042" stroke="#582F84" stroke-width="3.19625" stroke-miterlimit="10" fill="none" transform="matrix(1.00023 0 0 -1 1193.71 1112.45)"/><path d="M682.084-113.681C822.17-113.681 883.047-227.361 1023.13-227.361" stroke="#582F84" stroke-width="3.19625" stroke-miterlimit="10" fill="none" transform="matrix(1.00023 0 0 -1 1193.71 1112.45)"/><path d="M682.084-113.681C822.17-113.681 883.047 0 1023.13 0" stroke="#582F84" stroke-width="3.19625" stroke-miterlimit="10" fill="none" transform="matrix(1.00023 0 0 -1 1193.71 1112.45)"/><path d="M682.084 227.361C822.17 227.361 883.047 113.681 1023.13 113.681" stroke="#582F84" stroke-width="3.19625" stroke-miterlimit="10" fill="none" transform="matrix(1.00023 0 0 -1 1193.71 1112.45)"/><path d="M682.084 227.361C822.17 227.361 883.047 341.042 1023.13 341.042" stroke="#582F84" stroke-width="3.19625" stroke-miterlimit="10" fill="none" transform="matrix(1.00023 0 0 -1 1193.71 1112.45)"/><path d="M0-613.875 0 363.776 1057.23 363.776 1057.23-613.875Z" stroke="#582F84" stroke-width="3.19625" stroke-miterlimit="10" stroke-dasharray="23.9725 23.9725" fill="none" transform="matrix(1.00023 0 0 -1 1193.71 1112.45)"/><path d="M341.042-591.137 341.042 34.1027 1040.18 34.1027 1040.18-591.137Z" stroke="#582F84" stroke-width="9.58899" stroke-miterlimit="10" fill="none" transform="matrix(1.00023 0 0 -1 1193.71 1112.45)"/><text font-family="Arial,Arial_MSFontService,sans-serif" font-weight="400" font-size="9.9626" transform="matrix(8.02251 0 0 8.0207 703.643 1230)">.</text><text font-family="Arial,Arial_MSFontService,sans-serif" font-weight="400" font-size="9.9626" transform="matrix(8.02251 0 0 8.0207 739.193 1230)">.</text><text font-family="Arial,Arial_MSFontService,sans-serif" font-weight="400" font-size="9.9626" transform="matrix(8.02251 0 0 8.0207 774.664 1230)">.</text><text font-family="Arial,Arial_MSFontService,sans-serif" font-weight="400" font-size="9.9626" transform="matrix(8.02251 0 0 8.0207 3603.11 1230)">.</text><text font-family="Arial,Arial_MSFontService,sans-serif" font-weight="400" font-size="9.9626" transform="matrix(8.02251 0 0 8.0207 3638.66 1230)">.</text><text font-family="Arial,Arial_MSFontService,sans-serif" font-weight="400" font-size="9.9626" transform="matrix(8.02251 0 0 8.0207 3674.13 1230)">.</text><path d="M-341.042-113.681C-232.56-63.0944-142.588-63.0944-39.2605-111.277" stroke="#582F84" stroke-width="6.39258" stroke-miterlimit="10" fill="none" transform="matrix(1.00023 0 0 -1 1193.71 1112.45)"/><path d="M-12.4961 16.6615C-11.4548 10.4134 0 1.04124 3.12389 0 0-1.04124-11.4548-10.4134-12.4961-16.6615" stroke="#582F84" stroke-width="5.12662" stroke-linecap="round" stroke-linejoin="round" stroke-miterlimit="10" fill="none" transform="matrix(0.906468 0.422617 0.422713 -0.906264 1154.44 1223.73)"/><path d="M1040.18-113.681C1142.63-65.9048 1227.61-65.9048 1324.91-111.277" stroke="#582F84" stroke-width="6.39258" stroke-miterlimit="10" fill="none" transform="matrix(1.00023 0 0 -1 1193.71 1112.45)"/><path d="M-12.4961 16.6615C-11.4548 10.4134 0 1.04124 3.12389 0 0-1.04124-11.4548-10.4134-12.4961-16.6615" stroke="#582F84" stroke-width="5.12662" stroke-linecap="round" stroke-linejoin="round" stroke-miterlimit="10" fill="none" transform="matrix(0.906468 0.422617 0.422713 -0.906264 2518.91 1223.73)"/><path d="M2063.3-113.681C2165.76-65.9048 2250.73-65.9048 2348.04-111.277" stroke="#582F84" stroke-width="6.39258" stroke-miterlimit="10" fill="none" transform="matrix(1.00023 0 0 -1 1193.71 1112.45)"/><path d="M-12.4961 16.6615C-11.4548 10.4134 0 1.04124 3.12389 0 0-1.04124-11.4548-10.4134-12.4961-16.6615" stroke="#582F84" stroke-width="5.12662" stroke-linecap="round" stroke-linejoin="round" stroke-miterlimit="10" fill="none" transform="matrix(0.906468 0.422617 0.422713 -0.906264 3542.27 1223.73)"/><path d="M1364.17-284.201C1513.43-284.201 1555.95-454.722 1705.21-454.722" stroke="#582F84" stroke-width="3.19625" stroke-miterlimit="10" fill="none" transform="matrix(1.00023 0 0 -1 1193.71 1112.45)"/><path d="M1364.17-284.201C1513.43-284.201 1555.95-113.681 1705.21-113.681" stroke="#582F84" stroke-width="3.19625" stroke-miterlimit="10" fill="none" transform="matrix(1.00023 0 0 -1 1193.71 1112.45)"/><path d="M1705.21-113.681C1845.29-113.681 1906.17-227.361 2046.25-227.361" stroke="#582F84" stroke-width="3.19625" stroke-miterlimit="10" fill="none" transform="matrix(1.00023 0 0 -1 1193.71 1112.45)"/><path d="M1705.21-113.681C1845.29-113.681 1906.17 0 2046.25 0" stroke="#582F84" stroke-width="3.19625" stroke-miterlimit="10" fill="none" transform="matrix(1.00023 0 0 -1 1193.71 1112.45)"/><path d="M1705.21-454.722C1845.29-454.722 1906.17-568.403 2046.25-568.403" stroke="#582F84" stroke-width="3.19625" stroke-miterlimit="10" fill="none" transform="matrix(1.00023 0 0 -1 1193.71 1112.45)"/><path d="M1705.21-454.722C1845.29-454.722 1906.17-341.042 2046.25-341.042" stroke="#582F84" stroke-width="3.19625" stroke-miterlimit="10" fill="none" transform="matrix(1.00023 0 0 -1 1193.71 1112.45)"/><path d="M1364.17-591.137 1364.17 34.1027 2080.36 34.1027 2080.36-591.137Z" stroke="#582F84" stroke-width="3.19625" stroke-miterlimit="10" stroke-dasharray="23.9725 23.9725" fill="none" transform="matrix(1.00023 0 0 -1 1193.71 1112.45)"/><path d="M1705.21-244.412 1705.21 17.0514 2063.3 17.0514 2063.3-244.412Z" stroke="#582F84" stroke-width="9.58899" stroke-miterlimit="10" fill="none" transform="matrix(1.00023 0 0 -1 1193.71 1112.45)"/></g></g></g><g clip-path="url(#clip0)"><g clip-path="url(#clip1)"><g><path d="M0 56.4399C272.605 56.4399 404.674 225.76 677.28 225.76" stroke="#582F84" stroke-width="3.17374" stroke-miterlimit="10" fill="#582F84" transform="matrix(1 0 0 -1.00709 1189.95 1112.45)"/><path d="M0 56.4399C187.51 56.4399 151.13-282.2 338.64-282.2" stroke="#582F84" stroke-width="3.17374" stroke-miterlimit="10" fill="#582F84" transform="matrix(1 0 0 -1.00709 1189.95 1112.45)"/><path d="M338.64-282.2C486.846-282.2 529.074-451.52 677.28-451.52" stroke="#582F84" stroke-width="3.17374" stroke-miterlimit="10" fill="#582F84" transform="matrix(1 0 0 -1.00709 1189.95 1112.45)"/><path d="M338.64-282.2C486.846-282.2 529.074-112.88 677.28-112.88" stroke="#582F84" stroke-width="3.17374" stroke-miterlimit="10" fill="#582F84" transform="matrix(1 0 0 -1.00709 1189.95 1112.45)"/><path d="M677.28-451.52C816.379-451.52 876.828-564.4 1015.92-564.4" stroke="#582F84" stroke-width="3.17374" stroke-miterlimit="10" fill="#582F84" transform="matrix(1 0 0 -1.00709 1189.95 1112.45)"/><path d="M677.28-451.52C816.379-451.52 876.828-338.64 1015.92-338.64" stroke="#582F84" stroke-width="3.17374" stroke-miterlimit="10" fill="#582F84" transform="matrix(1 0 0 -1.00709 1189.95 1112.45)"/><path d="M677.28-112.88C816.379-112.88 876.828-225.76 1015.92-225.76" stroke="#582F84" stroke-width="3.17374" stroke-miterlimit="10" fill="#582F84" transform="matrix(1 0 0 -1.00709 1189.95 1112.45)"/><path d="M677.28-112.88C816.379-112.88 876.828 0 1015.92 0" stroke="#582F84" stroke-width="3.17374" stroke-miterlimit="10" fill="#582F84" transform="matrix(1 0 0 -1.00709 1189.95 1112.45)"/><path d="M677.28 225.76C816.379 225.76 876.828 112.88 1015.92 112.88" stroke="#582F84" stroke-width="3.17374" stroke-miterlimit="10" fill="#582F84" transform="matrix(1 0 0 -1.00709 1189.95 1112.45)"/><path d="M677.28 225.76C816.379 225.76 876.828 338.64 1015.92 338.64" stroke="#582F84" stroke-width="3.17374" stroke-miterlimit="10" fill="#582F84" transform="matrix(1 0 0 -1.00709 1189.95 1112.45)"/><path d="M0-609.551 0 361.214 1049.79 361.214 1049.79-609.551Z" stroke="#582F84" stroke-width="3.17374" stroke-miterlimit="10" stroke-dasharray="23.8037 23.8037" fill="#582F84" transform="matrix(1 0 0 -1.00709 1189.95 1112.45)"/><path d="M338.64-586.974 338.64 33.8625 1032.85 33.8625 1032.85-586.974Z" stroke="#582F84" stroke-width="9.52146" stroke-miterlimit="10" fill="#582F84" transform="matrix(1 0 0 -1.00709 1189.95 1112.45)"/><text fill="#582F84" font-family="Arial,Arial_MSFontService,sans-serif" font-weight="400" font-size="9.9626" transform="matrix(7.96421 0 0 8.0207 703.449 1230)">.</text><text fill="#582F84" font-family="Arial,Arial_MSFontService,sans-serif" font-weight="400" font-size="9.9626" transform="matrix(7.96421 0 0 8.0207 738.741 1230)">.</text><text fill="#582F84" font-family="Arial,Arial_MSFontService,sans-serif" font-weight="400" font-size="9.9626" transform="matrix(7.96421 0 0 8.0207 773.954 1230)">.</text><text fill="#582F84" font-family="Arial,Arial_MSFontService,sans-serif" font-weight="400" font-size="9.9626" transform="matrix(7.96421 0 0 8.0207 3581.84 1230)">.</text><text fill="#582F84" font-family="Arial,Arial_MSFontService,sans-serif" font-weight="400" font-size="9.9626" transform="matrix(7.96421 0 0 8.0207 3617.14 1230)">.</text><text fill="#582F84" font-family="Arial,Arial_MSFontService,sans-serif" font-weight="400" font-size="9.9626" transform="matrix(7.96421 0 0 8.0207 3652.35 1230)">.</text><path d="M-338.64-112.88C-230.922-62.65-141.584-62.65-38.984-110.493" stroke="#582F84" stroke-width="6.34756" stroke-miterlimit="10" fill="#582F84" transform="matrix(1 0 0 -1.00709 1189.95 1112.45)"/><path d="M-12.4234 16.5645C-11.3881 10.3528 0 1.03518 3.10571 0 0-1.03518-11.3881-10.3528-12.4234-16.5645" stroke="#582F84" stroke-width="5.09677" stroke-linecap="round" stroke-linejoin="round" stroke-miterlimit="10" fill="#582F84" transform="matrix(0.90515 0.425092 0.422098 -0.91157 1150.97 1223.73)"/><path d="M1032.85-112.88C1134.58-65.4407 1218.96-65.4407 1315.58-110.493" stroke="#582F84" stroke-width="6.34756" stroke-miterlimit="10" fill="#582F84" transform="matrix(1 0 0 -1.00709 1189.95 1112.45)"/><path d="M-12.4234 16.5645C-11.3881 10.3528 0 1.03518 3.10571 0 0-1.03518-11.3881-10.3528-12.4234-16.5645" stroke="#582F84" stroke-width="5.09677" stroke-linecap="round" stroke-linejoin="round" stroke-miterlimit="10" fill="#582F84" transform="matrix(0.90515 0.425092 0.422098 -0.91157 2505.53 1223.73)"/><path d="M2048.77-112.88C2150.5-65.4407 2234.88-65.4407 2331.5-110.493" stroke="#582F84" stroke-width="6.34756" stroke-miterlimit="10" fill="#582F84" transform="matrix(1 0 0 -1.00709 1189.95 1112.45)"/><path d="M-12.4234 16.5645C-11.3881 10.3528 0 1.03518 3.10571 0 0-1.03518-11.3881-10.3528-12.4234-16.5645" stroke="#582F84" stroke-width="5.09677" stroke-linecap="round" stroke-linejoin="round" stroke-miterlimit="10" fill="#582F84" transform="matrix(0.90515 0.425092 0.422098 -0.91157 3521.45 1223.73)"/><path d="M1354.56-282.2C1502.77-282.2 1544.99-451.52 1693.2-451.52" stroke="#582F84" stroke-width="3.17374" stroke-miterlimit="10" fill="#582F84" transform="matrix(1 0 0 -1.00709 1189.95 1112.45)"/><path d="M1354.56-282.2C1502.77-282.2 1544.99-112.88 1693.2-112.88" stroke="#582F84" stroke-width="3.17374" stroke-miterlimit="10" fill="#582F84" transform="matrix(1 0 0 -1.00709 1189.95 1112.45)"/><path d="M1693.2-112.88C1832.29-112.88 1892.74-225.76 2031.84-225.76" stroke="#582F84" stroke-width="3.17374" stroke-miterlimit="10" fill="#582F84" transform="matrix(1 0 0 -1.00709 1189.95 1112.45)"/><path d="M1693.2-112.88C1832.29-112.88 1892.74 0 2031.84 0" stroke="#582F84" stroke-width="3.17374" stroke-miterlimit="10" fill="#582F84" transform="matrix(1 0 0 -1.00709 1189.95 1112.45)"/><path d="M1693.2-451.52C1832.29-451.52 1892.74-564.4 2031.84-564.4" stroke="#582F84" stroke-width="3.17374" stroke-miterlimit="10" fill="#582F84" transform="matrix(1 0 0 -1.00709 1189.95 1112.45)"/><path d="M1693.2-451.52C1832.29-451.52 1892.74-338.64 2031.84-338.64" stroke="#582F84" stroke-width="3.17374" stroke-miterlimit="10" fill="#582F84" transform="matrix(1 0 0 -1.00709 1189.95 1112.45)"/><path d="M1354.56-586.974 1354.56 33.8625 2065.71 33.8625 2065.71-586.974Z" stroke="#582F84" stroke-width="3.17374" stroke-miterlimit="10" stroke-dasharray="23.8037 23.8037" fill="#582F84" transform="matrix(1 0 0 -1.00709 1189.95 1112.45)"/><path d="M1693.2-242.691 1693.2 16.9313 2048.77 16.9313 2048.77-242.691Z" stroke="#582F84" stroke-width="9.52146" stroke-miterlimit="10" fill="#582F84" transform="matrix(1 0 0 -1.00709 1189.95 1112.45)"/></g></g></g><g clip-path="url(#clip2)"><g clip-path="url(#clip3)"><g><path d="M0 56.5953C273.356 56.5953 405.789 226.382 679.145 226.382" stroke="#582F84" stroke-width="3.18248" stroke-miterlimit="10" fill="#582F84" transform="matrix(1 0 0 -1.00433 1205.17 1112.45)"/><path d="M0 56.5953C188.027 56.5953 151.546-282.977 339.572-282.977" stroke="#582F84" stroke-width="3.18248" stroke-miterlimit="10" fill="#582F84" transform="matrix(1 0 0 -1.00433 1205.17 1112.45)"/><path d="M339.572-282.977C488.187-282.977 530.531-452.763 679.145-452.763" stroke="#582F84" stroke-width="3.18248" stroke-miterlimit="10" fill="#582F84" transform="matrix(1 0 0 -1.00433 1205.17 1112.45)"/><path d="M339.572-282.977C488.187-282.977 530.531-113.191 679.145-113.191" stroke="#582F84" stroke-width="3.18248" stroke-miterlimit="10" fill="#582F84" transform="matrix(1 0 0 -1.00433 1205.17 1112.45)"/><path d="M679.145-452.763C818.628-452.763 879.243-565.954 1018.72-565.954" stroke="#582F84" stroke-width="3.18248" stroke-miterlimit="10" fill="#582F84" transform="matrix(1 0 0 -1.00433 1205.17 1112.45)"/><path d="M679.145-452.763C818.628-452.763 879.243-339.572 1018.72-339.572" stroke="#582F84" stroke-width="3.18248" stroke-miterlimit="10" fill="#582F84" transform="matrix(1 0 0 -1.00433 1205.17 1112.45)"/><path d="M679.145-113.191C818.628-113.191 879.243-226.382 1018.72-226.382" stroke="#582F84" stroke-width="3.18248" stroke-miterlimit="10" fill="#582F84" transform="matrix(1 0 0 -1.00433 1205.17 1112.45)"/><path d="M679.145-113.191C818.628-113.191 879.243 0 1018.72 0" stroke="#582F84" stroke-width="3.18248" stroke-miterlimit="10" fill="#582F84" transform="matrix(1 0 0 -1.00433 1205.17 1112.45)"/><path d="M679.145 226.382C818.628 226.382 879.243 113.191 1018.72 113.191" stroke="#582F84" stroke-width="3.18248" stroke-miterlimit="10" fill="#582F84" transform="matrix(1 0 0 -1.00433 1205.17 1112.45)"/><path d="M679.145 226.382C818.628 226.382 879.243 339.572 1018.72 339.572" stroke="#582F84" stroke-width="3.18248" stroke-miterlimit="10" fill="#582F84" transform="matrix(1 0 0 -1.00433 1205.17 1112.45)"/><path d="M0-611.23 0 362.208 1052.68 362.208 1052.68-611.23Z" stroke="#582F84" stroke-width="3.18248" stroke-miterlimit="10" stroke-dasharray="23.8692 23.8692" fill="#582F84" transform="matrix(1 0 0 -1.00433 1205.17 1112.45)"/><path d="M339.572-588.59 339.572 33.9557 1035.7 33.9557 1035.7-588.59Z" stroke="#582F84" stroke-width="9.54768" stroke-miterlimit="10" fill="#582F84" transform="matrix(1 0 0 -1.00433 1205.17 1112.45)"/><text fill="#582F84" font-family="Arial,Arial_MSFontService,sans-serif" font-weight="400" font-size="9.9626" transform="matrix(7.98615 0 0 8.0207 717.329 1230)">.</text><text fill="#582F84" font-family="Arial,Arial_MSFontService,sans-serif" font-weight="400" font-size="9.9626" transform="matrix(7.98615 0 0 8.0207 752.719 1230)">.</text><text fill="#582F84" font-family="Arial,Arial_MSFontService,sans-serif" font-weight="400" font-size="9.9626" transform="matrix(7.98615 0 0 8.0207 788.029 1230)">.</text><text fill="#582F84" font-family="Arial,Arial_MSFontService,sans-serif" font-weight="400" font-size="9.9626" transform="matrix(7.98615 0 0 8.0207 3603.65 1230)">.</text><text fill="#582F84" font-family="Arial,Arial_MSFontService,sans-serif" font-weight="400" font-size="9.9626" transform="matrix(7.98615 0 0 8.0207 3639.04 1230)">.</text><text fill="#582F84" font-family="Arial,Arial_MSFontService,sans-serif" font-weight="400" font-size="9.9626" transform="matrix(7.98615 0 0 8.0207 3674.35 1230)">.</text><path d="M-339.572-113.191C-231.558-62.8225-141.974-62.8225-39.0914-110.797" stroke="#582F84" stroke-width="6.36504" stroke-miterlimit="10" fill="#582F84" transform="matrix(1 0 0 -1.00433 1205.17 1112.45)"/><path d="M-12.4514 16.6019C-11.4138 10.3761 0 1.03752 3.11272 0 0-1.03752-11.4138-10.3761-12.4514-16.6019" stroke="#582F84" stroke-width="5.10828" stroke-linecap="round" stroke-linejoin="round" stroke-miterlimit="10" fill="#582F84" transform="matrix(0.905599 0.424135 0.422307 -0.909518 1166.08 1223.73)"/><path d="M1035.7-113.191C1137.71-65.6209 1222.32-65.6209 1319.2-110.797" stroke="#582F84" stroke-width="6.36504" stroke-miterlimit="10" fill="#582F84" transform="matrix(1 0 0 -1.00433 1205.17 1112.45)"/><path d="M-12.4514 16.6019C-11.4138 10.3761 0 1.03752 3.11272 0 0-1.03752-11.4138-10.3761-12.4514-16.6019" stroke="#582F84" stroke-width="5.10828" stroke-linecap="round" stroke-linejoin="round" stroke-miterlimit="10" fill="#582F84" transform="matrix(0.905599 0.424135 0.422307 -0.909518 2524.37 1223.73)"/><path d="M2054.41-113.191C2156.43-65.6209 2241.03-65.6209 2337.92-110.797" stroke="#582F84" stroke-width="6.36504" stroke-miterlimit="10" fill="#582F84" transform="matrix(1 0 0 -1.00433 1205.17 1112.45)"/><path d="M-12.4514 16.6019C-11.4138 10.3761 0 1.03752 3.11272 0 0-1.03752-11.4138-10.3761-12.4514-16.6019" stroke="#582F84" stroke-width="5.10828" stroke-linecap="round" stroke-linejoin="round" stroke-miterlimit="10" fill="#582F84" transform="matrix(0.905599 0.424135 0.422307 -0.909518 3543.09 1223.73)"/><path d="M1358.29-282.977C1506.91-282.977 1549.25-452.763 1697.86-452.763" stroke="#582F84" stroke-width="3.18248" stroke-miterlimit="10" fill="#582F84" transform="matrix(1 0 0 -1.00433 1205.17 1112.45)"/><path d="M1358.29-282.977C1506.91-282.977 1549.25-113.191 1697.86-113.191" stroke="#582F84" stroke-width="3.18248" stroke-miterlimit="10" fill="#582F84" transform="matrix(1 0 0 -1.00433 1205.17 1112.45)"/><path d="M1697.86-113.191C1837.34-113.191 1897.96-226.382 2037.43-226.382" stroke="#582F84" stroke-width="3.18248" stroke-miterlimit="10" fill="#582F84" transform="matrix(1 0 0 -1.00433 1205.17 1112.45)"/><path d="M1697.86-113.191C1837.34-113.191 1897.96 0 2037.43 0" stroke="#582F84" stroke-width="3.18248" stroke-miterlimit="10" fill="#582F84" transform="matrix(1 0 0 -1.00433 1205.17 1112.45)"/><path d="M1697.86-452.763C1837.34-452.763 1897.96-565.954 2037.43-565.954" stroke="#582F84" stroke-width="3.18248" stroke-miterlimit="10" fill="#582F84" transform="matrix(1 0 0 -1.00433 1205.17 1112.45)"/><path d="M1697.86-452.763C1837.34-452.763 1897.96-339.572 2037.43-339.572" stroke="#582F84" stroke-width="3.18248" stroke-miterlimit="10" fill="#582F84" transform="matrix(1 0 0 -1.00433 1205.17 1112.45)"/><path d="M1358.29-588.59 1358.29 33.9557 2071.4 33.9557 2071.4-588.59Z" stroke="#582F84" stroke-width="3.18248" stroke-miterlimit="10" stroke-dasharray="23.8692 23.8692" fill="#582F84" transform="matrix(1 0 0 -1.00433 1205.17 1112.45)"/><path d="M1697.86-243.359 1697.86 16.9779 2054.41 16.9779 2054.41-243.359Z" stroke="#582F84" stroke-width="9.54768" stroke-miterlimit="10" fill="#582F84" transform="matrix(1 0 0 -1.00433 1205.17 1112.45)"/></g></g></g></g></svg>