<svg width="10450" height="2475" xmlns="http://www.w3.org/2000/svg" xmlns:xlink="http://www.w3.org/1999/xlink" xml:space="preserve" overflow="hidden"><defs><clipPath id="clip0"><rect x="506" y="691" width="143" height="1093"/></clipPath><clipPath id="clip1"><rect x="506" y="691" width="143" height="1093"/></clipPath><clipPath id="clip2"><rect x="3731" y="691" width="163" height="1093"/></clipPath><clipPath id="clip3"><rect x="3731" y="691" width="163" height="1093"/></clipPath></defs><g transform="translate(3025 0)"><g><g><g><path d="M0 63.2137C305.323 63.2137 453.243 252.855 758.566 252.855" stroke="#582F84" stroke-width="3.55465" stroke-miterlimit="10" fill="none" transform="matrix(1.00036 0 0 -1 1080.72 1098.43)"/><path d="M0 63.2137C210.015 63.2137 169.268-316.069 379.283-316.069" stroke="#582F84" stroke-width="3.55465" stroke-miterlimit="10" fill="none" transform="matrix(1.00036 0 0 -1 1080.72 1098.43)"/><path d="M379.283-316.069C545.276-316.069 592.572-505.711 758.566-505.711" stroke="#582F84" stroke-width="3.55465" stroke-miterlimit="10" fill="none" transform="matrix(1.00036 0 0 -1 1080.72 1098.43)"/><path d="M379.283-316.069C545.276-316.069 592.572-126.428 758.566-126.428" stroke="#582F84" stroke-width="3.55465" stroke-miterlimit="10" fill="none" transform="matrix(1.00036 0 0 -1 1080.72 1098.43)"/><path d="M758.566-505.711C914.36-505.711 982.063-632.138 1137.85-632.138" stroke="#582F84" stroke-width="3.55465" stroke-miterlimit="10" fill="none" transform="matrix(1.00036 0 0 -1 1080.72 1098.43)"/><path d="M758.566-505.711C914.36-505.711 982.063-379.283 1137.85-379.283" stroke="#582F84" stroke-width="3.55465" stroke-miterlimit="10" fill="none" transform="matrix(1.00036 0 0 -1 1080.72 1098.43)"/><path d="M758.566-126.428C914.36-126.428 982.063-252.855 1137.85-252.855" stroke="#582F84" stroke-width="3.55465" stroke-miterlimit="10" fill="none" transform="matrix(1.00036 0 0 -1 1080.72 1098.43)"/><path d="M758.566-126.428C914.36-126.428 982.063 0 1137.85 0" stroke="#582F84" stroke-width="3.55465" stroke-miterlimit="10" fill="none" transform="matrix(1.00036 0 0 -1 1080.72 1098.43)"/><path d="M758.566 252.855C914.36 252.855 982.063 126.428 1137.85 126.428" stroke="#582F84" stroke-width="3.55465" stroke-miterlimit="10" fill="none" transform="matrix(1.00036 0 0 -1 1080.72 1098.43)"/><path d="M758.566 252.855C914.36 252.855 982.063 379.283 1137.85 379.283" stroke="#582F84" stroke-width="3.55465" stroke-miterlimit="10" fill="none" transform="matrix(1.00036 0 0 -1 1080.72 1098.43)"/><path d="M0-682.709 0 404.566 1175.78 404.566 1175.78-682.709Z" stroke="#582F84" stroke-width="3.55465" stroke-miterlimit="10" stroke-dasharray="26.6606 26.6606" fill="none" transform="matrix(1.00036 0 0 -1 1080.72 1098.43)"/><path d="M379.283-657.421 379.283 37.9266 1156.82 37.9266 1156.82-657.421Z" stroke="#582F84" stroke-width="10.6642" stroke-miterlimit="10" fill="none" transform="matrix(1.00036 0 0 -1 1080.72 1098.43)"/><text font-family="Arial,Arial_MSFontService,sans-serif" font-weight="400" font-size="9.9626" transform="matrix(8.92326 0 0 8.92006 535.634 1230)">.</text><text font-family="Arial,Arial_MSFontService,sans-serif" font-weight="400" font-size="9.9626" transform="matrix(8.92326 0 0 8.92006 575.176 1230)">.</text><text font-family="Arial,Arial_MSFontService,sans-serif" font-weight="400" font-size="9.9626" transform="matrix(8.92326 0 0 8.92006 614.63 1230)">.</text><text font-family="Arial,Arial_MSFontService,sans-serif" font-weight="400" font-size="9.9626" transform="matrix(8.92326 0 0 8.92006 3760.64 1230)">.</text><text font-family="Arial,Arial_MSFontService,sans-serif" font-weight="400" font-size="9.9626" transform="matrix(8.92326 0 0 8.92006 3800.19 1230)">.</text><text font-family="Arial,Arial_MSFontService,sans-serif" font-weight="400" font-size="9.9626" transform="matrix(8.92326 0 0 8.92006 3839.64 1230)">.</text><path d="M-379.283-126.428C-258.637-70.1692-158.576-70.1692-43.6628-123.754" stroke="#582F84" stroke-width="7.10938" stroke-miterlimit="10" fill="none" transform="matrix(1.00036 0 0 -1 1080.72 1098.43)"/><path d="M-13.8977 18.5302C-12.7395 11.5813 0 1.15803 3.47426 0 0-1.15803-12.7395-11.5813-13.8977-18.5302" stroke="#582F84" stroke-width="5.7016" stroke-linecap="round" stroke-linejoin="round" stroke-miterlimit="10" fill="none" transform="matrix(0.906567 0.422607 0.422759 -0.906242 1037.04 1222.18)"/><path d="M1156.82-126.428C1270.75-73.2947 1365.26-73.2947 1473.47-123.754" stroke="#582F84" stroke-width="7.10938" stroke-miterlimit="10" fill="none" transform="matrix(1.00036 0 0 -1 1080.72 1098.43)"/><path d="M-13.8977 18.5302C-12.7395 11.5813 0 1.15803 3.47426 0 0-1.15803-12.7395-11.5813-13.8977-18.5302" stroke="#582F84" stroke-width="5.7016" stroke-linecap="round" stroke-linejoin="round" stroke-miterlimit="10" fill="none" transform="matrix(0.906567 0.422607 0.422759 -0.906242 2554.72 1222.18)"/><path d="M2294.66-126.428C2408.6-73.2947 2503.1-73.2947 2611.32-123.754" stroke="#582F84" stroke-width="7.10938" stroke-miterlimit="10" fill="none" transform="matrix(1.00036 0 0 -1 1080.72 1098.43)"/><path d="M-13.8977 18.5302C-12.7395 11.5813 0 1.15803 3.47426 0 0-1.15803-12.7395-11.5813-13.8977-18.5302" stroke="#582F84" stroke-width="5.7016" stroke-linecap="round" stroke-linejoin="round" stroke-miterlimit="10" fill="none" transform="matrix(0.906567 0.422607 0.422759 -0.906242 3692.98 1222.18)"/><path d="M1517.13-316.069C1683.13-316.069 1730.42-505.711 1896.41-505.711" stroke="#582F84" stroke-width="3.55465" stroke-miterlimit="10" fill="none" transform="matrix(1.00036 0 0 -1 1080.72 1098.43)"/><path d="M1517.13-316.069C1683.13-316.069 1730.42-126.428 1896.41-126.428" stroke="#582F84" stroke-width="3.55465" stroke-miterlimit="10" fill="none" transform="matrix(1.00036 0 0 -1 1080.72 1098.43)"/><path d="M1896.41-126.428C2052.2-126.428 2119.91-252.855 2275.7-252.855" stroke="#582F84" stroke-width="3.55465" stroke-miterlimit="10" fill="none" transform="matrix(1.00036 0 0 -1 1080.72 1098.43)"/><path d="M1896.41-126.428C2052.2-126.428 2119.91 0 2275.7 0" stroke="#582F84" stroke-width="3.55465" stroke-miterlimit="10" fill="none" transform="matrix(1.00036 0 0 -1 1080.72 1098.43)"/><path d="M1896.41-505.711C2052.2-505.711 2119.91-632.138 2275.7-632.138" stroke="#582F84" stroke-width="3.55465" stroke-miterlimit="10" fill="none" transform="matrix(1.00036 0 0 -1 1080.72 1098.43)"/><path d="M1896.41-505.711C2052.2-505.711 2119.91-379.283 2275.7-379.283" stroke="#582F84" stroke-width="3.55465" stroke-miterlimit="10" fill="none" transform="matrix(1.00036 0 0 -1 1080.72 1098.43)"/><path d="M1517.13-657.421 1517.13 37.9266 2313.63 37.9266 2313.63-657.421Z" stroke="#582F84" stroke-width="3.55465" stroke-miterlimit="10" stroke-dasharray="26.6606 26.6606" fill="none" transform="matrix(1.00036 0 0 -1 1080.72 1098.43)"/><path d="M1896.41-271.818 1896.41 18.9633 2294.66 18.9633 2294.66-271.818Z" stroke="#582F84" stroke-width="10.6642" stroke-miterlimit="10" fill="none" transform="matrix(1.00036 0 0 -1 1080.72 1098.43)"/></g></g></g><g clip-path="url(#clip0)"><g clip-path="url(#clip1)"><g><path d="M0 63.0538C304.551 63.0538 452.096 252.216 756.647 252.216" stroke="#582F84" stroke-width="3.54565" stroke-miterlimit="10" fill="#582F84" transform="matrix(1 0 0 -1.00254 1079.06 1098.43)"/><path d="M0 63.0538C209.484 63.0538 168.84-315.27 378.324-315.27" stroke="#582F84" stroke-width="3.54565" stroke-miterlimit="10" fill="#582F84" transform="matrix(1 0 0 -1.00254 1079.06 1098.43)"/><path d="M378.324-315.27C543.897-315.27 591.073-504.431 756.647-504.431" stroke="#582F84" stroke-width="3.54565" stroke-miterlimit="10" fill="#582F84" transform="matrix(1 0 0 -1.00254 1079.06 1098.43)"/><path d="M378.324-315.27C543.897-315.27 591.073-126.108 756.647-126.108" stroke="#582F84" stroke-width="3.54565" stroke-miterlimit="10" fill="#582F84" transform="matrix(1 0 0 -1.00254 1079.06 1098.43)"/><path d="M756.647-504.431C912.047-504.431 979.579-630.539 1134.97-630.539" stroke="#582F84" stroke-width="3.54565" stroke-miterlimit="10" fill="#582F84" transform="matrix(1 0 0 -1.00254 1079.06 1098.43)"/><path d="M756.647-504.431C912.047-504.431 979.579-378.324 1134.97-378.324" stroke="#582F84" stroke-width="3.54565" stroke-miterlimit="10" fill="#582F84" transform="matrix(1 0 0 -1.00254 1079.06 1098.43)"/><path d="M756.647-126.108C912.047-126.108 979.579-252.216 1134.97-252.216" stroke="#582F84" stroke-width="3.54565" stroke-miterlimit="10" fill="#582F84" transform="matrix(1 0 0 -1.00254 1079.06 1098.43)"/><path d="M756.647-126.108C912.047-126.108 979.579 0 1134.97 0" stroke="#582F84" stroke-width="3.54565" stroke-miterlimit="10" fill="#582F84" transform="matrix(1 0 0 -1.00254 1079.06 1098.43)"/><path d="M756.647 252.216C912.047 252.216 979.579 126.108 1134.97 126.108" stroke="#582F84" stroke-width="3.54565" stroke-miterlimit="10" fill="#582F84" transform="matrix(1 0 0 -1.00254 1079.06 1098.43)"/><path d="M756.647 252.216C912.047 252.216 979.579 378.324 1134.97 378.324" stroke="#582F84" stroke-width="3.54565" stroke-miterlimit="10" fill="#582F84" transform="matrix(1 0 0 -1.00254 1079.06 1098.43)"/><path d="M0-680.982 0 403.543 1172.81 403.543 1172.81-680.982Z" stroke="#582F84" stroke-width="3.54565" stroke-miterlimit="10" stroke-dasharray="26.5931 26.5931" fill="#582F84" transform="matrix(1 0 0 -1.00254 1079.06 1098.43)"/><path d="M378.324-655.758 378.324 37.8307 1153.89 37.8307 1153.89-655.758Z" stroke="#582F84" stroke-width="10.6372" stroke-miterlimit="10" fill="#582F84" transform="matrix(1 0 0 -1.00254 1079.06 1098.43)"/><text fill="#582F84" font-family="Arial,Arial_MSFontService,sans-serif" font-weight="400" font-size="9.9626" transform="matrix(8.8975 0 0 8.92006 535.549 1230)">.</text><text fill="#582F84" font-family="Arial,Arial_MSFontService,sans-serif" font-weight="400" font-size="9.9626" transform="matrix(8.8975 0 0 8.92006 574.977 1230)">.</text><text fill="#582F84" font-family="Arial,Arial_MSFontService,sans-serif" font-weight="400" font-size="9.9626" transform="matrix(8.8975 0 0 8.92006 614.316 1230)">.</text><text fill="#582F84" font-family="Arial,Arial_MSFontService,sans-serif" font-weight="400" font-size="9.9626" transform="matrix(8.8975 0 0 8.92006 3751.25 1230)">.</text><text fill="#582F84" font-family="Arial,Arial_MSFontService,sans-serif" font-weight="400" font-size="9.9626" transform="matrix(8.8975 0 0 8.92006 3790.68 1230)">.</text><text fill="#582F84" font-family="Arial,Arial_MSFontService,sans-serif" font-weight="400" font-size="9.9626" transform="matrix(8.8975 0 0 8.92006 3830.02 1230)">.</text><path d="M-378.324-126.108C-257.983-69.9917-158.175-69.9917-43.5524-123.441" stroke="#582F84" stroke-width="7.0914" stroke-miterlimit="10" fill="#582F84" transform="matrix(1 0 0 -1.00254 1079.06 1098.43)"/><path d="M-13.8679 18.4905C-12.7123 11.5565 0 1.15555 3.46682 0 0-1.15555-12.7123-11.5565-13.8679-18.4905" stroke="#582F84" stroke-width="5.68939" stroke-linecap="round" stroke-linejoin="round" stroke-miterlimit="10" fill="#582F84" transform="matrix(0.90589 0.423514 0.422443 -0.908187 1035.51 1222.18)"/><path d="M1153.89-126.108C1267.54-73.1093 1361.81-73.1093 1469.74-123.441" stroke="#582F84" stroke-width="7.0914" stroke-miterlimit="10" fill="#582F84" transform="matrix(1 0 0 -1.00254 1079.06 1098.43)"/><path d="M-13.8679 18.4905C-12.7123 11.5565 0 1.15555 3.46682 0 0-1.15555-12.7123-11.5565-13.8679-18.4905" stroke="#582F84" stroke-width="5.68939" stroke-linecap="round" stroke-linejoin="round" stroke-miterlimit="10" fill="#582F84" transform="matrix(0.90589 0.423514 0.422443 -0.908187 2548.8 1222.18)"/><path d="M2288.86-126.108C2402.51-73.1093 2496.77-73.1093 2604.72-123.441" stroke="#582F84" stroke-width="7.0914" stroke-miterlimit="10" fill="#582F84" transform="matrix(1 0 0 -1.00254 1079.06 1098.43)"/><path d="M-13.8679 18.4905C-12.7123 11.5565 0 1.15555 3.46682 0 0-1.15555-12.7123-11.5565-13.8679-18.4905" stroke="#582F84" stroke-width="5.68939" stroke-linecap="round" stroke-linejoin="round" stroke-miterlimit="10" fill="#582F84" transform="matrix(0.90589 0.423514 0.422443 -0.908187 3683.78 1222.18)"/><path d="M1513.3-315.27C1678.87-315.27 1726.04-504.431 1891.62-504.431" stroke="#582F84" stroke-width="3.54565" stroke-miterlimit="10" fill="#582F84" transform="matrix(1 0 0 -1.00254 1079.06 1098.43)"/><path d="M1513.3-315.27C1678.87-315.27 1726.04-126.108 1891.62-126.108" stroke="#582F84" stroke-width="3.54565" stroke-miterlimit="10" fill="#582F84" transform="matrix(1 0 0 -1.00254 1079.06 1098.43)"/><path d="M1891.62-126.108C2047.01-126.108 2114.54-252.216 2269.94-252.216" stroke="#582F84" stroke-width="3.54565" stroke-miterlimit="10" fill="#582F84" transform="matrix(1 0 0 -1.00254 1079.06 1098.43)"/><path d="M1891.62-126.108C2047.01-126.108 2114.54 0 2269.94 0" stroke="#582F84" stroke-width="3.54565" stroke-miterlimit="10" fill="#582F84" transform="matrix(1 0 0 -1.00254 1079.06 1098.43)"/><path d="M1891.62-504.431C2047.01-504.431 2114.54-630.539 2269.94-630.539" stroke="#582F84" stroke-width="3.54565" stroke-miterlimit="10" fill="#582F84" transform="matrix(1 0 0 -1.00254 1079.06 1098.43)"/><path d="M1891.62-504.431C2047.01-504.431 2114.54-378.324 2269.94-378.324" stroke="#582F84" stroke-width="3.54565" stroke-miterlimit="10" fill="#582F84" transform="matrix(1 0 0 -1.00254 1079.06 1098.43)"/><path d="M1513.3-655.758 1513.3 37.8307 2307.78 37.8307 2307.78-655.758Z" stroke="#582F84" stroke-width="3.54565" stroke-miterlimit="10" stroke-dasharray="26.5931 26.5931" fill="#582F84" transform="matrix(1 0 0 -1.00254 1079.06 1098.43)"/><path d="M1891.62-271.131 1891.62 18.9154 2288.86 18.9154 2288.86-271.131Z" stroke="#582F84" stroke-width="10.6372" stroke-miterlimit="10" fill="#582F84" transform="matrix(1 0 0 -1.00254 1079.06 1098.43)"/></g></g></g><g clip-path="url(#clip2)"><g clip-path="url(#clip3)"><g><path d="M0 63.1851C305.185 63.1851 453.038 252.741 758.223 252.741" stroke="#582F84" stroke-width="3.55304" stroke-miterlimit="10" fill="#582F84" transform="matrix(1 0 0 -1.00045 1083 1098.43)"/><path d="M0 63.1851C209.92 63.1851 169.191-315.926 379.111-315.926" stroke="#582F84" stroke-width="3.55304" stroke-miterlimit="10" fill="#582F84" transform="matrix(1 0 0 -1.00045 1083 1098.43)"/><path d="M379.111-315.926C545.03-315.926 592.304-505.482 758.223-505.482" stroke="#582F84" stroke-width="3.55304" stroke-miterlimit="10" fill="#582F84" transform="matrix(1 0 0 -1.00045 1083 1098.43)"/><path d="M379.111-315.926C545.03-315.926 592.304-126.37 758.223-126.37" stroke="#582F84" stroke-width="3.55304" stroke-miterlimit="10" fill="#582F84" transform="matrix(1 0 0 -1.00045 1083 1098.43)"/><path d="M758.223-505.482C913.946-505.482 981.619-631.852 1137.34-631.852" stroke="#582F84" stroke-width="3.55304" stroke-miterlimit="10" fill="#582F84" transform="matrix(1 0 0 -1.00045 1083 1098.43)"/><path d="M758.223-505.482C913.946-505.482 981.619-379.111 1137.34-379.111" stroke="#582F84" stroke-width="3.55304" stroke-miterlimit="10" fill="#582F84" transform="matrix(1 0 0 -1.00045 1083 1098.43)"/><path d="M758.223-126.37C913.946-126.37 981.619-252.741 1137.34-252.741" stroke="#582F84" stroke-width="3.55304" stroke-miterlimit="10" fill="#582F84" transform="matrix(1 0 0 -1.00045 1083 1098.43)"/><path d="M758.223-126.37C913.946-126.37 981.619 0 1137.34 0" stroke="#582F84" stroke-width="3.55304" stroke-miterlimit="10" fill="#582F84" transform="matrix(1 0 0 -1.00045 1083 1098.43)"/><path d="M758.223 252.741C913.946 252.741 981.619 126.37 1137.34 126.37" stroke="#582F84" stroke-width="3.55304" stroke-miterlimit="10" fill="#582F84" transform="matrix(1 0 0 -1.00045 1083 1098.43)"/><path d="M758.223 252.741C913.946 252.741 981.619 379.111 1137.34 379.111" stroke="#582F84" stroke-width="3.55304" stroke-miterlimit="10" fill="#582F84" transform="matrix(1 0 0 -1.00045 1083 1098.43)"/><path d="M0-682.4 0 404.383 1175.25 404.383 1175.25-682.4Z" stroke="#582F84" stroke-width="3.55304" stroke-miterlimit="10" stroke-dasharray="26.6485 26.6485" fill="#582F84" transform="matrix(1 0 0 -1.00045 1083 1098.43)"/><path d="M379.111-657.124 379.111 37.9094 1156.29 37.9094 1156.29-657.124Z" stroke="#582F84" stroke-width="10.6594" stroke-miterlimit="10" fill="#582F84" transform="matrix(1 0 0 -1.00045 1083 1098.43)"/><text fill="#582F84" font-family="Arial,Arial_MSFontService,sans-serif" font-weight="400" font-size="9.9626" transform="matrix(8.91603 0 0 8.92006 538.357 1230)">.</text><text fill="#582F84" font-family="Arial,Arial_MSFontService,sans-serif" font-weight="400" font-size="9.9626" transform="matrix(8.91603 0 0 8.92006 577.867 1230)">.</text><text fill="#582F84" font-family="Arial,Arial_MSFontService,sans-serif" font-weight="400" font-size="9.9626" transform="matrix(8.91603 0 0 8.92006 617.289 1230)">.</text><text fill="#582F84" font-family="Arial,Arial_MSFontService,sans-serif" font-weight="400" font-size="9.9626" transform="matrix(8.91603 0 0 8.92006 3760.75 1230)">.</text><text fill="#582F84" font-family="Arial,Arial_MSFontService,sans-serif" font-weight="400" font-size="9.9626" transform="matrix(8.91603 0 0 8.92006 3800.26 1230)">.</text><text fill="#582F84" font-family="Arial,Arial_MSFontService,sans-serif" font-weight="400" font-size="9.9626" transform="matrix(8.91603 0 0 8.92006 3839.68 1230)">.</text><path d="M-379.111-126.37C-258.52-70.1374-158.505-70.1374-43.6431-123.698" stroke="#582F84" stroke-width="7.10616" stroke-miterlimit="10" fill="#582F84" transform="matrix(1 0 0 -1.00045 1083 1098.43)"/><path d="M-13.8916 18.5221C-12.734 11.5763 0 1.15752 3.47274 0 0-1.15752-12.734-11.5763-13.8916-18.5221" stroke="#582F84" stroke-width="5.69912" stroke-linecap="round" stroke-linejoin="round" stroke-miterlimit="10" fill="#582F84" transform="matrix(0.906227 0.422791 0.4226 -0.906637 1039.36 1222.18)"/><path d="M1156.29-126.37C1270.18-73.2616 1364.64-73.2616 1472.8-123.698" stroke="#582F84" stroke-width="7.10616" stroke-miterlimit="10" fill="#582F84" transform="matrix(1 0 0 -1.00045 1083 1098.43)"/><path d="M-13.8916 18.5221C-12.734 11.5763 0 1.15752 3.47274 0 0-1.15752-12.734-11.5763-13.8916-18.5221" stroke="#582F84" stroke-width="5.69912" stroke-linecap="round" stroke-linejoin="round" stroke-miterlimit="10" fill="#582F84" transform="matrix(0.906227 0.422791 0.4226 -0.906637 2555.8 1222.18)"/><path d="M2293.62-126.37C2407.52-73.2616 2501.97-73.2616 2610.14-123.698" stroke="#582F84" stroke-width="7.10616" stroke-miterlimit="10" fill="#582F84" transform="matrix(1 0 0 -1.00045 1083 1098.43)"/><path d="M-13.8916 18.5221C-12.734 11.5763 0 1.15752 3.47274 0 0-1.15752-12.734-11.5763-13.8916-18.5221" stroke="#582F84" stroke-width="5.69912" stroke-linecap="round" stroke-linejoin="round" stroke-miterlimit="10" fill="#582F84" transform="matrix(0.906227 0.422791 0.4226 -0.906637 3693.14 1222.18)"/><path d="M1516.45-315.926C1682.37-315.926 1729.64-505.482 1895.56-505.482" stroke="#582F84" stroke-width="3.55304" stroke-miterlimit="10" fill="#582F84" transform="matrix(1 0 0 -1.00045 1083 1098.43)"/><path d="M1516.45-315.926C1682.37-315.926 1729.64-126.37 1895.56-126.37" stroke="#582F84" stroke-width="3.55304" stroke-miterlimit="10" fill="#582F84" transform="matrix(1 0 0 -1.00045 1083 1098.43)"/><path d="M1895.56-126.37C2051.28-126.37 2118.95-252.741 2274.67-252.741" stroke="#582F84" stroke-width="3.55304" stroke-miterlimit="10" fill="#582F84" transform="matrix(1 0 0 -1.00045 1083 1098.43)"/><path d="M1895.56-126.37C2051.28-126.37 2118.95 0 2274.67 0" stroke="#582F84" stroke-width="3.55304" stroke-miterlimit="10" fill="#582F84" transform="matrix(1 0 0 -1.00045 1083 1098.43)"/><path d="M1895.56-505.482C2051.28-505.482 2118.95-631.852 2274.67-631.852" stroke="#582F84" stroke-width="3.55304" stroke-miterlimit="10" fill="#582F84" transform="matrix(1 0 0 -1.00045 1083 1098.43)"/><path d="M1895.56-505.482C2051.28-505.482 2118.95-379.111 2274.67-379.111" stroke="#582F84" stroke-width="3.55304" stroke-miterlimit="10" fill="#582F84" transform="matrix(1 0 0 -1.00045 1083 1098.43)"/><path d="M1516.45-657.124 1516.45 37.9094 2312.59 37.9094 2312.59-657.124Z" stroke="#582F84" stroke-width="3.55304" stroke-miterlimit="10" stroke-dasharray="26.6485 26.6485" fill="#582F84" transform="matrix(1 0 0 -1.00045 1083 1098.43)"/><path d="M1895.56-271.695 1895.56 18.9548 2293.62 18.9548 2293.62-271.695Z" stroke="#582F84" stroke-width="10.6594" stroke-miterlimit="10" fill="#582F84" transform="matrix(1 0 0 -1.00045 1083 1098.43)"/></g></g></g></g></svg>