<?xml version="1.0" standalone="no"?>
<!DOCTYPE svg PUBLIC "-//W3C//DTD SVG 20010904//EN"
 "http://www.w3.org/TR/2001/REC-SVG-20010904/DTD/svg10.dtd">
<svg version="1.0" xmlns="http://www.w3.org/2000/svg"
 width="1000.000000pt" height="1000.000000pt" viewBox="0 0 1000.000000 1000.000000"
 preserveAspectRatio="xMidYMid meet">

<g transform="translate(0.000000,1000.000000) scale(0.100000,-0.100000)"
fill="#000000" stroke="none">
<path d="M3850 8584 c-239 -8 -592 -19 -785 -25 -192 -6 -410 -11 -483 -10
-114 1 -138 -1 -171 -19 -43 -21 -60 -40 -38 -40 26 0 193 -88 252 -133 65
-50 249 -249 278 -300 13 -24 17 -56 17 -137 0 -58 5 -159 10 -225 10 -118 26
-413 36 -670 3 -71 11 -218 19 -325 9 -109 15 -331 15 -505 0 -170 5 -488 11
-705 11 -436 11 -1047 0 -2530 l-7 -985 -23 -65 c-35 -101 -86 -172 -183 -258
-39 -33 -189 -135 -259 -174 -39 -22 -47 -40 -30 -67 10 -15 67 -14 1321 35
223 8 419 14 435 13 80 -5 534 15 528 24 -3 5 -26 18 -52 29 -175 77 -327 238
-474 505 l-45 81 -6 764 c-3 419 -9 1047 -12 1395 l-5 632 23 34 c20 32 28 35
83 41 93 9 692 7 960 -4 310 -12 880 -13 1015 0 58 5 139 12 180 15 75 6 274
31 314 40 11 3 32 7 46 9 382 61 803 248 1042 463 137 122 240 262 269 363 7
25 16 49 21 54 4 6 8 17 8 25 0 9 7 29 15 45 31 59 48 211 41 361 -13 259 -24
369 -53 530 -33 179 -45 206 -176 404 -290 438 -615 729 -1040 930 -60 28
-111 51 -114 51 -3 0 -55 18 -115 40 -149 55 -331 109 -478 141 -358 79 -614
117 -940 140 -74 5 -198 13 -275 19 -181 13 -629 10 -1175 -6z m1019 -419
c155 -8 286 -17 290 -19 4 -3 45 -7 91 -11 47 -3 99 -8 115 -10 17 -2 53 -7
80 -10 164 -17 462 -80 591 -125 256 -88 476 -247 660 -475 147 -181 222 -370
275 -685 56 -340 -16 -719 -193 -1007 -89 -145 -231 -264 -443 -372 -106 -53
-246 -103 -332 -117 -15 -2 -48 -9 -73 -14 -168 -37 -668 -50 -1105 -29 -165
7 -517 19 -587 19 -17 0 -18 69 -18 1420 l0 1419 28 15 c36 20 250 21 621 1z"/>
<path d="M5785 7831 c-166 -47 -286 -102 -510 -231 -337 -194 -336 -194 -347
-179 -26 39 -39 73 -45 116 -3 27 -14 65 -24 85 -17 34 -26 39 -106 64 -119
36 -153 40 -191 20 -57 -30 -97 -84 -122 -168 -9 -28 -8 -28 40 -28 42 0 53
-4 79 -32 47 -51 101 -165 107 -228 7 -67 -17 -163 -75 -303 -97 -234 -127
-361 -118 -504 6 -83 10 -100 37 -140 49 -71 68 -116 86 -194 26 -112 22 -240
-16 -539 -5 -41 -12 -99 -15 -127 l-6 -53 29 0 c26 0 30 4 36 38 3 20 6 54 6
76 0 69 109 317 199 450 91 137 176 212 299 262 82 34 102 32 103 -8 1 -109
29 -280 49 -313 49 -79 172 -166 270 -191 51 -13 148 -12 170 1 3 2 25 6 50
10 24 4 51 10 60 15 8 4 56 21 106 38 50 17 126 47 170 66 154 67 327 116 411
116 l46 0 -8 153 -7 152 -45 52 c-55 65 -82 85 -180 129 -166 75 -253 118
-253 126 0 4 12 8 28 8 15 0 43 5 62 10 19 6 53 13 75 15 125 16 339 35 468
41 146 7 147 7 147 30 l0 24 -430 0 c-236 0 -430 4 -430 8 0 4 18 28 41 52 99
108 130 161 174 298 26 80 18 169 -19 217 -32 42 -100 76 -163 83 -39 4 -45 1
-96 -50 -30 -29 -90 -72 -133 -95 -75 -39 -249 -111 -287 -119 -29 -5 -167
-54 -221 -78 -92 -42 -197 -132 -235 -204 -22 -42 -41 -116 -41 -166 0 -59 18
-89 100 -171 33 -33 60 -62 59 -65 0 -3 -19 -20 -42 -38 -23 -19 -62 -53 -87
-76 -25 -23 -93 -83 -152 -134 -89 -77 -113 -92 -141 -92 -29 0 -38 6 -64 48
-43 66 -76 137 -99 207 -16 50 -19 89 -19 235 1 206 17 292 76 415 87 180 216
291 594 510 198 115 311 179 360 205 28 15 66 36 85 47 19 11 85 46 145 78 61
32 112 60 114 62 12 9 -37 -2 -154 -36z m-1042 -256 c39 -6 50 -13 62 -36 19
-36 19 -87 1 -131 -14 -33 -42 -65 -50 -57 -16 17 -114 228 -108 233 3 4 16 5
27 2 11 -2 42 -8 68 -11z m1365 -448 c-3 -47 -13 -87 -28 -117 -24 -49 -238
-265 -328 -332 -29 -22 -56 -46 -58 -53 -4 -8 26 -50 69 -98 50 -56 81 -102
93 -134 l18 -50 35 8 c66 15 261 10 344 -10 43 -10 79 -20 81 -22 24 -28 109
-173 118 -201 14 -48 7 -65 -34 -71 -39 -6 -142 -37 -218 -67 -114 -45 -348
-121 -415 -135 -184 -39 -295 -1 -401 138 -50 67 -53 88 -28 207 19 94 65 191
116 246 45 49 54 41 -72 63 -81 15 -161 53 -195 92 -46 56 -30 151 42 246 51
67 161 130 334 191 99 35 277 113 335 147 22 13 62 42 89 64 l49 40 29 -40
c28 -38 29 -45 25 -112z"/>
<path d="M8120 8569 c-106 -19 -177 -47 -455 -184 -258 -127 -443 -200 -500
-197 -17 1 -18 0 -4 -8 16 -9 119 -21 349 -41 69 -6 158 -19 198 -30 90 -24
117 -24 213 0 76 20 144 54 274 141 84 55 127 76 220 106 39 12 70 27 69 33
-1 6 -2 22 -2 35 -2 16 -18 34 -58 61 -94 62 -226 98 -304 84z m132 -92 c10
-2 21 -6 25 -10 9 -9 -127 -148 -182 -186 -59 -41 -180 -102 -221 -111 -35 -8
-110 7 -159 31 -11 6 -43 13 -70 17 l-49 7 65 41 c202 130 330 199 399 215 30
7 136 4 192 -4z"/>
<path d="M1618 7979 l-3 -242 -113 -61 c-128 -69 -159 -102 -148 -160 6 -30
11 -35 44 -41 20 -3 47 -12 59 -18 44 -25 113 -99 147 -160 47 -83 131 -176
181 -198 54 -25 146 -24 231 2 82 25 124 48 124 67 0 31 55 112 91 137 22 14
101 46 177 71 97 32 153 56 188 82 111 84 124 208 35 347 -14 22 -54 78 -89
124 -35 46 -75 107 -89 136 l-26 52 32 47 32 46 -66 0 c-60 0 -71 -3 -108 -33
-23 -19 -58 -41 -79 -50 -63 -29 -73 -28 -408 71 -36 10 -98 20 -137 21 l-73
2 -2 -242z m720 124 c6 -16 21 -68 35 -118 14 -49 30 -102 35 -116 14 -34 77
-89 113 -96 29 -5 29 -6 29 -74 0 -85 -16 -161 -40 -192 -19 -24 -21 -24 -72
-11 -107 28 -190 -12 -281 -135 -53 -72 -132 -146 -183 -171 -37 -19 -44 -19
-88 -6 -67 20 -91 39 -122 93 -83 148 -159 239 -224 268 -22 10 -40 24 -40 31
0 26 59 80 121 111 110 55 103 38 85 193 -20 168 -21 230 -3 230 22 0 324 -78
344 -89 11 -5 28 -26 38 -45 11 -20 22 -36 26 -36 3 0 27 31 53 70 74 110 152
152 174 93z"/>
<path d="M2367 7237 l-29 -23 41 -62 c65 -98 83 -147 85 -232 1 -71 -6 -96
-116 -430 -64 -195 -122 -382 -129 -415 l-11 -59 -27 31 c-14 17 -52 76 -84
132 -69 120 -104 151 -246 221 -132 65 -214 85 -287 70 -69 -14 -79 -30 -20
-30 59 0 55 1 96 -16 53 -23 88 -62 107 -120 14 -46 15 -65 5 -148 -7 -52 -12
-139 -12 -194 0 -121 16 -175 76 -260 1 -2 38 -9 83 -16 123 -20 232 4 285 63
11 12 22 21 25 21 4 0 12 -33 19 -72 37 -207 151 -533 229 -656 47 -73 182
-208 255 -255 56 -35 152 -87 163 -87 3 0 5 17 5 38 0 34 -5 41 -65 85 -107
79 -277 272 -336 381 -30 56 -36 165 -14 241 22 77 93 185 145 219 22 14 40
29 40 31 0 22 -177 -93 -249 -162 -13 -13 -27 -23 -32 -23 -13 0 -37 95 -49
199 -9 72 -9 117 0 190 13 105 70 403 95 491 55 199 90 427 82 541 -8 127 -27
277 -37 304 -12 32 -55 33 -93 2z m-461 -931 c27 -19 161 -196 173 -229 6 -15
11 -73 12 -129 l1 -102 -31 -28 c-36 -33 -98 -38 -157 -13 -75 31 -76 37 -55
250 11 114 11 137 -3 192 -9 33 -16 64 -16 67 0 12 56 6 76 -8z"/>
<path d="M8307 5908 c28 -77 20 -175 -27 -353 -24 -88 -51 -191 -62 -230 -22
-84 -48 -252 -48 -316 0 -26 7 -64 16 -85 25 -59 90 -150 129 -180 46 -35 153
-73 226 -81 56 -6 58 -5 65 21 8 33 -4 48 -73 87 -45 26 -54 35 -49 53 7 29
23 123 41 231 8 50 24 133 35 185 15 64 23 145 26 251 l5 155 -72 100 c-40 54
-83 113 -97 129 -28 35 -89 75 -114 75 -16 0 -16 -3 -1 -42z m127 -164 c14
-15 41 -56 58 -92 47 -96 48 -150 3 -357 -20 -93 -38 -181 -40 -195 -7 -47
-47 -224 -56 -247 -11 -29 -38 -29 -72 -2 -20 15 -35 47 -58 121 l-31 101 17
76 c10 42 23 99 30 126 7 28 25 109 40 180 15 72 33 153 40 180 7 28 16 69 20
93 4 23 10 42 15 42 4 0 19 -12 34 -26z"/>
<path d="M1876 5150 c-94 -7 -104 -24 -46 -76 44 -40 90 -121 90 -160 0 -32
-43 -138 -94 -234 -104 -193 -126 -244 -132 -306 -6 -53 -3 -69 20 -119 35
-78 141 -181 226 -222 127 -61 149 -63 667 -53 l273 5 0 22 c0 19 -10 25 -57
39 -47 14 -79 15 -168 10 -60 -4 -209 -8 -330 -9 -234 -2 -262 2 -370 55 -55
28 -128 109 -148 166 -16 43 -16 60 -3 198 9 102 19 162 31 185 19 36 73 89
91 89 17 0 31 -39 45 -125 12 -79 38 -127 121 -228 24 -29 89 -51 248 -82 103
-20 536 -33 525 -16 -14 24 -130 69 -205 81 -41 6 -102 16 -135 21 -33 5 -105
9 -161 9 -75 0 -116 5 -163 21 -86 28 -106 43 -133 97 -22 45 -23 58 -24 282
-1 242 -2 249 -44 305 -33 43 -52 50 -124 45z"/>
<path d="M4612 4857 c-12 -13 -22 -26 -22 -30 0 -19 163 -333 242 -467 59 -98
75 -121 245 -342 216 -280 323 -422 323 -429 0 -4 -8 -17 -19 -30 l-19 -23
-118 104 c-119 106 -141 123 -294 229 -88 61 -250 153 -285 164 -11 3 -53 19
-94 36 -41 17 -110 40 -155 52 -44 11 -89 22 -98 25 -15 4 -18 -1 -18 -30 0
-33 2 -35 58 -56 31 -11 66 -25 77 -29 11 -5 54 -21 95 -36 41 -15 89 -32 105
-38 111 -40 304 -164 290 -187 -9 -14 -192 9 -270 35 -22 7 -87 27 -145 44
-58 18 -115 36 -126 41 -16 6 -30 3 -53 -13 -37 -26 -38 -33 -8 -40 12 -2 108
-35 212 -72 105 -36 201 -70 215 -75 29 -10 325 -114 453 -159 202 -72 407
-176 545 -278 76 -56 86 -68 50 -58 -61 16 -107 29 -268 76 -96 28 -218 64
-270 79 -305 93 -573 140 -787 140 -153 0 -173 -4 -173 -35 0 -20 7 -23 93
-34 330 -43 728 -122 932 -186 22 -6 74 -22 115 -35 41 -12 91 -28 110 -35
370 -135 529 -207 815 -370 27 -16 75 -44 105 -64 30 -20 62 -40 71 -46 111
-71 271 -191 373 -280 108 -94 276 -328 276 -383 0 -12 -3 -22 -6 -22 -3 0
-31 19 -62 43 -107 81 -258 177 -333 210 -41 19 -121 48 -179 65 -99 30 -116
32 -285 33 -99 1 -297 -3 -440 -9 -382 -16 -607 7 -776 80 -38 16 -51 28 -63
59 -20 50 -20 151 -1 252 8 42 16 108 17 146 3 57 -1 74 -18 98 -26 35 -117
83 -171 90 -52 7 -265 -43 -313 -72 -40 -26 -76 -63 -68 -71 3 -3 41 -1 83 5
111 16 156 14 219 -10 82 -32 134 -93 126 -149 -3 -26 -55 -121 -116 -215
-150 -228 -166 -312 -81 -432 130 -184 245 -267 443 -317 71 -18 331 -22 429
-6 33 5 78 12 100 15 128 19 140 21 405 81 78 18 293 61 335 68 17 3 77 12
134 22 80 13 141 15 267 11 l163 -5 78 -42 c105 -58 211 -139 277 -212 53 -59
106 -149 106 -181 0 -10 2 -17 5 -17 16 0 105 23 105 27 0 3 -13 33 -29 67
-77 160 -76 234 5 305 72 63 154 86 509 141 134 20 166 27 250 52 94 28 130
51 162 106 38 64 44 134 22 262 -44 255 -73 325 -185 437 -87 86 -165 128
-291 156 -31 7 -29 -1 17 -53 68 -78 112 -167 118 -236 4 -54 1 -66 -23 -105
-59 -93 -158 -186 -315 -295 -47 -32 -128 -102 -180 -154 -101 -101 -154 -183
-166 -258 -4 -23 -10 -45 -15 -48 -5 -2 -31 5 -59 17 -40 17 -56 31 -72 63
-86 168 -160 255 -534 629 -176 174 -331 336 -346 360 -49 80 -120 262 -158
412 -49 190 -53 472 -10 635 49 184 130 329 255 456 139 141 253 194 479 224
159 22 288 -23 407 -140 38 -37 69 -72 69 -77 0 -6 -46 -13 -102 -16 -180 -10
-276 -56 -376 -178 -65 -79 -187 -248 -285 -394 -49 -74 -80 -111 -94 -113
-27 -4 -83 23 -104 51 -10 13 -23 18 -33 14 -17 -7 -56 -81 -55 -107 0 -21 51
-75 90 -95 87 -45 124 -50 364 -47 127 1 240 0 252 -3 20 -5 20 -7 8 -32 -16
-33 -51 -203 -60 -288 -8 -84 9 -239 34 -306 27 -72 79 -125 208 -212 143 -98
172 -110 270 -111 115 -1 120 11 23 63 -73 39 -81 46 -91 84 -25 88 -8 201 40
259 6 7 25 32 43 55 18 23 72 92 121 152 48 60 87 112 87 115 0 4 11 24 25 45
13 22 27 51 31 65 3 14 10 26 16 26 5 0 69 -39 141 -87 73 -48 146 -91 162
-95 49 -13 186 -10 240 5 28 8 64 23 81 33 39 24 120 118 133 154 8 26 7 29
-17 35 -137 34 -253 204 -297 439 -39 199 -41 206 -89 305 -40 82 -92 135
-169 172 -77 36 -124 37 -173 4 -54 -36 -100 -47 -138 -31 -17 7 -84 62 -149
122 -65 59 -137 119 -159 133 -65 38 -162 52 -368 53 -200 1 -275 -11 -409
-66 -138 -56 -319 -208 -390 -329 -46 -79 -108 -254 -125 -353 -3 -16 -12 -69
-20 -119 -9 -49 -16 -124 -16 -166 0 -118 49 -344 107 -494 52 -133 94 -266
90 -279 -6 -19 -264 252 -352 369 -100 135 -152 224 -204 356 -53 130 -70 208
-77 339 l-6 105 47 94 c56 111 96 158 176 207 33 19 59 38 59 42 0 4 -17 39
-37 79 -35 66 -41 73 -80 82 -61 16 -203 14 -252 -4 -118 -41 -219 -146 -247
-257 -33 -127 -2 -322 82 -512 41 -93 140 -271 171 -307 12 -14 11 -18 -2 -29
-18 -15 -17 -15 -64 49 -20 26 -72 93 -116 148 -44 55 -125 157 -180 228 -55
70 -116 147 -135 170 -102 122 -282 398 -452 692 l-25 43 -21 -23z m1141 -248
c12 -7 23 -13 25 -14 2 -2 -21 -54 -51 -116 -79 -164 -102 -265 -102 -454 0
-82 4 -172 8 -199 10 -56 -3 -56 -32 2 -10 20 -44 84 -76 141 -31 57 -63 122
-71 144 -19 54 -18 221 1 278 22 62 104 179 144 206 38 26 116 31 154 12z
m2228 -214 c48 -13 67 -24 97 -58 20 -23 60 -67 89 -97 l51 -55 7 -95 c19
-260 87 -422 219 -520 25 -19 45 -42 43 -50 -3 -24 -105 -70 -153 -70 -87 0
-225 43 -237 74 -3 8 -27 29 -54 47 -72 48 -174 139 -186 166 -17 38 -9 48
-120 -152 -60 -109 -102 -189 -167 -315 -18 -36 -57 -105 -85 -155 -29 -49
-55 -99 -58 -110 -3 -11 -13 -46 -22 -77 -9 -32 -22 -58 -29 -58 -6 0 -31 12
-54 28 -64 41 -93 114 -126 325 -7 42 20 206 45 273 12 32 37 93 56 134 75
163 112 276 127 383 l5 39 -27 -18 c-25 -16 -61 -42 -230 -166 -142 -106 -273
-158 -392 -158 -39 0 -70 4 -70 10 0 5 23 31 51 57 61 56 94 103 176 248 22
39 48 88 58 110 43 92 120 176 197 216 78 40 167 41 245 3 46 -23 62 -26 116
-21 34 3 109 21 167 40 117 40 173 44 261 22z m290 -1562 c14 -15 41 -50 59
-78 19 -27 49 -68 67 -91 39 -49 41 -76 14 -209 -21 -103 -50 -171 -83 -201
-58 -52 -89 -61 -233 -73 -77 -7 -179 -16 -226 -22 -47 -5 -107 -9 -133 -9
-41 0 -46 2 -37 18 21 38 149 157 256 238 127 96 220 207 252 301 13 37 14 57
6 102 -6 31 -9 59 -6 64 6 10 34 -7 64 -40z m-3327 -438 c32 -70 111 -149 179
-180 115 -52 182 -53 747 -10 107 9 272 15 366 15 157 0 182 -3 289 -30 108
-27 251 -87 274 -113 7 -9 -24 -12 -122 -10 -125 1 -168 -3 -377 -41 -89 -16
-464 -93 -490 -101 -8 -2 -35 -7 -60 -10 -25 -3 -70 -10 -100 -15 -84 -15
-337 -15 -405 0 -124 25 -268 81 -308 119 -79 74 -106 151 -88 256 11 68 48
175 61 175 5 0 20 -25 34 -55z"/>
<path d="M7621 4076 c-1 -7 -34 -135 -69 -261 -4 -18 -3 -18 22 4 16 15 26 35
26 52 0 15 7 58 16 95 8 37 13 78 11 93 -2 14 -5 22 -6 17z"/>
<path d="M2735 3485 c-71 -25 -188 -61 -260 -81 -261 -73 -457 -200 -530 -343
-30 -60 -62 -216 -64 -314 -2 -81 2 -103 28 -174 41 -112 90 -206 146 -283
145 -196 205 -293 205 -330 0 -14 -16 -38 -39 -60 -30 -29 -52 -39 -102 -49
-85 -17 -101 -24 -64 -28 17 -2 71 -10 121 -18 87 -14 94 -14 155 6 136 45
225 109 266 191 40 79 40 141 -1 283 -8 28 -28 100 -45 160 -16 61 -37 130
-45 154 -54 150 -94 403 -75 476 21 77 73 158 156 241 69 68 100 91 186 133
57 28 111 51 121 51 15 0 16 3 6 15 -17 20 -16 20 -165 -30z m-357 -263 c10
-7 8 -14 -8 -34 -16 -22 -20 -41 -20 -111 0 -71 -3 -89 -22 -112 l-21 -27 22
-77 c24 -82 88 -252 128 -341 42 -92 75 -237 70 -304 -6 -61 -52 -171 -90
-213 -23 -26 -78 -31 -96 -9 -6 7 -19 49 -28 92 -14 67 -23 87 -62 133 -127
149 -172 216 -213 321 -40 100 -44 252 -11 390 6 23 81 132 107 155 7 6 24 27
40 47 56 75 157 119 204 90z"/>
</g>
</svg>
