<svg width="10450" height="2475" xmlns="http://www.w3.org/2000/svg" xmlns:xlink="http://www.w3.org/1999/xlink" xml:space="preserve" overflow="hidden"><g transform="translate(3025 0)"><path d="M448 1230C448 789.277 706.779 432 1026 432 1345.22 432 1604 789.277 1604 1230 1604 1670.72 1345.22 2028 1026 2028 706.779 2028 448 1670.72 448 1230Z" stroke="#582F84" stroke-width="13.75" stroke-miterlimit="8" fill="#D0BBE7" fill-rule="evenodd"/><path d="M1006.01 1209.91 991.586 1235.44 1007.43 1235.44 1006.74 1222.39C1006.66 1220.61 1006.59 1218.38 1006.54 1215.7 1006.49 1213.03 1006.46 1211.1 1006.46 1209.91ZM1006.26 1201.36 1012.38 1201.36 1015.29 1246.54C1015.43 1248.68 1015.67 1250.35 1016.02 1251.55 1016.38 1252.75 1016.86 1253.64 1017.46 1254.22 1018.07 1254.81 1018.96 1255.18 1020.12 1255.34L1019.67 1257.33 1002.81 1257.33 1003.26 1255.34C1004.85 1255.2 1006.04 1254.58 1006.82 1253.48 1007.61 1252.37 1008 1250.42 1008 1247.64 1008 1246.59 1007.96 1245.44 1007.88 1244.19L1007.59 1238.97 989.763 1238.97 987.534 1242.94C986.48 1244.8 985.71 1246.4 985.224 1247.74 984.737 1249.08 984.494 1250.26 984.494 1251.29 984.494 1253.56 985.858 1254.91 988.587 1255.34L988.141 1257.33 971.566 1257.33 972.012 1255.34C972.849 1255.23 973.639 1254.9 974.382 1254.35 975.125 1253.79 975.916 1252.95 976.753 1251.83 977.591 1250.71 978.766 1248.85 980.279 1246.26Z" fill="#582F84" fill-rule="evenodd"/><text fill="#000000" fill-opacity="0" font-family="Arial,Arial_MSFontService,sans-serif" font-size="55.9683" x="971.566" y="1250.33">𝐴</text><path d="M1041.6 1239.07C1040.23 1239.07 1039.09 1239.43 1038.17 1240.14 1037.26 1240.85 1036.53 1241.9 1035.99 1243.28 1035.45 1244.65 1035.07 1246.33 1034.85 1248.31 1034.62 1250.3 1034.51 1252.55 1034.51 1255.07 1034.51 1257.98 1034.65 1260.49 1034.94 1262.61 1035.22 1264.73 1035.66 1266.47 1036.25 1267.84 1036.85 1269.21 1037.6 1270.21 1038.5 1270.86 1039.39 1271.5 1040.47 1271.83 1041.72 1271.83 1042.89 1271.83 1043.92 1271.52 1044.79 1270.92 1045.67 1270.31 1046.4 1269.37 1046.98 1268.09 1047.55 1266.81 1047.99 1265.19 1048.28 1263.23 1048.57 1261.26 1048.72 1258.94 1048.72 1256.27 1048.72 1253.26 1048.56 1250.67 1048.24 1248.5 1047.91 1246.34 1047.46 1244.55 1046.87 1243.16 1046.29 1241.76 1045.55 1240.73 1044.66 1240.07 1043.77 1239.4 1042.75 1239.07 1041.6 1239.07ZM1041.72 1236.23C1044.04 1236.23 1046.03 1236.66 1047.68 1237.53 1049.33 1238.4 1050.68 1239.64 1051.72 1241.25 1052.77 1242.87 1053.53 1244.83 1054.02 1247.16 1054.51 1249.48 1054.76 1252.11 1054.76 1255.04 1054.76 1261.54 1053.6 1266.46 1051.3 1269.79 1048.99 1273.12 1045.65 1274.78 1041.28 1274.78 1036.94 1274.78 1033.72 1273.21 1031.61 1270.07 1029.5 1266.92 1028.45 1262.16 1028.45 1255.77 1028.45 1252.43 1028.77 1249.54 1029.43 1247.1 1030.08 1244.66 1031 1242.63 1032.18 1241.02 1033.36 1239.41 1034.77 1238.21 1036.39 1237.42 1038.01 1236.62 1039.78 1236.23 1041.72 1236.23Z" fill="#582F84" fill-rule="evenodd"/><text fill="#000000" fill-opacity="0" font-family="Arial,Arial_MSFontService,sans-serif" font-size="38.5547" x="1028.45" y="1269.96">0</text><path d="M1957 1245C1957 804.277 2215.78 447 2535 447 2854.22 447 3113 804.277 3113 1245 3113 1685.72 2854.22 2043 2535 2043 2215.78 2043 1957 1685.72 1957 1245Z" stroke="#582F84" stroke-width="13.75" stroke-miterlimit="8" fill="#D0BBE7" fill-rule="evenodd"/><path d="M2237 1230C2237 789.277 2495.78 432 2815 432 3134.22 432 3393 789.277 3393 1230 3393 1670.72 3134.22 2028 2815 2028 2495.78 2028 2237 1670.72 2237 1230Z" stroke="#582F84" stroke-width="13.75" stroke-miterlimit="8" fill="#D0BBE7" fill-rule="evenodd"/><path d="M2517 1230C2517 789.277 2775.78 432 3095 432 3414.22 432 3673 789.277 3673 1230 3673 1670.72 3414.22 2028 3095 2028 2775.78 2028 2517 1670.72 2517 1230Z" stroke="#582F84" stroke-width="13.75" stroke-miterlimit="8" fill="#D0BBE7" fill-rule="evenodd"/><path d="M2796 1230C2796 789.277 3054.78 432 3374 432 3693.22 432 3952 789.277 3952 1230 3952 1670.72 3693.22 2028 3374 2028 3054.78 2028 2796 1670.72 2796 1230Z" stroke="#582F84" stroke-width="13.75" stroke-miterlimit="8" fill="#D0BBE7" fill-rule="evenodd"/><path d="M3354.43 1209.91 3340 1235.44 3355.85 1235.44 3355.16 1222.39C3355.08 1220.61 3355.01 1218.38 3354.96 1215.7 3354.9 1213.03 3354.88 1211.1 3354.88 1209.91ZM3354.67 1201.36 3360.79 1201.36 3363.71 1246.54C3363.84 1248.68 3364.09 1250.35 3364.44 1251.55 3364.79 1252.75 3365.27 1253.64 3365.88 1254.22 3366.49 1254.81 3367.37 1255.18 3368.53 1255.34L3368.09 1257.32 3351.23 1257.32 3351.67 1255.34C3353.27 1255.2 3354.46 1254.58 3355.24 1253.47 3356.02 1252.37 3356.42 1250.42 3356.42 1247.64 3356.42 1246.59 3356.37 1245.44 3356.29 1244.19L3356.01 1238.97 3338.18 1238.97 3335.95 1242.94C3334.9 1244.8 3334.12 1246.4 3333.64 1247.74 3333.15 1249.08 3332.91 1250.26 3332.91 1251.29 3332.91 1253.56 3334.27 1254.91 3337 1255.34L3336.56 1257.32 3319.98 1257.32 3320.43 1255.34C3321.26 1255.23 3322.05 1254.9 3322.8 1254.35 3323.54 1253.79 3324.33 1252.95 3325.17 1251.83 3326.01 1250.71 3327.18 1248.85 3328.69 1246.26Z" fill="#582F84" fill-rule="evenodd"/><text fill="#000000" fill-opacity="0" font-family="Arial,Arial_MSFontService,sans-serif" font-size="55.9683" x="3319.98" y="1250.33">𝐴</text><path d="M3388.93 1232.27 3390.63 1232.27 3388.76 1239.83 3396.17 1236.64 3397.22 1239.01 3387.99 1242.88 3385.59 1252.58 3385.94 1252.69C3387.78 1250.25 3389.53 1248.48 3391.19 1247.36 3392.85 1246.25 3394.54 1245.69 3396.26 1245.69 3398.09 1245.69 3399.5 1246.21 3400.49 1247.24 3401.48 1248.28 3401.97 1249.73 3401.97 1251.61 3401.97 1252.84 3401.69 1254.59 3401.12 1256.85L3399.22 1264.53C3398.69 1266.66 3398.42 1268.16 3398.42 1269.04 3398.42 1269.82 3398.55 1270.39 3398.81 1270.74 3399.06 1271.09 3399.46 1271.27 3400.01 1271.27 3400.59 1271.27 3401.22 1271.03 3401.88 1270.55 3402.55 1270.07 3403.48 1269.16 3404.69 1267.81L3406.36 1269.45C3404.78 1271.09 3403.57 1272.23 3402.73 1272.88 3401.89 1273.52 3401.09 1273.98 3400.31 1274.24 3399.54 1274.51 3398.67 1274.64 3397.69 1274.64 3396.42 1274.64 3395.41 1274.18 3394.65 1273.28 3393.88 1272.37 3393.5 1271.21 3393.5 1269.8 3393.5 1268.53 3393.82 1266.67 3394.47 1264.21L3395.76 1259.14C3396.23 1257.3 3396.53 1255.95 3396.68 1255.07 3396.83 1254.19 3396.9 1253.48 3396.9 1252.93 3396.9 1251.56 3396.67 1250.58 3396.21 1250 3395.75 1249.41 3395.01 1249.12 3393.97 1249.12 3393.15 1249.12 3392.25 1249.45 3391.26 1250.12 3390.28 1250.78 3389.24 1251.79 3388.17 1253.15 3387.1 1254.51 3386.24 1255.8 3385.61 1257.04 3384.97 1258.28 3384.47 1259.76 3384.1 1261.48L3381.43 1274.17 3376.36 1274.17 3382.93 1244.99 3378.91 1246.72 3377.86 1244.34 3383.6 1242 3384.07 1239.92C3384.42 1238.22 3384.6 1237.03 3384.6 1236.35 3384.6 1235.53 3384.35 1234.95 3383.85 1234.62 3383.35 1234.29 3382.46 1234.1 3381.17 1234.06L3381.52 1232.54Z" fill="#582F84" fill-rule="evenodd"/><text fill="#000000" fill-opacity="0" font-family="Arial,Arial_MSFontService,sans-serif" font-size="42.3633" x="3376.36" y="1269.34">ℏ</text><path d="M1135.14 1183.21 1154.08 1165.72 1174.18 1148.99 1195.25 1133.15 1217.23 1118.21 1240.07 1104.18 1263.71 1091.05 1288.1 1078.83 1313.19 1067.53 1338.92 1057.15 1365.24 1047.69 1392.1 1039.17 1419.45 1031.58 1447.23 1024.94 1475.39 1019.24 1503.88 1014.5 1532.64 1010.71 1561.62 1007.89 1590.78 1006.04 1620.05 1005.17 1649.39 1005.28 1678.74 1006.37 1708.04 1008.46 1737.26 1011.56 1766.33 1015.65 1795.2 1020.77 1823.82 1026.9 1852.13 1034.06 1880.09 1042.26 1907.64 1051.5 1934.73 1061.78 1961.29 1073.12 1987.29 1085.52 2009.14 1097.05 2030.21 1109.23 2050.48 1122.06 2069.9 1135.5 2088.46 1149.55 2106.18 1164.22 2113.53 1171.12 2104.11 1181.14 2096.92 1174.38 2097.24 1174.67 2079.81 1160.24 2080.05 1160.42 2061.72 1146.55 2061.96 1146.73 2042.77 1133.44 2043 1133.6 2022.98 1120.92 2023.21 1121.07 2002.38 1109.02 2002.61 1109.15 1980.99 1097.74 1981.24 1097.87 1955.5 1085.59 1955.77 1085.71 1929.46 1074.48 1929.71 1074.59 1902.89 1064.4 1903.14 1064.49 1875.85 1055.34 1876.1 1055.42 1848.39 1047.3 1848.64 1047.36 1820.57 1040.26 1820.81 1040.32 1792.44 1034.24 1792.68 1034.29 1764.05 1029.22 1764.29 1029.25 1735.46 1025.19 1735.69 1025.22 1706.71 1022.15 1706.95 1022.17 1677.87 1020.1 1678.11 1020.11 1648.99 1019.02 1649.22 1019.02 1620.12 1018.92 1620.35 1018.91 1591.3 1019.78 1591.53 1019.77 1562.61 1021.61 1562.84 1021.59 1534.09 1024.39 1534.32 1024.36 1505.79 1028.12 1506.02 1028.08 1477.77 1032.79 1478 1032.74 1450.07 1038.39 1450.31 1038.34 1422.77 1044.93 1423.01 1044.87 1395.9 1052.39 1396.14 1052.31 1369.52 1060.76 1369.77 1060.68 1343.69 1070.04 1343.94 1069.95 1318.46 1080.23 1318.71 1080.12 1293.87 1091.31 1294.13 1091.19 1270 1103.28 1270.26 1103.14 1246.88 1116.12 1247.14 1115.97 1224.56 1129.84 1224.83 1129.67 1203.12 1144.43 1203.38 1144.24 1182.58 1159.88 1182.85 1159.67 1163.02 1176.17 1163.28 1175.94 1144.47 1193.31ZM2118.08 1156.46 2133.69 1199.86 2089.61 1186.31Z" fill="#582F84"/><path d="M1108.92 1159.18 1127.72 1140.25 1148.03 1121.99 1169.65 1104.54 1192.5 1087.91 1216.53 1072.12 1241.68 1057.16 1267.88 1043.05 1295.07 1029.79 1323.19 1017.4 1352.19 1005.88 1381.99 995.236 1412.55 985.486 1443.8 976.636 1475.67 968.694 1508.11 961.671 1541.07 955.577 1574.47 950.42 1608.25 946.212 1642.37 942.962 1676.75 940.681 1711.34 939.378 1746.07 939.064 1780.88 939.75 1815.73 941.446 1850.53 944.162 1885.24 947.91 1919.79 952.699 1954.12 958.541 1988.18 965.447 2021.89 973.427 2055.2 982.493 2088.04 992.652 2112.65 1001.12 2136.61 1010.13 2159.9 1019.67 2182.51 1029.73 2204.41 1040.3 2225.58 1051.36 2246 1062.9 2265.65 1074.9 2284.51 1087.36 2302.54 1100.25 2319.74 1113.58 2336.08 1127.32 2351.57 1141.5 2369.23 1159.79 2359.34 1169.34 2341.83 1151.2 2342.13 1151.5 2326.9 1137.56 2327.11 1137.75 2311 1124.19 2311.21 1124.36 2294.23 1111.2 2294.44 1111.36 2276.61 1098.61 2276.82 1098.76 2258.17 1086.44 2258.38 1086.57 2238.93 1074.69 2239.14 1074.81 2218.92 1063.38 2219.11 1063.49 2198.14 1052.54 2198.33 1052.64 2176.63 1042.16 2176.82 1042.25 2154.4 1032.28 2154.59 1032.36 2131.49 1022.89 2131.67 1022.96 2107.9 1014.02 2108.09 1014.09 2083.67 1005.69 2083.88 1005.76 2051.25 995.664 2051.48 995.73 2018.39 986.725 2018.61 986.781 1985.12 978.853 1985.33 978.9 1951.5 972.038 1951.71 972.078 1917.59 966.272 1917.8 966.304 1883.45 961.544 1883.66 961.569 1849.16 957.844 1849.36 957.863 1814.76 955.162 1814.96 955.175 1780.31 953.489 1780.51 953.496 1745.9 952.814 1746.09 952.815 1711.56 953.127 1711.75 953.122 1677.36 954.417 1677.56 954.407 1643.38 956.676 1643.57 956.66 1609.66 959.891 1609.85 959.869 1576.27 964.052 1576.47 964.025 1543.27 969.15 1543.47 969.116 1510.72 975.173 1510.92 975.132 1478.68 982.111 1478.89 982.062 1447.23 989.952 1447.44 989.895 1416.41 998.685 1416.62 998.62 1386.28 1008.3 1386.51 1008.23 1356.92 1018.79 1357.15 1018.7 1328.39 1030.13 1328.62 1030.03 1300.73 1042.32 1300.97 1042.21 1274.03 1055.35 1274.27 1055.22 1248.33 1069.19 1248.58 1069.05 1223.69 1083.85 1223.95 1083.69 1200.19 1099.31 1200.46 1099.13 1177.88 1115.56 1178.15 1115.35 1156.81 1132.57 1157.09 1132.33 1137.06 1150.35 1137.34 1150.08 1118.67 1168.87ZM2375.27 1145.81 2386.93 1190.43 2344.24 1172.99Z" fill="#582F84"/><path d="M1082.17 1137.58 1090.89 1127.43 1100.15 1117.38 1109.85 1107.51 1120 1097.82 1130.58 1088.31 1141.58 1078.99 1152.99 1069.85 1164.81 1060.9 1177.01 1052.14 1189.61 1043.56 1202.58 1035.18 1215.95 1026.97 1243.66 1011.19 1272.78 996.175 1303.19 981.955 1334.83 968.544 1367.64 955.953 1401.53 944.195 1436.44 933.284 1472.31 923.232 1509.06 914.053 1546.62 905.761 1584.93 898.37 1623.92 891.894 1663.51 886.345 1703.64 881.74 1744.24 878.091 1785.23 875.414 1826.56 873.722 1868.15 873.03 1909.92 873.353 1951.82 874.704 1993.77 877.1 2035.7 880.553 2077.55 885.08 2119.24 890.694 2160.7 897.411 2201.88 905.246 2245.77 914.962 2288.26 925.818 2309 931.675 2329.34 937.797 2349.3 944.185 2368.87 950.837 2388.03 957.745 2406.79 964.907 2425.12 972.317 2443.03 979.97 2460.5 987.862 2477.53 995.988 2494.1 1004.34 2510.21 1012.92 2525.84 1021.73 2540.99 1030.74 2555.65 1039.97 2569.81 1049.41 2583.47 1059.05 2596.6 1068.88 2609.2 1078.92 2621.27 1089.14 2632.8 1099.55 2643.76 1110.14 2654.16 1120.9 2664.05 1131.91 2677.09 1148.47 2666.29 1156.98 2653.39 1140.6 2653.67 1140.94 2644.02 1130.18 2644.19 1130.37 2633.96 1119.77 2634.12 1119.94 2623.33 1109.52 2623.49 1109.67 2612.14 1099.41 2612.3 1099.56 2600.4 1089.48 2600.56 1089.61 2588.12 1079.71 2588.28 1079.83 2575.3 1070.11 2575.46 1070.22 2561.96 1060.69 2562.11 1060.8 2548.1 1051.46 2548.25 1051.56 2533.74 1042.43 2533.89 1042.51 2518.88 1033.58 2519.02 1033.67 2503.53 1024.95 2503.67 1025.02 2487.7 1016.52 2487.84 1016.59 2471.4 1008.3 2471.54 1008.36 2454.65 1000.3 2454.78 1000.36 2437.43 992.53 2437.56 992.586 2419.78 984.987 2419.91 985.04 2401.7 977.68 2401.82 977.729 2383.19 970.614 2383.31 970.659 2364.26 963.793 2364.38 963.835 2344.93 957.224 2345.05 957.262 2325.21 950.911 2325.32 950.946 2305.1 944.859 2305.21 944.892 2284.61 939.074 2284.77 939.119 2242.48 928.312 2242.69 928.363 2199 918.693 2199.2 918.735 2158.23 910.936 2158.41 910.969 2117.13 904.282 2117.31 904.309 2075.8 898.719 2075.98 898.74 2034.31 894.233 2034.49 894.249 1992.73 890.81 1992.9 890.822 1951.12 888.437 1951.29 888.445 1909.56 887.098 1909.73 887.102 1868.12 886.781 1868.29 886.78 1826.87 887.469 1827.04 887.464 1785.88 889.149 1786.05 889.14 1745.22 891.807 1745.38 891.794 1704.95 895.427 1705.12 895.41 1665.16 899.996 1665.33 899.974 1625.91 905.498 1626.09 905.472 1587.27 911.92 1587.45 911.888 1549.32 919.245 1549.5 919.208 1512.11 927.46 1512.3 927.416 1475.74 936.548 1475.92 936.498 1440.25 946.496 1440.45 946.438 1405.73 957.287 1405.93 957.22 1372.25 968.906 1372.46 968.829 1339.87 981.338 1340.09 981.249 1308.67 994.566 1308.9 994.464 1278.72 1008.57 1278.96 1008.46 1250.09 1023.35 1250.34 1023.21 1222.85 1038.86 1223.05 1038.75 1209.84 1046.86 1209.98 1046.77 1197.14 1055.07 1197.28 1054.98 1184.82 1063.45 1184.96 1063.36 1172.89 1072.02 1173.04 1071.91 1161.37 1080.75 1161.51 1080.64 1150.25 1089.66 1150.4 1089.54 1139.55 1098.73 1139.7 1098.6 1129.27 1107.97 1129.42 1107.83 1119.43 1117.38 1119.58 1117.23 1110.03 1126.94 1110.18 1126.78 1101.08 1136.66 1101.24 1136.49 1092.59 1146.54ZM2684.61 1135.24 2691.46 1180.84 2650.86 1158.96Z" fill="#582F84"/><path d="M1053.05 1115.53 1061.11 1104.88 1069.95 1094.25 1079.45 1083.78 1089.59 1073.48 1100.37 1063.34 1111.77 1053.35 1123.78 1043.54 1136.39 1033.88 1149.58 1024.4 1163.35 1015.07 1177.69 1005.92 1192.59 996.935 1208.02 988.12 1224 979.476 1240.49 971.006 1257.49 962.712 1275 954.594 1293 946.655 1311.48 938.897 1330.42 931.321 1349.82 923.93 1369.68 916.726 1389.96 909.711 1410.68 902.886 1431.8 896.255 1453.33 889.819 1475.26 883.58 1497.58 877.535 1543.28 866.07 1590.39 855.424 1638.82 845.621 1688.47 836.68 1739.25 828.619 1791.09 821.456 1843.88 815.209 1897.55 809.899 1952.01 805.542 2007.17 802.158 2062.93 799.766 2119.22 798.385 2175.94 798.033 2233.02 798.729 2290.35 800.493 2347.85 803.342 2405.44 807.297 2463.02 812.376 2504.51 816.755 2545.31 821.674 2585.38 827.122 2624.7 833.088 2663.25 839.56 2700.99 846.527 2737.9 853.978 2773.95 861.9 2809.12 870.284 2843.37 879.117 2876.68 888.388 2909.02 898.087 2940.36 908.202 2970.68 918.722 2999.94 929.637 3028.13 940.935 3055.22 952.607 3081.17 964.641 3105.96 977.029 3129.56 989.76 3151.95 1002.82 3173.1 1016.21 3192.98 1029.92 3211.56 1043.93 3228.82 1058.25 3244.73 1072.86 3259.25 1087.75 3272.36 1102.93 3283.98 1118.33 3289.41 1126.39 3293.99 1134.91 3281.88 1141.42 3277.46 1133.2 3277.82 1133.79 3272.68 1126.17 3272.89 1126.47 3261.52 1111.39 3261.8 1111.75 3248.98 1096.9 3249.26 1097.2 3235.01 1082.59 3235.29 1082.85 3219.65 1068.49 3219.91 1068.72 3202.91 1054.62 3203.16 1054.82 3184.82 1040.99 3185.06 1041.16 3165.41 1027.61 3165.63 1027.76 3144.7 1014.51 3144.92 1014.64 3122.73 1001.69 3122.93 1001.81 3099.53 989.182 3099.72 989.281 3075.11 976.986 3075.29 977.073 3049.52 965.12 3049.69 965.197 3022.77 953.597 3022.94 953.665 2994.91 942.431 2995.06 942.491 2965.95 931.633 2966.09 931.686 2935.92 921.217 2936.06 921.264 2904.86 911.194 2905 911.237 2872.79 901.578 2872.92 901.616 2839.74 892.381 2839.87 892.415 2805.74 883.614 2805.87 883.644 2770.82 875.29 2770.94 875.317 2735.01 867.42 2735.12 867.444 2698.33 860.017 2698.44 860.038 2660.81 853.092 2660.92 853.111 2622.48 846.657 2622.59 846.674 2583.37 840.724 2583.47 840.74 2543.51 835.306 2543.61 835.319 2502.92 830.412 2503.02 830.424 2461.63 826.056 2461.75 826.067 2404.3 821 2404.43 821.01 2346.98 817.065 2347.11 817.072 2289.73 814.229 2289.86 814.234 2232.66 812.475 2232.79 812.477 2175.84 811.783 2175.97 811.783 2119.37 812.134 2119.49 812.132 2063.33 813.511 2063.46 813.506 2007.82 815.893 2007.94 815.886 1952.92 819.262 1953.04 819.253 1898.72 823.6 1898.84 823.588 1845.3 828.886 1845.43 828.872 1792.77 835.102 1792.9 835.085 1741.2 842.23 1741.34 842.209 1690.69 850.249 1690.83 850.225 1641.33 859.14 1641.47 859.112 1593.2 868.885 1593.35 868.853 1546.39 879.464 1546.55 879.426 1500.99 890.856 1501.12 890.824 1478.89 896.84 1478.98 896.817 1457.14 903.031 1457.23 903.006 1435.79 909.415 1435.88 909.388 1414.84 915.991 1414.93 915.961 1394.31 922.754 1394.41 922.722 1374.22 929.704 1374.32 929.669 1354.57 936.837 1354.67 936.799 1335.37 944.15 1335.47 944.109 1316.64 951.642 1316.74 951.597 1298.38 959.309 1298.49 959.26 1280.61 967.148 1280.73 967.095 1263.34 975.157 1263.46 975.099 1246.58 983.334 1246.71 983.27 1230.34 991.674 1230.47 991.604 1214.64 1000.17 1214.77 1000.1 1199.48 1008.83 1199.62 1008.75 1184.87 1017.65 1185.02 1017.56 1170.83 1026.61 1170.98 1026.51 1157.37 1035.73 1157.53 1035.62 1144.5 1044.99 1144.66 1044.86 1132.22 1054.39 1132.4 1054.25 1120.56 1063.93 1120.74 1063.78 1109.52 1073.6 1109.7 1073.43 1099.11 1083.4 1099.3 1083.22 1089.35 1093.33 1089.54 1093.13 1080.24 1103.38 1080.43 1103.16 1071.79 1113.55 1071.98 1113.3 1064.01 1123.83ZM3303.19 1122.67 3303.54 1168.79 3266.44 1141.4Z" fill="#582F84"/><path d="M1841.17 654.149C1838.25 654.149 1835.53 655.189 1833 657.27 1830.48 659.35 1828.26 662.322 1826.36 666.186 1824.45 670.049 1822.97 674.291 1821.92 678.911 1820.87 683.532 1820.34 687.611 1820.34 691.151 1820.34 699.499 1823.38 703.674 1829.46 703.674 1833.21 703.674 1836.66 701.924 1839.79 698.425 1842.93 694.927 1845.45 690.083 1847.37 683.896 1849.29 677.709 1850.25 671.927 1850.25 666.551 1850.25 662.525 1849.5 659.452 1848.02 657.331 1846.53 655.21 1844.25 654.149 1841.17 654.149ZM1841.62 650.583C1846.83 650.583 1850.85 652.096 1853.67 655.122 1856.5 658.148 1857.91 662.525 1857.91 668.253 1857.91 672.035 1857.31 676.264 1856.12 680.938 1854.94 685.612 1853.3 689.739 1851.22 693.319 1849.14 696.899 1846.73 699.783 1843.99 701.971 1841.24 704.16 1838.26 705.673 1835.05 706.511 1835.67 708.483 1836.25 710.111 1836.79 711.394 1837.33 712.677 1837.85 713.718 1838.35 714.515 1838.85 715.312 1839.35 715.906 1839.83 716.298 1840.32 716.69 1840.8 716.953 1841.29 717.088 1841.78 717.223 1842.34 717.291 1842.99 717.291 1844.02 717.291 1845.06 716.994 1846.11 716.399 1847.17 715.805 1848.34 714.778 1849.64 713.319L1851.75 715.589C1849.59 717.939 1847.57 719.601 1845.71 720.574 1843.84 721.546 1841.93 722.033 1839.95 722.033 1837.71 722.033 1835.88 721.533 1834.46 720.533 1833.04 719.533 1831.81 717.939 1830.77 715.751 1829.73 713.562 1828.73 710.698 1827.75 707.159 1822.86 706.889 1819.14 705.268 1816.57 702.296 1814 699.324 1812.72 695.136 1812.72 689.732 1812.72 685.68 1813.4 681.1 1814.77 675.993 1816.13 670.887 1818.1 666.382 1820.68 662.478 1823.26 658.573 1826.34 655.615 1829.92 653.602 1833.5 651.589 1837.4 650.583 1841.62 650.583Z" fill="#582F84" fill-rule="evenodd"/><text fill="#000000" fill-opacity="0" font-family="Arial,Arial_MSFontService,sans-serif" font-size="71.4497" x="1812.72" y="713.101">𝑄</text><path d="M1876.5 681.5 1878.2 681.5 1876.32 689.059 1883.73 685.866 1884.79 688.239 1875.56 692.106 1873.16 701.803 1873.51 701.92C1875.35 699.479 1877.09 697.701 1878.75 696.588 1880.41 695.475 1882.1 694.918 1883.82 694.918 1885.66 694.918 1887.07 695.436 1888.06 696.471 1889.04 697.506 1889.53 698.961 1889.53 700.836 1889.53 702.067 1889.25 703.815 1888.68 706.08L1886.78 713.756C1886.25 715.885 1885.99 717.389 1885.99 718.268 1885.99 719.049 1886.12 719.616 1886.37 719.967 1886.62 720.319 1887.02 720.494 1887.57 720.494 1888.16 720.494 1888.78 720.255 1889.45 719.777 1890.11 719.298 1891.05 718.385 1892.26 717.037L1893.93 718.678C1892.35 720.319 1891.14 721.461 1890.3 722.106 1889.46 722.75 1888.65 723.204 1887.88 723.468 1887.11 723.732 1886.23 723.864 1885.26 723.864 1883.99 723.864 1882.97 723.409 1882.21 722.501 1881.45 721.593 1881.07 720.436 1881.07 719.03 1881.07 717.76 1881.39 715.895 1882.03 713.434L1883.32 708.366C1883.79 706.53 1884.1 705.172 1884.25 704.293 1884.39 703.414 1884.47 702.701 1884.47 702.155 1884.47 700.787 1884.24 699.811 1883.78 699.225 1883.32 698.639 1882.57 698.346 1881.54 698.346 1880.72 698.346 1879.81 698.678 1878.83 699.342 1877.84 700.006 1876.81 701.017 1875.74 702.374 1874.66 703.732 1873.81 705.031 1873.17 706.271 1872.54 707.511 1872.03 708.991 1871.66 710.709L1869 723.395 1863.93 723.395 1870.49 694.215 1866.48 695.944 1865.42 693.571 1871.17 691.227 1871.63 689.147C1871.99 687.448 1872.16 686.256 1872.16 685.573 1872.16 684.752 1871.91 684.176 1871.41 683.844 1870.92 683.512 1870.02 683.326 1868.73 683.287L1869.09 681.764Z" fill="#582F84" fill-rule="evenodd"/><text fill="#000000" fill-opacity="0" font-family="Arial,Arial_MSFontService,sans-serif" font-size="42.3633" x="1863.93" y="718.568">ℏ</text></g></svg>