<svg width="3844" height="1888" xmlns="http://www.w3.org/2000/svg" xmlns:xlink="http://www.w3.org/1999/xlink" xml:space="preserve" overflow="hidden"><g transform="translate(-305 -345)"><path d="M861 1231.5C861 894.882 1058.67 622 1302.5 622 1546.33 622 1744 894.882 1744 1231.5 1744 1568.12 1546.33 1841 1302.5 1841 1058.67 1841 861 1568.12 861 1231.5Z" stroke="#582F84" stroke-width="13.75" stroke-miterlimit="8" fill="#D0BBE7" fill-rule="evenodd"/><path d="M1283.24 1211.72 1268.81 1237.25 1284.66 1237.25 1283.97 1224.2C1283.89 1222.42 1283.82 1220.19 1283.77 1217.52 1283.71 1214.84 1283.68 1212.91 1283.68 1211.72ZM1283.48 1203.17 1289.6 1203.17 1292.52 1248.36C1292.66 1250.49 1292.9 1252.16 1293.25 1253.36 1293.6 1254.56 1294.08 1255.46 1294.69 1256.04 1295.3 1256.62 1296.18 1256.99 1297.34 1257.15L1296.9 1259.14 1280.04 1259.14 1280.48 1257.15C1282.08 1257.02 1283.27 1256.39 1284.05 1255.29 1284.83 1254.18 1285.22 1252.23 1285.22 1249.45 1285.22 1248.4 1285.18 1247.25 1285.1 1246.01L1284.82 1240.78 1266.99 1240.78 1264.76 1244.75C1263.7 1246.61 1262.93 1248.21 1262.45 1249.55 1261.96 1250.89 1261.72 1252.07 1261.72 1253.1 1261.72 1255.37 1263.08 1256.72 1265.81 1257.15L1265.37 1259.14 1248.79 1259.14 1249.24 1257.15C1250.07 1257.04 1250.86 1256.71 1251.61 1256.16 1252.35 1255.6 1253.14 1254.77 1253.98 1253.65 1254.82 1252.52 1255.99 1250.67 1257.5 1248.07Z" fill="#582F84" fill-rule="evenodd"/><text fill="#000000" fill-opacity="0" font-family="Arial,Arial_MSFontService,sans-serif" font-size="55.9683" x="1248.79" y="1252.14">𝐴</text><path d="M1318.83 1240.88C1317.46 1240.88 1316.32 1241.24 1315.4 1241.95 1314.48 1242.67 1313.75 1243.71 1313.22 1245.09 1312.68 1246.46 1312.3 1248.14 1312.07 1250.13 1311.85 1252.11 1311.74 1254.36 1311.74 1256.88 1311.74 1259.79 1311.88 1262.3 1312.16 1264.42 1312.44 1266.54 1312.88 1268.29 1313.48 1269.65 1314.08 1271.02 1314.82 1272.03 1315.72 1272.67 1316.62 1273.31 1317.69 1273.64 1318.94 1273.64 1320.12 1273.64 1321.14 1273.33 1322.02 1272.73 1322.9 1272.12 1323.63 1271.18 1324.2 1269.9 1324.78 1268.62 1325.21 1267 1325.51 1265.04 1325.8 1263.08 1325.95 1260.76 1325.95 1258.08 1325.95 1255.07 1325.78 1252.48 1325.46 1250.32 1325.14 1248.15 1324.69 1246.37 1324.1 1244.97 1323.51 1243.57 1322.78 1242.54 1321.89 1241.88 1321 1241.22 1319.98 1240.88 1318.83 1240.88ZM1318.94 1238.04C1321.27 1238.04 1323.25 1238.48 1324.91 1239.35 1326.56 1240.21 1327.9 1241.45 1328.95 1243.07 1329.99 1244.68 1330.76 1246.64 1331.25 1248.97 1331.74 1251.29 1331.98 1253.92 1331.98 1256.85 1331.98 1263.35 1330.83 1268.27 1328.52 1271.6 1326.22 1274.93 1322.88 1276.6 1318.5 1276.6 1314.17 1276.6 1310.95 1275.02 1308.84 1271.88 1306.73 1268.73 1305.67 1263.97 1305.67 1257.58 1305.67 1254.24 1306 1251.35 1306.65 1248.91 1307.31 1246.47 1308.23 1244.44 1309.41 1242.83 1310.59 1241.22 1311.99 1240.02 1313.61 1239.23 1315.23 1238.44 1317.01 1238.04 1318.94 1238.04Z" fill="#582F84" fill-rule="evenodd"/><text fill="#000000" fill-opacity="0" font-family="Arial,Arial_MSFontService,sans-serif" font-size="38.5547" x="1305.67" y="1271.78">0</text><path d="M2014 1243.5C2014 906.882 2211.67 634 2455.5 634 2699.33 634 2897 906.882 2897 1243.5 2897 1580.12 2699.33 1853 2455.5 1853 2211.67 1853 2014 1580.12 2014 1243.5Z" stroke="#582F84" stroke-width="13.75" stroke-miterlimit="8" fill="#D0BBE7" fill-rule="evenodd"/><path d="M2228 1231.5C2228 894.882 2425.67 622 2669.5 622 2913.33 622 3111 894.882 3111 1231.5 3111 1568.12 2913.33 1841 2669.5 1841 2425.67 1841 2228 1568.12 2228 1231.5Z" stroke="#582F84" stroke-width="13.75" stroke-miterlimit="8" fill="#D0BBE7" fill-rule="evenodd"/><path d="M2442 1231.5C2442 894.882 2639.89 622 2884 622 3128.11 622 3326 894.882 3326 1231.5 3326 1568.12 3128.11 1841 2884 1841 2639.89 1841 2442 1568.12 2442 1231.5Z" stroke="#582F84" stroke-width="13.75" stroke-miterlimit="8" fill="#D0BBE7" fill-rule="evenodd"/><path d="M2656 1231.5C2656 894.882 2853.67 622 3097.5 622 3341.33 622 3539 894.882 3539 1231.5 3539 1568.12 3341.33 1841 3097.5 1841 2853.67 1841 2656 1568.12 2656 1231.5Z" stroke="#582F84" stroke-width="13.75" stroke-miterlimit="8" fill="#D0BBE7" fill-rule="evenodd"/><path d="M3077.2 1211.72 3062.78 1237.25 3078.62 1237.25 3077.93 1224.2C3077.85 1222.42 3077.78 1220.19 3077.73 1217.52 3077.68 1214.84 3077.65 1212.91 3077.65 1211.72ZM3077.45 1203.17 3083.57 1203.17 3086.48 1248.36C3086.62 1250.49 3086.86 1252.16 3087.21 1253.36 3087.57 1254.56 3088.05 1255.46 3088.65 1256.04 3089.26 1256.62 3090.15 1256.99 3091.31 1257.15L3090.86 1259.14 3074 1259.14 3074.45 1257.15C3076.04 1257.02 3077.23 1256.39 3078.01 1255.29 3078.8 1254.18 3079.19 1252.23 3079.19 1249.45 3079.19 1248.4 3079.15 1247.25 3079.07 1246.01L3078.78 1240.78 3060.95 1240.78 3058.72 1244.75C3057.67 1246.61 3056.9 1248.21 3056.41 1249.55 3055.93 1250.89 3055.68 1252.07 3055.68 1253.1 3055.68 1255.37 3057.05 1256.72 3059.78 1257.15L3059.33 1259.14 3042.76 1259.14 3043.2 1257.15C3044.04 1257.04 3044.83 1256.71 3045.57 1256.16 3046.32 1255.6 3047.11 1254.77 3047.94 1253.65 3048.78 1252.52 3049.96 1250.67 3051.47 1248.07Z" fill="#582F84" fill-rule="evenodd"/><text fill="#000000" fill-opacity="0" font-family="Arial,Arial_MSFontService,sans-serif" font-size="55.9683" x="3042.76" y="1252.14">𝐴</text><path d="M3111.71 1234.09 3113.41 1234.09 3111.53 1241.64 3118.94 1238.45 3120 1240.82 3110.77 1244.69 3108.37 1254.39 3108.72 1254.51C3110.55 1252.06 3112.3 1250.29 3113.96 1249.17 3115.62 1248.06 3117.31 1247.5 3119.03 1247.5 3120.87 1247.5 3122.28 1248.02 3123.26 1249.06 3124.25 1250.09 3124.74 1251.55 3124.74 1253.42 3124.74 1254.65 3124.46 1256.4 3123.89 1258.67L3121.99 1266.34C3121.46 1268.47 3121.2 1269.97 3121.2 1270.85 3121.2 1271.63 3121.33 1272.2 3121.58 1272.55 3121.83 1272.9 3122.23 1273.08 3122.78 1273.08 3123.37 1273.08 3123.99 1272.84 3124.66 1272.36 3125.32 1271.88 3126.26 1270.97 3127.47 1269.62L3129.14 1271.26C3127.56 1272.9 3126.35 1274.05 3125.51 1274.69 3124.67 1275.34 3123.86 1275.79 3123.09 1276.05 3122.32 1276.32 3121.44 1276.45 3120.47 1276.45 3119.2 1276.45 3118.18 1276 3117.42 1275.09 3116.66 1274.18 3116.28 1273.02 3116.28 1271.62 3116.28 1270.35 3116.6 1268.48 3117.24 1266.02L3118.53 1260.95C3119 1259.12 3119.31 1257.76 3119.46 1256.88 3119.6 1256 3119.68 1255.29 3119.68 1254.74 3119.68 1253.37 3119.45 1252.4 3118.99 1251.81 3118.53 1251.22 3117.78 1250.93 3116.75 1250.93 3115.93 1250.93 3115.02 1251.26 3114.04 1251.93 3113.05 1252.59 3112.02 1253.6 3110.95 1254.96 3109.87 1256.32 3109.02 1257.62 3108.38 1258.86 3107.75 1260.1 3107.24 1261.58 3106.87 1263.29L3104.21 1275.98 3099.14 1275.98 3105.7 1246.8 3101.69 1248.53 3100.63 1246.16 3106.38 1243.81 3106.84 1241.73C3107.2 1240.03 3107.37 1238.84 3107.37 1238.16 3107.37 1237.34 3107.12 1236.76 3106.62 1236.43 3106.13 1236.1 3105.23 1235.91 3103.94 1235.87L3104.29 1234.35Z" fill="#582F84" fill-rule="evenodd"/><text fill="#000000" fill-opacity="0" font-family="Arial,Arial_MSFontService,sans-serif" font-size="42.3633" x="3099.14" y="1271.15">ℏ</text><path d="M1385.2 1194.63 1399.69 1181.24 1415.1 1168.4 1431.25 1156.26 1448.1 1144.8 1465.6 1134.04 1483.71 1123.97 1502.39 1114.61 1521.61 1105.95 1541.32 1097.99 1561.47 1090.75 1582.04 1084.22 1602.98 1078.4 1624.25 1073.31 1645.81 1068.95 1667.62 1065.31 1689.64 1062.41 1711.82 1060.25 1734.14 1058.83 1756.55 1058.16 1779.01 1058.24 1801.47 1059.08 1823.91 1060.67 1846.28 1063.04 1868.53 1066.18 1890.63 1070.09 1912.55 1074.79 1934.23 1080.27 1955.64 1086.55 1976.74 1093.62 1997.48 1101.5 2017.84 1110.18 2037.75 1119.68 2054.51 1128.52 2070.67 1137.87 2086.21 1147.71 2101.12 1158.02 2115.42 1168.85 2128.22 1179.96 2119.21 1190.35 2106.58 1179.39 2106.94 1179.68 2092.93 1169.08 2093.17 1169.25 2078.5 1159.09 2078.74 1159.25 2063.43 1149.56 2063.67 1149.7 2047.74 1140.49 2047.98 1140.62 2031.45 1131.9 2031.7 1132.03 2012.05 1122.65 2012.31 1122.77 1992.22 1114.2 1992.47 1114.3 1971.98 1106.52 1972.24 1106.61 1951.39 1099.62 1951.65 1099.7 1930.49 1093.5 1930.73 1093.57 1909.3 1088.15 1909.54 1088.21 1887.87 1083.56 1888.12 1083.61 1866.25 1079.74 1866.49 1079.78 1844.47 1076.67 1844.71 1076.7 1822.58 1074.36 1822.81 1074.38 1800.61 1072.8 1800.84 1072.81 1778.61 1071.98 1778.84 1071.99 1756.62 1071.91 1756.85 1071.9 1734.67 1072.57 1734.9 1072.56 1712.81 1073.96 1713.04 1073.95 1691.09 1076.09 1691.32 1076.06 1669.53 1078.93 1669.76 1078.89 1648.19 1082.49 1648.42 1082.45 1627.1 1086.77 1627.33 1086.71 1606.3 1091.75 1606.54 1091.69 1585.84 1097.43 1586.08 1097.36 1565.76 1103.81 1566 1103.73 1546.09 1110.89 1546.34 1110.79 1526.88 1118.65 1527.13 1118.54 1508.17 1127.09 1508.43 1126.97 1490 1136.2 1490.26 1136.06 1472.41 1145.99 1472.67 1145.83 1455.43 1156.43 1455.7 1156.26 1439.12 1167.54 1439.39 1167.35 1423.51 1179.29 1423.77 1179.08 1408.63 1191.69 1408.89 1191.46 1394.53 1204.73ZM2132.7 1165.36 2148.91 1208.54 2104.65 1195.6Z" fill="#582F84"/><path d="M1365.66 1176.74 1380.05 1162.24 1395.62 1148.23 1412.19 1134.85 1429.7 1122.1 1448.11 1109.99 1467.37 1098.53 1487.44 1087.72 1508.26 1077.56 1529.79 1068.07 1551.98 1059.24 1574.79 1051.09 1598.18 1043.63 1622.09 1036.85 1646.48 1030.77 1671.3 1025.39 1696.51 1020.73 1722.06 1016.78 1747.91 1013.56 1774.01 1011.07 1800.31 1009.32 1826.76 1008.32 1853.33 1008.08 1879.97 1008.6 1906.62 1009.9 1933.25 1011.97 1959.8 1014.84 1986.24 1018.5 2012.5 1022.97 2038.56 1028.25 2064.36 1034.36 2089.85 1041.3 2114.99 1049.07 2133.83 1055.56 2152.18 1062.46 2170.02 1069.77 2187.33 1077.47 2204.11 1085.57 2220.33 1094.04 2235.98 1102.89 2251.04 1112.09 2265.49 1121.64 2279.32 1131.53 2292.51 1141.76 2305.04 1152.3 2316.97 1163.23 2324.78 1171.53 2314.76 1180.95 2307.13 1172.83 2307.5 1173.19 2295.86 1162.54 2296.08 1162.73 2283.76 1152.37 2283.98 1152.54 2271 1142.48 2271.21 1142.64 2257.6 1132.9 2257.81 1133.04 2243.56 1123.63 2243.77 1123.76 2228.91 1114.68 2229.11 1114.8 2213.67 1106.07 2213.86 1106.18 2197.84 1097.81 2198.04 1097.91 2181.45 1089.9 2181.64 1089.99 2164.52 1082.37 2164.71 1082.45 2147.06 1075.22 2147.24 1075.29 2129.08 1068.46 2129.27 1068.53 2110.61 1062.11 2110.82 1062.18 2085.9 1054.47 2086.13 1054.53 2060.86 1047.66 2061.08 1047.71 2035.5 1041.66 2035.72 1041.71 2009.88 1036.47 2010.09 1036.51 1984.03 1032.07 1984.24 1032.11 1958.02 1028.47 1958.22 1028.5 1931.87 1025.65 1932.08 1025.67 1905.65 1023.61 1905.85 1023.62 1879.4 1022.34 1879.6 1022.35 1853.16 1021.83 1853.36 1021.83 1826.99 1022.07 1827.18 1022.06 1800.92 1023.06 1801.12 1023.05 1775.02 1024.78 1775.21 1024.76 1749.31 1027.23 1749.51 1027.21 1723.86 1030.41 1724.06 1030.38 1698.71 1034.3 1698.91 1034.27 1673.9 1038.89 1674.11 1038.85 1649.49 1044.19 1649.7 1044.14 1625.52 1050.17 1625.73 1050.11 1602.04 1056.83 1602.25 1056.76 1579.09 1064.16 1579.31 1064.08 1556.72 1072.15 1556.95 1072.06 1534.98 1080.8 1535.22 1080.7 1513.92 1090.09 1514.16 1089.98 1493.59 1100.01 1493.84 1099.89 1474.02 1110.56 1474.28 1110.42 1455.28 1121.73 1455.54 1121.56 1437.39 1133.5 1437.66 1133.31 1420.42 1145.86 1420.69 1145.65 1404.4 1158.81 1404.68 1158.58 1389.39 1172.34 1389.67 1172.07 1375.42 1186.42ZM2330.46 1157.31 2342.81 1201.74 2299.85 1184.97Z" fill="#582F84"/><path d="M1345 1159.64 1358.7 1144.24 1373.93 1129.22 1390.48 1114.77 1408.28 1100.9 1427.29 1087.61 1447.44 1074.91 1468.69 1062.81 1490.98 1051.31 1514.25 1040.42 1538.47 1030.15 1563.56 1020.51 1589.49 1011.51 1616.2 1003.16 1643.63 995.469 1671.74 988.445 1700.47 982.101 1729.76 976.445 1759.57 971.49 1789.85 967.244 1820.53 963.72 1851.57 960.928 1882.92 958.879 1914.51 957.583 1946.31 957.052 1978.25 957.297 2010.29 958.329 2042.36 960.16 2074.43 962.799 2106.42 966.26 2138.3 970.552 2170.01 975.689 2201.5 981.681 2235.08 989.113 2267.6 997.425 2299.02 1006.59 2329.26 1016.57 2358.28 1027.34 2386.03 1038.87 2412.44 1051.14 2437.43 1064.09 2449.44 1070.85 2461.04 1077.76 2472.28 1084.83 2483.13 1092.07 2493.59 1099.46 2503.66 1107 2513.33 1114.7 2522.58 1122.54 2531.42 1130.53 2539.84 1138.66 2547.82 1146.93 2555.49 1155.47 2560.33 1161.99 2549.29 1170.19 2544.64 1163.93 2545.04 1164.42 2537.67 1156.2 2537.84 1156.39 2530.03 1148.29 2530.2 1148.46 2521.95 1140.5 2522.12 1140.65 2513.44 1132.82 2513.61 1132.96 2504.52 1125.26 2504.68 1125.39 2495.17 1117.82 2495.33 1117.95 2485.42 1110.52 2485.58 1110.63 2475.27 1103.35 2475.42 1103.46 2464.72 1096.33 2464.87 1096.42 2453.79 1089.44 2453.94 1089.53 2442.47 1082.71 2442.62 1082.79 2430.78 1076.13 2430.99 1076.24 2406.24 1063.41 2406.51 1063.54 2380.36 1051.4 2380.62 1051.51 2353.13 1040.08 2353.37 1040.18 2324.6 1029.5 2324.83 1029.58 2294.82 1019.68 2295.05 1019.75 2263.87 1010.66 2264.09 1010.72 2231.78 1002.46 2232 1002.51 2198.63 995.128 2198.83 995.169 2167.53 989.214 2167.72 989.247 2136.19 984.14 2136.38 984.167 2104.68 979.899 2104.86 979.92 2073.03 976.479 2073.21 976.496 2041.32 973.87 2041.49 973.882 2009.59 972.062 2009.76 972.07 1977.89 971.043 1978.06 971.046 1946.29 970.803 1946.46 970.802 1914.83 971.33 1914.99 971.325 1883.56 972.614 1883.73 972.605 1852.55 974.643 1852.72 974.63 1821.85 977.407 1822.01 977.39 1791.5 980.895 1791.67 980.873 1761.57 985.094 1761.74 985.068 1732.1 989.995 1732.28 989.963 1703.16 995.584 1703.34 995.547 1674.8 1001.85 1674.98 1001.81 1647.06 1008.79 1647.25 1008.73 1620.01 1016.37 1620.21 1016.32 1593.7 1024.6 1593.9 1024.54 1568.18 1033.46 1568.39 1033.39 1543.51 1042.94 1543.73 1042.86 1519.74 1053.03 1519.97 1052.93 1496.92 1063.71 1497.16 1063.59 1475.12 1074.96 1475.37 1074.83 1454.38 1086.78 1454.64 1086.63 1434.76 1099.16 1435.03 1098.98 1416.31 1112.07 1416.59 1111.86 1399.08 1125.5 1399.38 1125.26 1383.13 1139.44 1383.44 1139.16 1368.51 1153.87 1368.82 1153.55 1355.27 1168.78ZM2567.4 1148.36 2575.11 1193.83 2534.11 1172.72Z" fill="#582F84"/><path d="M1322 1143.18 1328.19 1135.01 1334.99 1126.84 1342.3 1118.8 1350.1 1110.88 1358.38 1103.09 1367.14 1095.43 1376.36 1087.9 1386.04 1080.49 1396.16 1073.22 1406.73 1066.07 1417.73 1059.06 1429.15 1052.18 1440.98 1045.42 1453.22 1038.81 1465.86 1032.32 1478.89 1025.97 1492.3 1019.76 1506.11 1013.67 1534.74 1001.95 1564.79 990.784 1596.17 980.198 1628.82 970.205 1662.67 960.816 1697.65 952.046 1733.7 943.908 1770.74 936.414 1808.73 929.58 1847.57 923.419 1887.22 917.945 1927.61 913.172 1968.66 909.114 2010.31 905.786 2052.49 903.201 2095.14 901.375 2138.19 900.321 2181.57 900.054 2225.22 900.588 2269.07 901.939 2313.05 904.119 2357.09 907.144 2401.12 911.028 2432.86 914.377 2464.05 918.138 2494.69 922.304 2524.77 926.865 2554.24 931.813 2583.11 937.14 2611.34 942.837 2638.91 948.894 2665.81 955.305 2692.01 962.059 2717.49 969.149 2742.24 976.566 2766.22 984.303 2789.42 992.35 2811.82 1000.7 2833.4 1009.34 2854.13 1018.27 2874 1027.49 2892.99 1036.97 2911.07 1046.72 2928.23 1056.72 2944.44 1066.98 2959.69 1077.49 2973.94 1088.23 2987.19 1099.22 2999.41 1110.43 3010.57 1121.87 3020.77 1133.67 3032.44 1150.83 3021.07 1158.56 3009.62 1141.73 3010.11 1142.36 3000.31 1131.02 3000.59 1131.33 2989.7 1120.17 2989.97 1120.43 2978.02 1109.46 2978.29 1109.69 2965.29 1098.92 2965.54 1099.12 2951.53 1088.56 2951.76 1088.73 2936.75 1078.38 2936.98 1078.53 2920.98 1068.41 2921.19 1068.54 2904.24 1058.65 2904.45 1058.77 2886.56 1049.12 2886.75 1049.22 2867.95 1039.83 2868.13 1039.92 2848.43 1030.79 2848.6 1030.87 2828.04 1022.01 2828.2 1022.07 2806.78 1013.49 2806.94 1013.55 2784.69 1005.26 2784.84 1005.31 2761.78 997.318 2761.93 997.366 2738.08 989.674 2738.22 989.717 2713.61 982.34 2713.74 982.378 2688.39 975.323 2688.52 975.357 2662.44 968.635 2662.56 968.665 2635.79 962.284 2635.9 962.311 2608.45 956.279 2608.56 956.303 2580.45 950.63 2580.56 950.651 2551.8 945.345 2551.91 945.364 2522.54 940.434 2522.65 940.451 2492.68 935.906 2492.79 935.921 2462.25 931.77 2462.35 931.783 2431.26 928.034 2431.36 928.046 2399.74 924.708 2399.86 924.72 2355.95 920.847 2356.08 920.857 2312.17 917.841 2312.3 917.849 2268.45 915.675 2268.58 915.68 2224.86 914.334 2224.99 914.337 2181.47 913.804 2181.6 913.804 2138.34 914.07 2138.47 914.069 2095.54 915.119 2095.67 915.115 2053.14 916.936 2053.27 916.93 2011.21 919.506 2011.34 919.497 1969.82 922.815 1969.95 922.804 1929.02 926.849 1929.16 926.835 1888.9 931.592 1889.04 931.575 1849.52 937.031 1849.66 937.01 1810.95 943.149 1811.09 943.126 1773.25 949.934 1773.4 949.906 1736.5 957.37 1736.65 957.337 1700.76 965.441 1700.91 965.403 1666.1 974.133 1666.26 974.089 1632.58 983.43 1632.76 983.379 1600.29 993.318 1600.47 993.258 1569.28 1003.78 1569.48 1003.71 1539.63 1014.8 1539.84 1014.72 1511.4 1026.36 1511.57 1026.29 1497.9 1032.31 1498.02 1032.26 1484.73 1038.42 1484.85 1038.36 1471.95 1044.65 1472.07 1044.59 1459.56 1051 1459.7 1050.94 1447.59 1057.48 1447.73 1057.41 1436.03 1064.08 1436.17 1063.99 1424.9 1070.79 1425.05 1070.7 1414.2 1077.62 1414.36 1077.52 1403.95 1084.56 1404.11 1084.44 1394.14 1091.6 1394.31 1091.48 1384.8 1098.75 1384.97 1098.62 1375.93 1106.01 1376.1 1105.86 1367.53 1113.36 1367.71 1113.19 1359.61 1120.81 1359.8 1120.62 1352.19 1128.35 1352.38 1128.14 1345.27 1135.98 1345.47 1135.75 1338.86 1143.69 1339.05 1143.44 1332.96 1151.49ZM3041.56 1138.78 3043.23 1184.87 3005.36 1158.55Z" fill="#582F84"/><path d="M1923.03 797.666C1920.11 797.666 1917.39 798.707 1914.86 800.787 1912.34 802.867 1910.12 805.839 1908.22 809.703 1906.31 813.567 1904.83 817.808 1903.78 822.429 1902.73 827.049 1902.2 831.128 1902.2 834.668 1902.2 843.016 1905.24 847.191 1911.32 847.191 1915.07 847.191 1918.52 845.441 1921.65 841.943 1924.79 838.444 1927.31 833.601 1929.23 827.413 1931.15 821.226 1932.11 815.444 1932.11 810.068 1932.11 806.042 1931.37 802.969 1929.88 800.848 1928.39 798.727 1926.11 797.666 1923.03 797.666ZM1923.48 794.1C1928.69 794.1 1932.71 795.613 1935.53 798.639 1938.36 801.665 1939.77 806.042 1939.77 811.77 1939.77 815.552 1939.17 819.781 1937.99 824.455 1936.8 829.129 1935.16 833.256 1933.08 836.836 1931 840.416 1928.59 843.3 1925.85 845.489 1923.11 847.677 1920.13 849.19 1916.91 850.028 1917.53 852 1918.11 853.628 1918.65 854.911 1919.19 856.195 1919.71 857.235 1920.21 858.032 1920.71 858.829 1921.21 859.423 1921.69 859.815 1922.18 860.207 1922.67 860.47 1923.15 860.605 1923.64 860.74 1924.21 860.808 1924.85 860.808 1925.88 860.808 1926.92 860.511 1927.98 859.916 1929.03 859.322 1930.2 858.295 1931.5 856.836L1933.61 859.106C1931.45 861.456 1929.43 863.118 1927.57 864.091 1925.71 865.063 1923.79 865.55 1921.82 865.55 1919.57 865.55 1917.74 865.05 1916.32 864.05 1914.91 863.05 1913.68 861.456 1912.64 859.268 1911.6 857.079 1910.59 854.216 1909.62 850.676 1904.73 850.406 1901 848.785 1898.43 845.813 1895.86 842.841 1894.58 838.653 1894.58 833.249 1894.58 829.197 1895.26 824.617 1896.63 819.511 1897.99 814.404 1899.96 809.899 1902.54 805.995 1905.12 802.091 1908.2 799.132 1911.78 797.119 1915.36 795.106 1919.26 794.1 1923.48 794.1Z" fill="#582F84" fill-rule="evenodd"/><text fill="#000000" fill-opacity="0" font-family="Arial,Arial_MSFontService,sans-serif" font-size="71.4497" x="1894.58" y="856.618">𝑄</text><path d="M1958.36 825.017 1960.06 825.017 1958.18 832.576 1965.6 829.383 1966.65 831.756 1957.42 835.623 1955.02 845.32 1955.37 845.437C1957.21 842.996 1958.96 841.219 1960.62 840.105 1962.28 838.992 1963.96 838.435 1965.68 838.435 1967.52 838.435 1968.93 838.953 1969.92 839.988 1970.9 841.023 1971.4 842.478 1971.4 844.353 1971.4 845.584 1971.11 847.332 1970.55 849.598L1968.64 857.273C1968.12 859.402 1967.85 860.906 1967.85 861.785 1967.85 862.566 1967.98 863.133 1968.23 863.484 1968.49 863.836 1968.89 864.012 1969.43 864.012 1970.02 864.012 1970.64 863.772 1971.31 863.294 1971.97 862.815 1972.91 861.902 1974.12 860.555L1975.79 862.195C1974.21 863.836 1973 864.978 1972.16 865.623 1971.32 866.267 1970.51 866.722 1969.74 866.985 1968.97 867.249 1968.1 867.381 1967.12 867.381 1965.85 867.381 1964.83 866.927 1964.07 866.018 1963.31 865.11 1962.93 863.953 1962.93 862.547 1962.93 861.277 1963.25 859.412 1963.9 856.951L1965.19 851.883C1965.65 850.047 1965.96 848.689 1966.11 847.81 1966.25 846.932 1966.33 846.219 1966.33 845.672 1966.33 844.305 1966.1 843.328 1965.64 842.742 1965.18 842.156 1964.43 841.863 1963.4 841.863 1962.58 841.863 1961.67 842.195 1960.69 842.859 1959.7 843.523 1958.67 844.534 1957.6 845.891 1956.52 847.249 1955.67 848.548 1955.03 849.788 1954.4 851.028 1953.9 852.508 1953.53 854.226L1950.86 866.912 1945.79 866.912 1952.35 837.732 1948.34 839.461 1947.29 837.088 1953.03 834.744 1953.5 832.664C1953.85 830.965 1954.02 829.773 1954.02 829.09 1954.02 828.269 1953.77 827.693 1953.28 827.361 1952.78 827.029 1951.88 826.844 1950.6 826.805L1950.95 825.281Z" fill="#582F84" fill-rule="evenodd"/><text fill="#000000" fill-opacity="0" font-family="Arial,Arial_MSFontService,sans-serif" font-size="42.3633" x="1945.79" y="862.085">ℏ</text></g></svg>