<svg width="10450" height="2475" xmlns="http://www.w3.org/2000/svg" xmlns:xlink="http://www.w3.org/1999/xlink" xml:space="preserve" overflow="hidden"><g transform="translate(3025 0)"><path d="M41.0535 20.4778C41.0535 31.7991 31.875 40.9777 20.5528 40.9777 9.23097 40.9777 0.0528458 31.7991 0.0528458 20.4778 0.0528458 9.15511 9.23097-0.0230135 20.5528-0.0230135 31.875-0.0230135 41.0535 9.15511 41.0535 20.4778Z" stroke="#582F84" stroke-width="3.47178" stroke-miterlimit="8" fill="none" fill-rule="evenodd" transform="matrix(1 0 0 -1 2576.5 571.5)"/><path d="M41.0425 20.4778C41.0425 31.7991 31.8643 40.9777 20.543 40.9777 9.22032 40.9777 0.0417652 31.7991 0.0417652 20.4778 0.0417652 9.15511 9.22032-0.0230135 20.543-0.0230135 31.8643-0.0230135 41.0425 9.15511 41.0425 20.4778Z" stroke="#582F84" stroke-width="3.47178" stroke-miterlimit="8" fill="none" fill-rule="evenodd" transform="matrix(1 0 0 -1 1783.5 571.5)"/><path d="M41.0369 20.5428C41.0369 31.8649 31.8596 41.0429 20.5374 41.0429 9.21478 41.0429 0.0366511 31.8649 0.0366511 20.5428 0.0366511 9.22109 9.21478 0.0426172 20.5374 0.0426172 31.8596 0.0426172 41.0369 9.22109 41.0369 20.5428Z" stroke="#582F84" stroke-width="3.47178" stroke-miterlimit="8" fill="none" fill-rule="evenodd" transform="matrix(1 0 0 -1 1386.5 1258.5)"/><path d="M41.0425 20.6086C41.0425 31.9312 31.8643 41.1094 20.543 41.1094 9.22032 41.1094 0.0417652 31.9312 0.0417652 20.6086 0.0417652 9.28723 9.22032 0.108675 20.543 0.108675 31.8643 0.108675 41.0425 9.28723 41.0425 20.6086Z" stroke="#582F84" stroke-width="3.47178" stroke-miterlimit="8" fill="none" fill-rule="evenodd" transform="matrix(1 0 0 -1 1783.5 1945.5)"/><path d="M41.0535 20.6086C41.0535 31.9312 31.875 41.1094 20.5528 41.1094 9.23097 41.1094 0.0528458 31.9312 0.0528458 20.6086 0.0528458 9.28723 9.23097 0.108675 20.5528 0.108675 31.875 0.108675 41.0535 9.28723 41.0535 20.6086Z" stroke="#582F84" stroke-width="3.47178" stroke-miterlimit="8" fill="none" fill-rule="evenodd" transform="matrix(1 0 0 -1 2576.5 1945.5)"/><path d="M41.0583 20.5428C41.0583 31.8649 31.8802 41.0429 20.5577 41.0429 9.23558 41.0429 0.0583856 31.8649 0.0583856 20.5428 0.0583856 9.22109 9.23558 0.0426172 20.5577 0.0426172 31.8802 0.0426172 41.0583 9.22109 41.0583 20.5428Z" stroke="#582F84" stroke-width="3.47178" stroke-miterlimit="8" fill="none" fill-rule="evenodd" transform="matrix(1 0 0 -1 2973.5 1258.5)"/><path d="M42.0509 20.4771C42.0509 31.7994 32.6486 40.9772 21.0504 40.9772 9.45297 40.9772 0.0502051 31.7994 0.0502051 20.4771 0.0502051 9.15483 9.45297-0.0230128 21.0504-0.0230128 32.6486-0.0230128 42.0509 9.15483 42.0509 20.4771Z" stroke="#582F84" stroke-width="3.47178" stroke-miterlimit="8" fill="none" fill-rule="evenodd" transform="matrix(1 0 0 -1 2300.5 571.5)"/><path d="M42.0474 20.4771C42.0474 31.7994 32.6451 40.9772 21.0473 40.9772 9.44904 40.9772 0.0467126 31.7994 0.0467126 20.4771 0.0467126 9.15483 9.44904-0.0230128 21.0473-0.0230128 32.6451-0.0230128 42.0474 9.15483 42.0474 20.4771Z" stroke="#582F84" stroke-width="3.47178" stroke-miterlimit="8" fill="none" fill-rule="evenodd" transform="matrix(1 0 0 -1 2058.5 571.5)"/><path d="M41.0404 20.9993C41.0404 32.598 31.8619 41.9999 20.5406 41.9999 9.21853 41.9999 0.0400602 32.598 0.0400602 20.9993 0.0400602 9.40104 9.21853 0 20.5406 0 31.8619 0 41.0404 9.40104 41.0404 20.9993Z" stroke="#582F84" stroke-width="3.47178" stroke-miterlimit="8" fill="none" fill-rule="evenodd" transform="matrix(1 0 0 -1 1645.5 810.5)"/><path d="M41.0387 21.0198C41.0387 32.6185 31.8615 42.0209 20.5389 42.0209 9.21683 42.0209 0.0383555 32.6185 0.0383555 21.0198 0.0383555 9.42155 9.21683 0.0205187 20.5389 0.0205187 31.8615 0.0205187 41.0387 9.42155 41.0387 21.0198Z" stroke="#582F84" stroke-width="3.47178" stroke-miterlimit="8" fill="none" fill-rule="evenodd" transform="matrix(1 0 0 -1 1524.5 1020.5)"/><path d="M41.0387 21.067C41.0387 32.6657 31.8602 42.0676 20.5389 42.0676 9.21683 42.0676 0.0383555 32.6657 0.0383555 21.067 0.0383555 9.46827 9.21683 0.0672313 20.5389 0.0672313 31.8602 0.0672313 41.0387 9.46827 41.0387 21.067Z" stroke="#582F84" stroke-width="3.47178" stroke-miterlimit="8" fill="none" fill-rule="evenodd" transform="matrix(1 0 0 -1 1524.5 1497.5)"/><path d="M41.0404 21.0888C41.0404 32.6862 31.8619 42.0881 20.5398 42.0881 9.21853 42.0881 0.0400602 32.6862 0.0400602 21.0888 0.0400602 9.49009 9.21853 0.08775 20.5398 0.08775 31.8619 0.08775 41.0404 9.49009 41.0404 21.0888Z" stroke="#582F84" stroke-width="3.47178" stroke-miterlimit="8" fill="none" fill-rule="evenodd" transform="matrix(1 0 0 -1 1645.5 1707.5)"/><path d="M42.0474 20.6088C42.0474 31.9311 32.6451 41.1089 21.0473 41.1089 9.44904 41.1089 0.0467126 31.9311 0.0467126 20.6088 0.0467126 9.28694 9.44904 0.108671 21.0473 0.108671 32.6451 0.108671 42.0474 9.28694 42.0474 20.6088Z" stroke="#582F84" stroke-width="3.47178" stroke-miterlimit="8" fill="none" fill-rule="evenodd" transform="matrix(1 0 0 -1 2058.5 1945.5)"/><path d="M42.0509 20.6088C42.0509 31.9311 32.6486 41.1089 21.0504 41.1089 9.45297 41.1089 0.0502051 31.9311 0.0502051 20.6088 0.0502051 9.28694 9.45297 0.108671 21.0504 0.108671 32.6486 0.108671 42.0509 9.28694 42.0509 20.6088Z" stroke="#582F84" stroke-width="3.47178" stroke-miterlimit="8" fill="none" fill-rule="evenodd" transform="matrix(1 0 0 -1 2300.5 1945.5)"/><path d="M41.0549 21.0875C41.0549 32.6862 31.8768 42.0881 20.5543 42.0881 9.23302 42.0881 0.05455 32.6862 0.05455 21.0875 0.05455 9.49009 9.23302 0.08775 20.5543 0.08775 31.8768 0.08775 41.0549 9.49009 41.0549 21.0875Z" stroke="#582F84" stroke-width="3.47178" stroke-miterlimit="8" fill="none" fill-rule="evenodd" transform="matrix(1 0 0 -1 2714.5 1707.5)"/><path d="M41.0566 21.067C41.0566 32.6657 31.8794 42.0676 20.5568 42.0676 9.23473 42.0676 0.0562547 32.6657 0.0562547 21.067 0.0562547 9.46827 9.23473 0.0672313 20.5568 0.0672313 31.8794 0.0672313 41.0566 9.46827 41.0566 21.067Z" stroke="#582F84" stroke-width="3.47178" stroke-miterlimit="8" fill="none" fill-rule="evenodd" transform="matrix(1 0 0 -1 2835.5 1497.5)"/><path d="M41.0566 21.0211C41.0566 32.6185 31.8785 42.0209 20.556 42.0209 9.23345 42.0209 0.0562547 32.6185 0.0562547 21.0211 0.0562547 9.42243 9.23345 0.0205187 20.556 0.0205187 31.8785 0.0205187 41.0566 9.42243 41.0566 21.0211Z" stroke="#582F84" stroke-width="3.47178" stroke-miterlimit="8" fill="none" fill-rule="evenodd" transform="matrix(1 0 0 -1 2835.5 1020.5)"/><path d="M41.0549 21.0006C41.0549 32.598 31.8768 41.9999 20.5551 41.9999 9.23302 41.9999 0.05455 32.598 0.05455 21.0006 0.05455 9.40191 9.23302 0 20.5551 0 31.8768 0 41.0549 9.40191 41.0549 21.0006Z" stroke="#582F84" stroke-width="3.47178" stroke-miterlimit="8" fill="none" fill-rule="evenodd" transform="matrix(1 0 0 -1 2714.5 810.5)"/><path d="M0.04765-0.0232402 862.048-0.0232402 862.048 68.9765 0.04765 68.9765Z" stroke="#582F84" stroke-width="3.47178" stroke-miterlimit="8" fill="none" fill-rule="evenodd" transform="matrix(1 0 0 -1 1769.5 585.5)"/><path d="M490.039 746.594 430.509 781.01 0.0394449 34.4257 59.5699 0.00987429Z" stroke="#582F84" stroke-width="3.47178" stroke-miterlimit="8" fill="none" fill-rule="evenodd" transform="matrix(1 0 0 -1 1360.5 1285.5)"/><path d="M59.5699 781.076 0.0394449 746.661 430.509 0.0764185 490.039 34.4909Z" stroke="#582F84" stroke-width="3.47178" stroke-miterlimit="8" fill="none" fill-rule="evenodd" transform="matrix(1 0 0 -1 1360.5 1971.5)"/><path d="M0.04765 0.109745 862.048 0.109745 862.048 69.1099 0.04765 69.1099Z" stroke="#582F84" stroke-width="3.47178" stroke-miterlimit="8" fill="none" fill-rule="evenodd" transform="matrix(1 0 0 -1 1769.5 1959.5)"/><path d="M490.056 746.661 430.526 781.077 0.0557373 34.4922 59.5862 0.0764185Z" stroke="#582F84" stroke-width="3.47178" stroke-miterlimit="8" fill="none" fill-rule="evenodd" transform="matrix(1 0 0 -1 2550.5 1971.5)"/><path d="M59.5862 781.01 0.0557373 746.594 430.526 0.00987429 490.056 34.4252Z" stroke="#582F84" stroke-width="3.47178" stroke-miterlimit="8" fill="none" fill-rule="evenodd" transform="matrix(1 0 0 -1 2550.5 1285.5)"/><path d="M0.0476541 547.043 0.0476541 0.0430053 1380.05 0.0430053 1380.05 547.043Z" stroke="#582F84" stroke-width="3.47178" stroke-miterlimit="8" fill="none" fill-rule="evenodd" transform="matrix(1 0 0 -1 1510.5 1511.5)"/><path d="M1162.05 1195.85 689.508 1469.04 0.0476184 273.235 472.588 0.0429578Z" stroke="#582F84" stroke-width="3.47178" stroke-miterlimit="8" fill="none" fill-rule="evenodd" transform="matrix(1 0 0 -1 1619.5 1972.5)"/><path d="M472.588 1469.04 0.0476191 1195.85 689.508 0.043388 1162.05 273.236Z" stroke="#582F84" stroke-width="6.94393" stroke-miterlimit="8" fill="none" fill-rule="evenodd" transform="matrix(1 0 0 -1 1619.5 1972.5)"/><path d="M41.0535 20.6086C41.0535 31.9312 31.875 41.1094 20.5528 41.1094 9.23097 41.1094 0.0528458 31.9312 0.0528458 20.6086 0.0528458 9.28723 9.23097 0.108675 20.5528 0.108675 31.875 0.108675 41.0535 9.28723 41.0535 20.6086Z" stroke="#582F84" stroke-width="3.47178" stroke-miterlimit="8" fill="#582F84" fill-rule="evenodd" transform="matrix(1 0 0 -1 2576.5 1945.5)"/><path d="M41.0549 21.0006C41.0549 32.598 31.8768 41.9999 20.5551 41.9999 9.23302 41.9999 0.05455 32.598 0.05455 21.0006 0.05455 9.40191 9.23302 0 20.5551 0 31.8768 0 41.0549 9.40191 41.0549 21.0006Z" stroke="#582F84" stroke-width="3.47178" stroke-miterlimit="8" fill="#582F84" fill-rule="evenodd" transform="matrix(1 0 0 -1 2714.5 810.5)"/><path d="M41.0425 20.4778C41.0425 31.7991 31.8643 40.9777 20.543 40.9777 9.22032 40.9777 0.0417652 31.7991 0.0417652 20.4778 0.0417652 9.15511 9.22032-0.0230135 20.543-0.0230135 31.8643-0.0230135 41.0425 9.15511 41.0425 20.4778Z" stroke="#582F84" stroke-width="3.47178" stroke-miterlimit="8" fill="#582F84" fill-rule="evenodd" transform="matrix(1 0 0 -1 1783.5 571.5)"/><path d="M41.0387 21.067C41.0387 32.6657 31.8602 42.0676 20.5389 42.0676 9.21683 42.0676 0.0383555 32.6657 0.0383555 21.067 0.0383555 9.46827 9.21683 0.0672313 20.5389 0.0672313 31.8602 0.0672313 41.0387 9.46827 41.0387 21.067Z" stroke="#582F84" stroke-width="3.47178" stroke-miterlimit="8" fill="#582F84" fill-rule="evenodd" transform="matrix(1 0 0 -1 1524.5 1497.5)"/></g></svg>