<svg width="3800" height="1723" xmlns="http://www.w3.org/2000/svg" xmlns:xlink="http://www.w3.org/1999/xlink" xml:space="preserve" overflow="hidden"><g transform="translate(-300 -393)"><path d="M35.0455 16.9815C35.0455 26.3699 27.2102 33.9813 17.545 33.9813 7.88006 33.9813 0.0451121 26.3699 0.0451121 16.9815 0.0451121 7.592 7.88006-0.0190843 17.545-0.0190843 27.2102-0.0190843 35.0455 7.592 35.0455 16.9815Z" stroke="#582F84" stroke-width="3.47178" stroke-miterlimit="8" fill="none" fill-rule="evenodd" transform="matrix(1 0 0 -1 2516.5 677.5)"/><path d="M35.0361 16.9815C35.0361 26.3699 27.2011 33.9813 17.5366 33.9813 7.87097 33.9813 0.0356531 26.3699 0.0356531 16.9815 0.0356531 7.592 7.87097-0.0190843 17.5366-0.0190843 27.2011-0.0190843 35.0361 7.592 35.0361 16.9815Z" stroke="#582F84" stroke-width="3.47178" stroke-miterlimit="8" fill="none" fill-rule="evenodd" transform="matrix(1 0 0 -1 1849.5 677.5)"/><path d="M35.031 17.5364C35.031 27.2016 27.1968 35.0364 17.5317 35.0364 7.86616 35.0364 0.0312871 27.2016 0.0312871 17.5364 0.0312871 7.87161 7.86616 0.0363803 17.5317 0.0363803 27.1968 0.0363803 35.031 7.87161 35.031 17.5364Z" stroke="#582F84" stroke-width="3.47178" stroke-miterlimit="8" fill="none" fill-rule="evenodd" transform="matrix(1 0 0 -1 1516.5 1255.5)"/><path d="M35.0361 17.09C35.0361 26.4794 27.2011 34.0905 17.5366 34.0905 7.87097 34.0905 0.0356531 26.4794 0.0356531 17.09 0.0356531 7.70156 7.87097 0.0901201 17.5366 0.0901201 27.2011 0.0901201 35.0361 7.70156 35.0361 17.09Z" stroke="#582F84" stroke-width="3.47178" stroke-miterlimit="8" fill="none" fill-rule="evenodd" transform="matrix(1 0 0 -1 1849.5 1832.5)"/><path d="M35.0455 17.09C35.0455 26.4794 27.2102 34.0905 17.545 34.0905 7.88006 34.0905 0.0451121 26.4794 0.0451121 17.09 0.0451121 7.70156 7.88006 0.0901201 17.545 0.0901201 27.2102 0.0901201 35.0455 7.70156 35.0455 17.09Z" stroke="#582F84" stroke-width="3.47178" stroke-miterlimit="8" fill="none" fill-rule="evenodd" transform="matrix(1 0 0 -1 2516.5 1832.5)"/><path d="M35.0499 17.5364C35.0499 27.2016 27.215 35.0364 17.5493 35.0364 7.88406 35.0364 0.0498416 27.2016 0.0498416 17.5364 0.0498416 7.87161 7.88406 0.0363803 17.5493 0.0363803 27.215 0.0363803 35.0499 7.87161 35.0499 17.5364Z" stroke="#582F84" stroke-width="3.47178" stroke-miterlimit="8" fill="none" fill-rule="evenodd" transform="matrix(1 0 0 -1 2849.5 1255.5)"/><path d="M35.0423 16.9809C35.0423 26.3701 27.207 33.9809 17.5419 33.9809 7.87743 33.9809 0.0418374 26.3701 0.0418374 16.9809 0.0418374 7.59177 7.87743-0.0190837 17.5419-0.0190837 27.207-0.0190837 35.0423 7.59177 35.0423 16.9809Z" stroke="#582F84" stroke-width="3.47178" stroke-miterlimit="8" fill="none" fill-rule="evenodd" transform="matrix(1 0 0 -1 2284.5 677.5)"/><path d="M35.0394 16.9809C35.0394 26.3701 27.2041 33.9809 17.5393 33.9809 7.87416 33.9809 0.038927 26.3701 0.038927 16.9809 0.038927 7.59177 7.87416-0.0190837 17.5393-0.0190837 27.2041-0.0190837 35.0394 7.59177 35.0394 16.9809Z" stroke="#582F84" stroke-width="3.47178" stroke-miterlimit="8" fill="none" fill-rule="evenodd" transform="matrix(1 0 0 -1 2081.5 677.5)"/><path d="M35.0346 17.4995C35.0346 27.1651 27.1993 35.0001 17.5348 35.0001 7.86951 35.0001 0.0341979 27.1651 0.0341979 17.4995 0.0341979 7.83422 7.86951 0 17.5348 0 27.1993 0 35.0346 7.83422 35.0346 17.4995Z" stroke="#582F84" stroke-width="3.47178" stroke-miterlimit="8" fill="none" fill-rule="evenodd" transform="matrix(1 0 0 -1 1733.5 878.5)"/><path d="M34.0322 17.0161C34.0322 26.4056 26.4218 34.017 17.0324 34.017 7.64325 34.017 0.0318071 26.4056 0.0318071 17.0161 0.0318071 7.62699 7.64325 0.0166104 17.0324 0.0166104 26.4218 0.0166104 34.0322 7.62699 34.0322 17.0161Z" stroke="#582F84" stroke-width="3.47178" stroke-miterlimit="8" fill="none" fill-rule="evenodd" transform="matrix(1 0 0 -1 1632.5 1054.5)"/><path d="M34.0322 17.0543C34.0322 26.4437 26.4208 34.0548 17.0324 34.0548 7.64325 34.0548 0.0318071 26.4437 0.0318071 17.0543 0.0318071 7.66481 7.64325 0.0544255 17.0324 0.0544255 26.4208 0.0544255 34.0322 7.66481 34.0322 17.0543Z" stroke="#582F84" stroke-width="3.47178" stroke-miterlimit="8" fill="none" fill-rule="evenodd" transform="matrix(1 0 0 -1 1632.5 1455.5)"/><path d="M35.0346 17.5741C35.0346 27.2386 27.1993 35.0736 17.534 35.0736 7.86951 35.0736 0.0341979 27.2386 0.0341979 17.5741 0.0341979 7.90844 7.86951 0.0731252 17.534 0.0731252 27.1993 0.0731252 35.0346 7.90844 35.0346 17.5741Z" stroke="#582F84" stroke-width="3.47178" stroke-miterlimit="8" fill="none" fill-rule="evenodd" transform="matrix(1 0 0 -1 1733.5 1632.5)"/><path d="M35.0394 17.0901C35.0394 26.4793 27.2041 34.0901 17.5393 34.0901 7.87416 34.0901 0.038927 26.4793 0.038927 17.0901 0.038927 7.70132 7.87416 0.0901173 17.5393 0.0901173 27.2041 0.0901173 35.0394 7.70132 35.0394 17.0901Z" stroke="#582F84" stroke-width="3.47178" stroke-miterlimit="8" fill="none" fill-rule="evenodd" transform="matrix(1 0 0 -1 2081.5 1832.5)"/><path d="M35.0423 17.0901C35.0423 26.4793 27.207 34.0901 17.5419 34.0901 7.87743 34.0901 0.0418374 26.4793 0.0418374 17.0901 0.0418374 7.70132 7.87743 0.0901173 17.5419 0.0901173 27.207 0.0901173 35.0423 7.70132 35.0423 17.0901Z" stroke="#582F84" stroke-width="3.47178" stroke-miterlimit="8" fill="none" fill-rule="evenodd" transform="matrix(1 0 0 -1 2284.5 1832.5)"/><path d="M35.047 17.573C35.047 27.2386 27.212 35.0736 17.5464 35.0736 7.88188 35.0736 0.0465673 27.2386 0.0465673 17.573 0.0465673 7.90844 7.88188 0.0731252 17.5464 0.0731252 27.212 0.0731252 35.047 7.90844 35.047 17.573Z" stroke="#582F84" stroke-width="3.47178" stroke-miterlimit="8" fill="none" fill-rule="evenodd" transform="matrix(1 0 0 -1 2632.5 1632.5)"/><path d="M34.047 17.0543C34.047 26.4437 26.4367 34.0548 17.0472 34.0548 7.65809 34.0548 0.0466504 26.4437 0.0466504 17.0543 0.0466504 7.66481 7.65809 0.0544255 17.0472 0.0544255 26.4367 0.0544255 34.047 7.66481 34.047 17.0543Z" stroke="#582F84" stroke-width="3.47178" stroke-miterlimit="8" fill="none" fill-rule="evenodd" transform="matrix(1 0 0 -1 2734.5 1455.5)"/><path d="M34.047 17.0172C34.047 26.4056 26.4359 34.017 17.0465 34.017 7.65703 34.017 0.0466504 26.4056 0.0466504 17.0172 0.0466504 7.6277 7.65703 0.0166104 17.0465 0.0166104 26.4359 0.0166104 34.047 7.6277 34.047 17.0172Z" stroke="#582F84" stroke-width="3.47178" stroke-miterlimit="8" fill="none" fill-rule="evenodd" transform="matrix(1 0 0 -1 2734.5 1054.5)"/><path d="M35.047 17.5006C35.047 27.1651 27.212 35.0001 17.5471 35.0001 7.88188 35.0001 0.0465673 27.1651 0.0465673 17.5006 0.0465673 7.83495 7.88188 0 17.5471 0 27.212 0 35.047 7.83495 35.047 17.5006Z" stroke="#582F84" stroke-width="3.47178" stroke-miterlimit="8" fill="none" fill-rule="evenodd" transform="matrix(1 0 0 -1 2632.5 878.5)"/><path d="M0.0400216-0.0195354 724.041-0.0195354 724.041 57.9806 0.0400216 57.9806Z" stroke="#582F84" stroke-width="3.47178" stroke-miterlimit="8" fill="none" fill-rule="evenodd" transform="matrix(1 0 0 -1 1838.5 689.5)"/><path d="M412.033 628.057 361.979 657.009 0.0331659 28.9599 50.0874 0.00830654Z" stroke="#582F84" stroke-width="3.47178" stroke-miterlimit="8" fill="none" fill-rule="evenodd" transform="matrix(1 0 0 -1 1494.5 1277.5)"/><path d="M50.0874 657.064 0.0331659 628.113 361.979 0.0642854 412.033 29.0148Z" stroke="#582F84" stroke-width="3.47178" stroke-miterlimit="8" fill="none" fill-rule="evenodd" transform="matrix(1 0 0 -1 1494.5 1855.5)"/><path d="M0.0400216 0.0922503 724.041 0.0922503 724.041 58.0927 0.0400216 58.0927Z" stroke="#582F84" stroke-width="3.47178" stroke-miterlimit="8" fill="none" fill-rule="evenodd" transform="matrix(1 0 0 -1 1838.5 1844.5)"/><path d="M412.047 628.113 361.993 657.065 0.0468649 29.0158 50.1011 0.0642854Z" stroke="#582F84" stroke-width="3.47178" stroke-miterlimit="8" fill="none" fill-rule="evenodd" transform="matrix(1 0 0 -1 2494.5 1855.5)"/><path d="M50.1011 657.008 0.0468649 628.057 361.993 0.00830654 412.047 28.9595Z" stroke="#582F84" stroke-width="3.47178" stroke-miterlimit="8" fill="none" fill-rule="evenodd" transform="matrix(1 0 0 -1 2494.5 1277.5)"/><path d="M0.0400571 459.036 0.0400571 0.0360867 1160.04 0.0360867 1160.04 459.036Z" stroke="#582F84" stroke-width="3.47178" stroke-miterlimit="8" fill="none" fill-rule="evenodd" transform="matrix(1 0 0 -1 1620.5 1467.5)"/><path d="M978.04 1005.36 580.326 1235.04 0.0400781 229.711 397.754 0.036115Z" stroke="#582F84" stroke-width="3.47178" stroke-miterlimit="8" fill="none" fill-rule="evenodd" transform="matrix(1 0 0 -1 1711.5 1855.5)"/><path d="M397.755 1235.04 0.0400787 1005.36 580.326 0.0364767 978.04 229.712Z" stroke="#582F84" stroke-width="6.94393" stroke-miterlimit="8" fill="none" fill-rule="evenodd" transform="matrix(1 0 0 -1 1711.5 1855.5)"/><path d="M35.0455 17.09C35.0455 26.4794 27.2102 34.0905 17.545 34.0905 7.88006 34.0905 0.0451121 26.4794 0.0451121 17.09 0.0451121 7.70156 7.88006 0.0901201 17.545 0.0901201 27.2102 0.0901201 35.0455 7.70156 35.0455 17.09Z" stroke="#582F84" stroke-width="3.47178" stroke-miterlimit="8" fill="#582F84" fill-rule="evenodd" transform="matrix(1 0 0 -1 2516.5 1832.5)"/><path d="M35.047 17.5006C35.047 27.1651 27.212 35.0001 17.5471 35.0001 7.88188 35.0001 0.0465673 27.1651 0.0465673 17.5006 0.0465673 7.83495 7.88188 0 17.5471 0 27.212 0 35.047 7.83495 35.047 17.5006Z" stroke="#582F84" stroke-width="3.47178" stroke-miterlimit="8" fill="#582F84" fill-rule="evenodd" transform="matrix(1 0 0 -1 2632.5 878.5)"/><path d="M35.0361 16.9815C35.0361 26.3699 27.2011 33.9813 17.5366 33.9813 7.87097 33.9813 0.0356531 26.3699 0.0356531 16.9815 0.0356531 7.592 7.87097-0.0190843 17.5366-0.0190843 27.2011-0.0190843 35.0361 7.592 35.0361 16.9815Z" stroke="#582F84" stroke-width="3.47178" stroke-miterlimit="8" fill="#582F84" fill-rule="evenodd" transform="matrix(1 0 0 -1 1849.5 677.5)"/><path d="M34.0322 17.0543C34.0322 26.4437 26.4208 34.0548 17.0324 34.0548 7.64325 34.0548 0.0318071 26.4437 0.0318071 17.0543 0.0318071 7.66481 7.64325 0.0544255 17.0324 0.0544255 26.4208 0.0544255 34.0322 7.66481 34.0322 17.0543Z" stroke="#582F84" stroke-width="3.47178" stroke-miterlimit="8" fill="#582F84" fill-rule="evenodd" transform="matrix(1 0 0 -1 1632.5 1455.5)"/></g></svg>