<svg xmlns="http://www.w3.org/2000/svg" viewBox="0 17.239999771118164 44.13999938964844 46.13999938964844" data-asc="1.06884765625" width="44.13999938964844" height="46.13999938964844"><defs/><g fill="#000000"><g transform="translate(0, 0)"><path d="M4.10 63.38Q2.76 63.38 1.75 63.22Q0.73 63.06 0 62.79L0 57.89Q0.78 58.08 1.68 58.23Q2.59 58.37 3.61 58.37Q4.96 58.37 6.05 57.86Q7.15 57.35 7.80 56.01Q8.45 54.66 8.45 52.22L8.45 17.75L14.31 17.75L14.31 52.03Q14.31 56.01 13.04 58.51Q11.77 61.01 9.47 62.19Q7.18 63.38 4.10 63.38ZM44.14 43.73Q44.14 46.90 42.59 49.19Q41.04 51.49 38.15 52.71Q35.25 53.93 31.25 53.93Q29.30 53.93 27.51 53.71Q25.73 53.49 24.16 53.06Q22.58 52.64 21.29 52.03L21.29 46.51Q23.46 47.46 26.15 48.23Q28.83 49.00 31.62 49.00Q33.89 49.00 35.39 48.40Q36.89 47.80 37.62 46.69Q38.35 45.58 38.35 44.09Q38.35 42.50 37.50 41.41Q36.65 40.31 34.92 39.39Q33.20 38.48 30.62 37.43Q28.86 36.72 27.26 35.82Q25.66 34.91 24.41 33.69Q23.17 32.47 22.45 30.80Q21.73 29.13 21.73 26.86Q21.73 23.83 23.18 21.68Q24.63 19.53 27.28 18.38Q29.93 17.24 33.47 17.24Q36.28 17.24 38.76 17.82Q41.24 18.41 43.63 19.48L41.77 24.19Q39.58 23.29 37.51 22.75Q35.45 22.22 33.30 22.22Q31.45 22.22 30.15 22.78Q28.86 23.34 28.19 24.35Q27.51 25.37 27.51 26.76Q27.51 28.32 28.28 29.38Q29.05 30.44 30.68 31.32Q32.30 32.20 34.86 33.28Q37.82 34.50 39.88 35.84Q41.94 37.18 43.04 39.05Q44.14 40.92 44.14 43.73Z"/></g></g></svg>