<svg width="10450" height="2475" xmlns="http://www.w3.org/2000/svg" xmlns:xlink="http://www.w3.org/1999/xlink" xml:space="preserve" overflow="hidden"><g transform="translate(3025 0)"><g><g><g><path d="M1507.85 336.146 1488.65 163.271 1277.35 374.562 1288.88 474.446 981.546 781.779C954.654 768.333 923.921 758.729 891.267 758.729 785.621 758.729 699.183 845.167 699.183 950.812 699.183 1056.46 785.621 1142.9 891.267 1142.9 996.912 1142.9 1083.35 1056.46 1083.35 950.812 1083.35 918.158 1075.67 889.346 1062.22 862.454L1369.55 555.121 1469.44 566.646 1680.73 355.354 1507.85 336.146Z" stroke="#582F84" stroke-width="19.2083" fill="#582F84" transform="matrix(1 0 0 1.00054 1278 315)"/><path d="M1523.22 620.429 1498.25 647.321 1461.75 643.479 1421.42 637.717C1475.2 729.917 1507.85 835.562 1507.85 950.812 1507.85 1288.88 1231.25 1565.48 893.187 1565.48 555.121 1565.48 278.521 1288.88 278.521 950.812 278.521 612.746 555.121 336.146 893.187 336.146 1006.52 336.146 1114.08 366.879 1206.28 422.583L1202.44 384.167 1196.68 345.75 1223.57 318.858 1237.02 305.412C1133.29 251.629 1018.04 220.896 893.187 220.896 489.812 220.896 163.271 547.437 163.271 950.812 163.271 1354.19 489.812 1680.73 893.187 1680.73 1296.56 1680.73 1623.1 1354.19 1623.1 950.812 1623.1 825.958 1592.37 710.708 1536.67 608.904L1523.22 620.429Z" stroke="#582F84" stroke-width="19.2083" fill="#582F84" transform="matrix(1 0 0 1.00054 1278 315)"/><path d="M1213.97 820.196C1231.25 860.533 1238.94 904.712 1238.94 950.812 1238.94 1140.97 1083.35 1296.56 893.187 1296.56 703.025 1296.56 547.437 1140.97 547.437 950.812 547.437 760.65 703.025 605.062 893.187 605.062 939.287 605.062 983.467 614.667 1023.8 630.033L1110.24 543.596C1044.93 509.021 971.942 489.812 893.187 489.812 639.637 489.812 432.187 697.262 432.187 950.812 432.187 1204.36 639.637 1411.81 893.187 1411.81 1146.74 1411.81 1354.19 1204.36 1354.19 950.812 1354.19 872.058 1334.98 799.067 1300.4 733.758L1213.97 820.196Z" stroke="#582F84" stroke-width="19.2083" fill="#582F84" transform="matrix(1 0 0 1.00054 1278 315)"/></g></g></g></g></svg>