<svg width="3694" height="1455" xmlns="http://www.w3.org/2000/svg" xmlns:xlink="http://www.w3.org/1999/xlink" xml:space="preserve" overflow="hidden"><g transform="translate(-353 -510)"><g><g><g><path d="M826.703 184.297 816.172 89.5157 700.328 205.359 706.647 260.122 538.147 428.622C523.403 421.25 506.553 415.985 488.65 415.985 430.728 415.985 383.338 463.375 383.338 521.297 383.338 579.219 430.728 626.61 488.65 626.61 546.572 626.61 593.963 579.219 593.963 521.297 593.963 503.394 589.75 487.597 582.378 472.853L750.878 304.353 805.641 310.672 921.485 194.828 826.703 184.297Z" stroke="#582F84" stroke-width="10.5313" fill="#582F84" transform="matrix(1.00099 0 0 1 1694 732)"/><path d="M835.128 340.159 821.438 354.903 801.428 352.797 779.313 349.638C808.8 400.188 826.703 458.11 826.703 521.297 826.703 706.647 675.053 858.297 489.703 858.297 304.353 858.297 152.703 706.647 152.703 521.297 152.703 335.947 304.353 184.297 489.703 184.297 551.838 184.297 610.813 201.147 661.363 231.688L659.256 210.625 656.097 189.563 670.841 174.819 678.213 167.447C621.344 137.959 558.156 121.109 489.703 121.109 268.547 121.109 89.5157 300.141 89.5157 521.297 89.5157 742.453 268.547 921.485 489.703 921.485 710.86 921.485 889.891 742.453 889.891 521.297 889.891 452.844 873.041 389.656 842.5 333.841L835.128 340.159Z" stroke="#582F84" stroke-width="10.5313" fill="#582F84" transform="matrix(1.00099 0 0 1 1694 732)"/><path d="M665.575 449.685C675.053 471.8 679.266 496.022 679.266 521.297 679.266 625.557 593.963 710.86 489.703 710.86 385.444 710.86 300.141 625.557 300.141 521.297 300.141 417.038 385.444 331.734 489.703 331.734 514.978 331.734 539.2 337 561.316 345.425L608.706 298.034C572.9 279.078 532.881 268.547 489.703 268.547 350.691 268.547 236.953 382.285 236.953 521.297 236.953 660.31 350.691 774.047 489.703 774.047 628.716 774.047 742.453 660.31 742.453 521.297 742.453 478.119 731.922 438.1 712.966 402.294L665.575 449.685Z" stroke="#582F84" stroke-width="10.5313" fill="#582F84" transform="matrix(1.00099 0 0 1 1694 732)"/></g></g></g></g></svg>