<svg width="10450" height="2475" xmlns="http://www.w3.org/2000/svg" xmlns:xlink="http://www.w3.org/1999/xlink" xml:space="preserve" overflow="hidden"><defs><clipPath id="clip0"><rect x="1115" y="276" width="2170" height="1923"/></clipPath><clipPath id="clip1"><rect x="1115" y="276" width="2170" height="1923"/></clipPath></defs><g transform="translate(3025 0)"><g clip-path="url(#clip0)"><g clip-path="url(#clip1)"><g><path d="M152.985 1685.69C147.994 1685.69 143.979 1681.64 143.979 1676.69 143.979 1671.7 148.03 1667.68 152.985 1667.68L175.444 1667.68C147.379 1653.83 120.254 1629.78 93.744 1595.67 87.6318 1587.79 89.0423 1576.43 96.9267 1570.32 104.811 1564.21 116.167 1565.62 122.279 1573.5 156.457 1617.45 190.128 1641.5 224.161 1645.15 257.904 1648.77 293.926 1632.42 333.203 1595.56 463.295 1473.5 570.493 1222.83 671.687 986.193 778.741 735.883 879.175 500.944 998.67 439.497 1021.06 427.996 1053.72 422.318 1085.98 422.499 1118.2 422.644 1150.79 428.647 1172.99 440.365 1291.76 503.114 1391.8 737.04 1498.31 986.193 1599.51 1222.87 1706.7 1473.5 1836.8 1595.56 1876.07 1632.42 1912.1 1648.77 1945.84 1645.15 1979.87 1641.5 2013.54 1617.45 2047.72 1573.5 2053.83 1565.62 2065.19 1564.21 2073.07 1570.32 2080.96 1576.43 2082.37 1587.79 2076.26 1595.67 2049.42 1630.14 2021.97 1654.37 1993.58 1668.15L1995.5 1668.15C2000.49 1668.15 2004.5 1672.2 2004.5 1677.16 2004.5 1682.15 2000.45 1686.16 1995.5 1686.16L1583.01 1686.05 1583.01 1737.88C1583.01 1742.87 1578.96 1746.92 1573.97 1746.92 1568.98 1746.92 1564.93 1742.87 1564.93 1737.88L1564.93 1686.05 1384.75 1686.02 1384.75 1738.03C1384.75 1743.02 1380.7 1747.07 1375.71 1747.07 1370.72 1747.07 1366.67 1743.02 1366.67 1738.03L1366.67 1686.02 1186.48 1685.98 1186.48 1738.13C1186.48 1743.12 1182.43 1747.18 1177.44 1747.18 1172.45 1747.18 1168.4 1743.12 1168.4 1738.13L1168.4 1685.98 988.218 1685.95 988.218 1738.28C988.218 1743.27 984.167 1747.32 979.176 1747.32 974.185 1747.32 970.135 1743.27 970.135 1738.28L970.135 1685.95 789.952 1685.91 789.952 1738.42C789.952 1743.41 785.902 1747.46 780.911 1747.46 775.92 1747.46 771.869 1743.41 771.869 1738.42L771.869 1685.91 591.687 1685.87 591.687 1738.57C591.687 1743.56 587.636 1747.61 582.645 1747.61 577.654 1747.61 573.603 1743.56 573.603 1738.57L573.603 1685.87 152.985 1685.76ZM1564.97 1613.5C1564.97 1608.51 1569.02 1604.46 1574.01 1604.46 1579 1604.46 1583.05 1608.51 1583.05 1613.5L1583.05 1668.08 1871.55 1668.15C1854.01 1662.83 1836.11 1655.42 1817.77 1645.8 1682.08 1574.73 1573.11 1432.53 1470.25 1298.27 1366.48 1162.87 1269.09 1035.7 1160.52 1003.7 1142.11 998.272 1114.11 995.523 1085.9 995.415 1057.62 995.343 1029.52 997.947 1010.89 1003.3 901.743 1034.62 803.949 1162.29 699.753 1298.27 596.895 1432.53 487.961 1574.73 352.227 1645.8 334.397 1655.13 316.892 1662.44 299.713 1667.72L573.567 1667.79 573.567 1614.08C573.567 1609.09 577.618 1605.04 582.609 1605.04 587.6 1605.04 591.65 1609.09 591.65 1614.08L591.65 1667.79 771.833 1667.83 771.833 1613.94C771.833 1608.95 775.883 1604.9 780.874 1604.9 785.865 1604.9 789.916 1608.95 789.916 1613.94L789.916 1667.83 970.098 1667.86 970.098 1613.83C970.098 1608.84 974.149 1604.79 979.14 1604.79 984.131 1604.79 988.182 1608.84 988.182 1613.83L988.182 1667.86 1168.36 1667.9 1168.36 1613.68C1168.36 1608.69 1172.41 1604.64 1177.41 1604.64 1182.4 1604.64 1186.45 1608.69 1186.45 1613.68L1186.45 1667.9 1366.63 1667.93 1366.63 1613.54C1366.63 1608.55 1370.68 1604.5 1375.67 1604.5 1380.66 1604.5 1384.71 1608.55 1384.71 1613.54L1384.71 1667.93 1564.9 1667.97 1564.9 1613.43ZM389.406 1589.6C497.111 1515.31 589.191 1395.13 676.823 1280.77 784.057 1140.84 884.673 1009.48 1003.01 975.523 1023.99 969.484 1055.05 966.554 1085.9 966.626 1116.72 966.699 1147.71 969.845 1168.65 976.03 1286.27 1010.71 1386.49 1141.49 1493.21 1280.77 1580.81 1395.13 1672.93 1515.31 1780.63 1589.6 1659.47 1454.8 1559.72 1221.53 1465.15 1000.33 1361.2 757.294 1263.63 529.082 1156.21 472.3 1139.11 463.259 1112.7 458.666 1085.87 458.521 1058.96 458.376 1032.45 462.716 1015.23 471.577 907.277 527.093 809.301 756.209 704.888 1000.33 610.312 1221.53 510.565 1454.77 389.406 1589.6Z" fill="#582F84" transform="matrix(1 0 0 1.00037 1115 276)"/><text fill="#582F84" font-family="Arial,Arial_MSFontService,sans-serif" font-weight="700" font-size="5" transform="matrix(0.0361667 0 0 0.0361799 1115 2447)">Created by Olena Panasovska</text><text fill="#582F84" font-family="Arial,Arial_MSFontService,sans-serif" font-weight="700" font-size="5" transform="matrix(0.0361667 0 0 0.0361799 1115 2448)">from the Noun Project</text></g></g></g><path d="M16.0417-3.85084e-06 16.042 1439.23C16.042 1448.09 8.85992 1455.27 0.00034934 1455.27-8.85922 1455.27-16.0413 1448.09-16.0413 1439.23L-16.0417 3.85084e-06C-16.0417-8.85956-8.85957-16.0417-3.85084e-06-16.0417 8.85956-16.0417 16.0417-8.85957 16.0417-3.85084e-06ZM0.000345489 1439.23 48.1253 1407.14 0.000360892 1503.39-48.1247 1407.14Z" fill="#582F84" transform="matrix(1 0 0 -1 2200 1941.39)"/></g></svg>