<svg width="3816" height="2053" xmlns="http://www.w3.org/2000/svg" xmlns:xlink="http://www.w3.org/1999/xlink" xml:space="preserve" overflow="hidden"><defs><clipPath id="clip0"><rect x="292" y="211" width="3816" height="2053"/></clipPath><clipPath id="clip1"><rect x="1210" y="360" width="1980" height="1755"/></clipPath><clipPath id="clip2"><rect x="1210" y="360" width="1980" height="1755"/></clipPath></defs><g clip-path="url(#clip0)" transform="translate(-292 -211)"><g clip-path="url(#clip1)"><g clip-path="url(#clip2)"><g><path d="M139.512 1537.24C134.96 1537.24 131.299 1533.54 131.299 1529.02 131.299 1524.47 134.993 1520.81 139.512 1520.81L159.993 1520.81C134.4 1508.18 109.664 1486.25 85.4881 1455.14 79.9142 1447.95 81.2005 1437.6 88.3904 1432.02 95.5804 1426.45 105.937 1427.74 111.51 1434.93 142.678 1475 173.384 1496.93 204.419 1500.26 235.191 1503.56 268.041 1488.65 303.859 1455.05 422.493 1343.73 520.25 1115.14 612.533 899.34 710.158 671.075 801.747 456.827 910.718 400.791 931.134 390.303 960.916 385.125 990.336 385.29 1019.72 385.422 1049.44 390.897 1069.69 401.583 1178 458.806 1269.23 672.13 1366.36 899.34 1458.64 1115.17 1556.4 1343.73 1675.03 1455.05 1710.85 1488.65 1743.7 1503.56 1774.47 1500.26 1805.51 1496.93 1836.21 1475 1867.38 1434.93 1872.95 1427.74 1883.31 1426.45 1890.5 1432.02 1897.69 1437.6 1898.98 1447.95 1893.4 1455.14 1868.93 1486.58 1843.9 1508.67 1818.01 1521.24L1819.75 1521.24C1824.31 1521.24 1827.97 1524.93 1827.97 1529.45 1827.97 1534 1824.27 1537.66 1819.75 1537.66L1443.6 1537.56 1443.6 1584.83C1443.6 1589.38 1439.91 1593.07 1435.36 1593.07 1430.8 1593.07 1427.11 1589.38 1427.11 1584.83L1427.11 1537.56 1262.8 1537.53 1262.8 1584.96C1262.8 1589.51 1259.1 1593.2 1254.55 1593.2 1250 1593.2 1246.31 1589.51 1246.31 1584.96L1246.31 1537.53 1081.99 1537.5 1081.99 1585.06C1081.99 1589.61 1078.3 1593.3 1073.75 1593.3 1069.19 1593.3 1065.5 1589.61 1065.5 1585.06L1065.5 1537.5 901.187 1537.47 901.187 1585.19C901.187 1589.74 897.493 1593.44 892.941 1593.44 888.39 1593.44 884.696 1589.74 884.696 1585.19L884.696 1537.47 720.382 1537.43 720.382 1585.32C720.382 1589.87 716.688 1593.57 712.137 1593.57 707.585 1593.57 703.891 1589.87 703.891 1585.32L703.891 1537.43 539.577 1537.4 539.577 1585.45C539.577 1590.01 535.884 1593.7 531.332 1593.7 526.781 1593.7 523.087 1590.01 523.087 1585.45L523.087 1537.4 139.512 1537.3ZM1427.14 1471.4C1427.14 1466.85 1430.84 1463.16 1435.39 1463.16 1439.94 1463.16 1443.63 1466.85 1443.63 1471.4L1443.63 1521.17 1706.73 1521.24C1690.73 1516.39 1674.41 1509.63 1657.68 1500.86 1533.94 1436.05 1434.56 1306.36 1340.76 1183.94 1246.14 1060.45 1157.32 944.491 1058.31 915.303 1041.52 910.356 1016 907.849 990.27 907.75 964.478 907.684 938.852 910.059 921.866 914.94 822.328 943.502 733.146 1059.93 638.126 1183.94 544.327 1306.36 444.987 1436.05 321.207 1500.86 304.947 1509.37 288.984 1516.03 273.318 1520.84L523.054 1520.91 523.054 1471.93C523.054 1467.38 526.748 1463.69 531.299 1463.69 535.851 1463.69 539.544 1467.38 539.544 1471.93L539.544 1520.91 703.858 1520.94 703.858 1471.8C703.858 1467.25 707.552 1463.55 712.104 1463.55 716.655 1463.55 720.349 1467.25 720.349 1471.8L720.349 1520.94 884.663 1520.98 884.663 1471.7C884.663 1467.15 888.357 1463.46 892.908 1463.46 897.46 1463.46 901.154 1467.15 901.154 1471.7L901.154 1520.98 1065.47 1521.01 1065.47 1471.57C1065.47 1467.02 1069.16 1463.32 1073.71 1463.32 1078.26 1463.32 1081.96 1467.02 1081.96 1471.57L1081.96 1521.01 1246.27 1521.04 1246.27 1471.44C1246.27 1466.89 1249.97 1463.19 1254.52 1463.19 1259.07 1463.19 1262.76 1466.89 1262.76 1471.44L1262.76 1521.04 1427.08 1521.07 1427.08 1471.34ZM355.112 1449.6C453.331 1381.86 537.302 1272.26 617.216 1167.97 715.006 1040.37 806.761 920.58 914.676 889.61 933.805 884.102 962.137 881.431 990.27 881.497 1018.37 881.563 1046.64 884.432 1065.73 890.072 1172.99 921.701 1264.38 1040.96 1361.71 1167.97 1441.59 1272.26 1525.59 1381.86 1623.81 1449.6 1513.32 1326.68 1422.36 1113.95 1336.11 912.236 1241.32 690.6 1152.34 482.486 1054.39 430.706 1038.79 422.46 1014.71 418.271 990.237 418.14 965.699 418.008 941.523 421.965 925.824 430.046 827.374 480.672 738.027 689.61 642.81 912.236 556.563 1113.95 465.6 1326.65 355.112 1449.6Z" fill="#582F84" transform="matrix(1.00056 0 0 1 1210 361)"/><text fill="#582F84" font-family="Arial,Arial_MSFontService,sans-serif" font-weight="700" font-size="5" transform="matrix(0.033 0 0 0.0329815 1210 2340)">Created by Olena Panasovska</text><text fill="#582F84" font-family="Arial,Arial_MSFontService,sans-serif" font-weight="700" font-size="5" transform="matrix(0.033 0 0 0.0329815 1210 2341)">from the Noun Project</text></g></g></g><path d="M16.0417-4.22157e-06 16.042 1307.2C16.042 1316.06 8.85992 1323.24 0.000348228 1323.24-8.85922 1323.24-16.0413 1316.06-16.0413 1307.2L-16.0417 4.22157e-06C-16.0417-8.85956-8.85957-16.0417-4.22157e-06-16.0417 8.85956-16.0417 16.0417-8.85957 16.0417-4.22157e-06ZM0.000344006 1307.2 48.1253 1275.11 0.000360892 1371.36-48.1247 1275.11Z" fill="#582F84" transform="matrix(1 0 0 -1 2200 1879.36)"/></g></svg>