<svg width="10450" height="2475" xmlns="http://www.w3.org/2000/svg" xmlns:xlink="http://www.w3.org/1999/xlink" xml:space="preserve" overflow="hidden"><defs><clipPath id="clip0"><rect x="1564" y="723" width="546" height="836"/></clipPath><clipPath id="clip1"><rect x="1564" y="723" width="546" height="836"/></clipPath><clipPath id="clip2"><rect x="2109" y="722" width="727" height="1298"/></clipPath><clipPath id="clip3"><rect x="2109" y="722" width="727" height="1298"/></clipPath></defs><g transform="translate(3025 0)"><rect x="2110" y="571" width="179" height="255"/><rect x="1890" y="455" width="619" height="156"/><g clip-path="url(#clip0)"><g clip-path="url(#clip1)"><g><g><path d="M3066.05 3389.45C3416.36 3389.45 3700.34 3576.24 3700.34 3806.65 3700.34 4037.07 3416.36 4223.86 3066.05 4223.86 2715.74 4223.86 2431.76 4037.07 2431.76 3806.65 2431.76 3576.24 2715.74 3389.45 3066.05 3389.45ZM3066.05 3575.45C2818.59 3575.45 2617.99 3678.97 2617.99 3806.65 2617.99 3934.33 2818.59 4037.86 3066.05 4037.86 3313.51 4037.86 3514.11 3934.33 3514.11 3806.65 3514.11 3678.97 3313.51 3575.45 3066.05 3575.45Z" fill-rule="evenodd" transform="matrix(1 0 0 1.00071 -867.756 -2667.85)"/></g></g></g></g><rect x="1890" y="1864" width="619" height="156"/><g clip-path="url(#clip2)"><g clip-path="url(#clip3)"><g><g><path d="M4550.28 1345.5 4728.12 1345.5 4728.12 2608.37 4550.28 2608.37Z" fill="#8E7CC3" transform="matrix(1.0001 0 0 1 -2440.55 -588.371)"/><path d="M4639.2 1311.37C4990.9 1311.37 5276.02 1499.17 5276.02 1730.83 5276.02 1962.49 4990.9 2150.29 4639.2 2150.29 4287.48 2150.29 4002.38 1962.49 4002.38 1730.83 4002.38 1499.17 4287.48 1311.37 4639.2 1311.37ZM4639.2 1498.38C4390.76 1498.38 4189.35 1602.45 4189.35 1730.83 4189.35 1859.2 4390.76 1963.28 4639.2 1963.28 4887.64 1963.28 5089.05 1859.2 5089.05 1730.83 5089.05 1602.45 4887.64 1498.38 4639.2 1498.38Z" fill="#8E7CC3" fill-rule="evenodd" transform="matrix(1.0001 0 0 1 -2440.55 -588.371)"/></g></g></g></g></g></svg>