<svg width="10450" height="2475" xmlns="http://www.w3.org/2000/svg" xmlns:xlink="http://www.w3.org/1999/xlink" xml:space="preserve" overflow="hidden"><g transform="translate(3025 0)"><g><g><g><path d="M1501.92 1287.93C1512.76 1304.8 1527.7 1326.17 1566.5 1339.87 1573.42 1342.31 1569.71 1352.83 1562.79 1350.39 1525.62 1337.26 1509.99 1320.79 1489.48 1289.15 1480.84 1289.54 1472.25 1288.99 1463.89 1287.65 1437.32 1296.9 1393.99 1302.21 1350.55 1307.54 1295.25 1314.32 1239.74 1321.13 1221.67 1335.34 1174.71 1372.28 1194.25 1437.08 1250.46 1449.24 1273.03 1454.12 1316.75 1446.66 1340.52 1434.09 1357.05 1425.34 1363.81 1413.58 1364.05 1396.38 1364.49 1365.29 1329.85 1340.54 1301.55 1347.54 1294.47 1349.44 1291.59 1338.66 1298.67 1336.77 1323.84 1331.09 1351.99 1342.29 1364.64 1362 1362.3 1352.17 1358.96 1340.62 1353.81 1332.05 1351.55 1328.28 1357.29 1324.85 1359.54 1328.62 1370.21 1346.36 1375.64 1376.62 1375.2 1396.97 1374.86 1412.55 1369.84 1426.19 1356.92 1436.66 1367.56 1443.77 1407.49 1438.9 1449.15 1431.57 1437 1418.97 1422.77 1398.3 1414.23 1383.19 1412.08 1379.37 1417.9 1376.09 1420.04 1379.91 1425.94 1390.36 1448.28 1423.88 1457.25 1429.92 1458.02 1430.44 1497.98 1422.25 1502.49 1421.33 1488.75 1408.38 1473.62 1384.69 1466.64 1367.36 1465.01 1363.28 1471.21 1360.79 1472.85 1364.87 1479.51 1381.43 1496.63 1408.63 1510.76 1419.66 1518.47 1418.09 1526.19 1416.49 1533.91 1414.98 1597.78 1402.45 1630.05 1471.52 1589.24 1508.68 1629.84 1514.83 1642.96 1565.27 1616.03 1594.88 1631.65 1594.95 1646.9 1601.31 1655.22 1615.03 1670.63 1640.47 1652.55 1667.42 1631.9 1683.94 1611.77 1700.04 1581.56 1718.83 1552.83 1733.65 1552.68 1733.76 1552.52 1733.86 1552.35 1733.94 1550.02 1735.23 1548.49 1737.05 1547.55 1739.06 1546.25 1741.81 1545.96 1745 1546.19 1747.8 1546.44 1750.87 1544.15 1753.56 1541.08 1753.82 1538.01 1754.08 1535.31 1751.79 1535.06 1748.71 1534.89 1746.7 1534.91 1744.53 1535.19 1742.33 1524.72 1747.21 1514.8 1751.33 1506.08 1754.31 1537.27 1762.46 1586.89 1765.02 1639.47 1762.07 1689.9 1759.25 1742.81 1751.35 1784.62 1738.45 1798.86 1734.05 1810.92 1728.77 1823.7 1720.37 1831.84 1715.03 1838.04 1709.57 1842.2 1704.3 1846.72 1698.57 1855.45 1705.47 1850.92 1711.2 1848.01 1714.89 1844.34 1718.6 1839.95 1722.25 1852.88 1720.05 1867.79 1718.42 1883.64 1717.7 1910.1 1716.5 1939.32 1717.82 1966.46 1723.32 1973.63 1724.76 1971.45 1735.67 1964.28 1734.23 1938.12 1728.93 1909.81 1727.66 1884.12 1728.82 1837.42 1730.75 1824.79 1737.75 1787.41 1749.22 1744.71 1762.33 1691.08 1770.35 1640.08 1773.2 1576.66 1776.75 1516.97 1772.28 1486.91 1759.67 1439.15 1769.05 1399.13 1735.76 1402.09 1688.94 1402.54 1681.94 1404.22 1683.25 1397.51 1682.79 1362.88 1680.47 1333.36 1656.63 1321.42 1623.95 1315.26 1607.09 1313.3 1583.56 1319.65 1566.37 1322.25 1559.34 1323.96 1561.73 1316.41 1559.1 1291.6 1550.45 1274.06 1529.59 1268.71 1503.7 1265.89 1490.04 1266.6 1474.07 1273.84 1461.81 1264.49 1462.24 1255.66 1461.77 1248.1 1460.13 1182.71 1445.99 1160.4 1369.32 1214.77 1326.56 1235.3 1310.42 1292.34 1303.42 1349.18 1296.45 1383.07 1292.29 1416.88 1288.15 1442.08 1282.24 1421.87 1275.43 1401.89 1263.32 1387.98 1246.98 1369.31 1244.32 1351.62 1236.57 1335.51 1225.63 1309.74 1208.13 1288.04 1182.43 1272.96 1156.46 1257.41 1129.67 1248.08 1094.07 1278.86 1074.03 1300.89 1059.69 1332.22 1078.76 1360.97 1096.27 1379.54 1107.57 1396.93 1118.16 1407.34 1117.2 1419.05 1116.12 1464.8 1129.11 1519.04 1146.47 1604.3 1173.77 1711.36 1211.94 1737.98 1222.61 1770.36 1235.59 1800.56 1251.14 1830.27 1268.89 1892.86 1306.29 1916.98 1319.81 1991.62 1322.36 1998.94 1322.59 1998.6 1333.72 1991.28 1333.49 1946.99 1331.97 1920.58 1329.41 1879.43 1309.62 1889.43 1321.23 1898.24 1334.33 1903.48 1347.48 1906.17 1354.28 1895.83 1358.38 1893.14 1351.58 1881.41 1322.11 1852.35 1295.11 1825.67 1279.1 1796.08 1261.34 1766.07 1245.87 1733.83 1232.95 1707.31 1222.32 1600.63 1184.29 1515.63 1157.07 1462.61 1140.09 1418.37 1127.35 1408.33 1128.28 1394.26 1129.57 1375.35 1118.07 1355.16 1105.78 1329.28 1090.02 1301.08 1072.84 1284.91 1083.37 1259.91 1099.64 1270.38 1129.82 1282.6 1150.87 1296.94 1175.56 1317.48 1199.94 1341.74 1216.42 1361.72 1229.99 1384.23 1238.18 1407.82 1236.66 1415.14 1236.2 1415.83 1247.32 1408.52 1247.78 1403.03 1248.14 1404.16 1247.96 1408.78 1251.7 1434.2 1272.27 1469.99 1282.09 1502.24 1276.57 1509.47 1275.33 1511.35 1286.33 1504.12 1287.56 1503.38 1287.69 1502.64 1287.81 1501.91 1287.92ZM1463.59 815.293C1461.52 813.216 1464.67 810.057 1466.75 812.132 1480.65 826.034 1499.61 858.096 1481.95 875.754 1479.88 877.83 1476.72 874.673 1478.79 872.594 1494.28 857.104 1475.5 827.197 1463.59 815.293ZM1485.54 925.252C1472.22 938.571 1450.89 940.895 1428.16 935.161 1379.89 922.983 1330.66 874.042 1318.27 825.825 1312.7 804.154 1314.26 783.501 1326.79 770.528L1352.77 743.65C1365.51 730.469 1387.02 729.029 1409.25 734.618 1457.91 746.85 1506.75 795.689 1518.98 844.345 1524.58 866.62 1522.87 887.916 1509.89 900.9L1485.53 925.247ZM1336.83 776.086C1326.33 786.922 1324.14 803.986 1329.05 823.082 1340.4 867.26 1386.64 913.187 1430.86 924.347 1450.17 929.219 1467.46 927.042 1478.34 916.693 1469.28 917.759 1459.34 916.933 1449 914.337 1400.35 902.105 1351.51 853.266 1339.28 804.61 1336.76 794.589 1335.91 784.939 1336.83 776.092ZM1451.71 903.508C1471.43 908.463 1489.05 906.104 1499.9 895.246 1510.76 884.393 1513.12 866.769 1508.16 847.054 1496.94 802.422 1451.18 756.662 1406.55 745.445 1386.84 740.489 1369.22 742.848 1358.36 753.706 1347.51 764.559 1345.15 782.184 1350.1 801.898 1361.32 846.53 1407.08 892.29 1451.71 903.508ZM1932.45 1582.61C1931.31 1586.86 1924.85 1585.13 1925.98 1580.88 1930.54 1563.85 1933.17 1545.6 1934.22 1528.01 1934.48 1523.62 1941.16 1524.01 1940.9 1528.4 1939.82 1546.38 1937.1 1565.2 1932.45 1582.61ZM1899.1 1598.82C1897.26 1602.82 1891.19 1600.02 1893.03 1596.02 1905.44 1569.15 1910.87 1519.45 1907.66 1490.04 1907.19 1485.66 1913.84 1484.96 1914.31 1489.33 1917.65 1519.93 1912.03 1570.85 1899.1 1598.82ZM1629.73 1497.04C1625.56 1495.63 1627.71 1489.29 1631.87 1490.7 1675.92 1505.78 1746.28 1495.4 1784.24 1468.2 1787.82 1465.63 1791.73 1471.08 1788.14 1473.65 1748.45 1502.09 1675.8 1512.81 1629.73 1497.04ZM1497.91 1745.25C1535.58 1733.03 1596.27 1699.12 1625.09 1674.77 1640.65 1661.62 1657.51 1640.49 1645.7 1620.82 1624.67 1586.1 1555.1 1626.03 1529.39 1637.71 1494.19 1653.68 1457.4 1671.61 1426.85 1679.79 1424.74 1680.36 1422.63 1680.86 1420.53 1681.27 1413.62 1682.63 1413.98 1680.68 1413.55 1688.03 1410.76 1736.02 1452.49 1760 1497.91 1745.25ZM1566.56 1521.78C1536.15 1533.62 1490.62 1544.68 1447 1552.43 1406.51 1559.63 1367.46 1564 1343.41 1563.53 1335.73 1563.38 1332.45 1564.49 1330.49 1568.68 1324.22 1582.16 1327.04 1607.22 1332.06 1620.67 1346.23 1658.61 1384.47 1679.62 1423.97 1669.03 1453.51 1661.11 1489.7 1643.66 1524.32 1627.92 1558.09 1612.56 1630.94 1590.61 1616.78 1547.3 1610.57 1528.31 1590.99 1514.01 1566.56 1521.78ZM1347.87 1442.77C1331.64 1451.94 1308.14 1457.74 1289.88 1460.31 1277.83 1468.77 1276.9 1488.31 1279.62 1501.5 1285.06 1527.84 1304.73 1547.18 1331.62 1551.5 1350.85 1554.59 1396.7 1550.04 1445.07 1541.43 1490.62 1533.34 1538.13 1521.65 1567.57 1509.35 1616.31 1488.98 1599.39 1413.53 1536.04 1425.95 1497.78 1433.46 1372.72 1462.74 1347.86 1442.76Z" fill="#582F84"/></g></g></g><g><g><g><path d="M547.922 1287.93C558.761 1304.8 573.698 1326.17 612.502 1339.87 619.418 1342.31 615.709 1352.83 608.794 1350.39 571.615 1337.26 555.988 1320.79 535.483 1289.15 526.837 1289.54 518.248 1288.99 509.885 1287.65 483.32 1296.9 439.993 1302.21 396.547 1307.54 341.246 1314.32 285.741 1321.13 267.673 1335.34 220.71 1372.28 240.254 1437.08 296.456 1449.24 319.033 1454.12 362.749 1446.66 386.518 1434.09 403.052 1425.34 409.814 1413.58 410.054 1396.38 410.486 1365.29 375.846 1340.54 347.554 1347.54 340.466 1349.44 337.587 1338.66 344.674 1336.77 369.839 1331.09 397.985 1342.29 410.639 1362 408.304 1352.17 404.963 1340.62 399.807 1332.05 397.552 1328.28 403.286 1324.85 405.541 1328.62 416.209 1346.36 421.638 1376.62 421.197 1396.97 420.859 1412.55 415.845 1426.19 402.919 1436.66 413.562 1443.77 453.485 1438.9 495.147 1431.57 482.995 1418.97 468.768 1398.3 460.234 1383.19 458.081 1379.37 463.896 1376.09 466.044 1379.91 471.942 1390.36 494.282 1423.88 503.248 1429.92 504.023 1430.44 543.976 1422.25 548.492 1421.33 534.751 1408.38 519.617 1384.69 512.643 1367.36 511.007 1363.28 517.214 1360.79 518.846 1364.87 525.511 1381.43 542.634 1408.63 556.756 1419.66 564.472 1418.09 572.188 1416.49 579.911 1414.98 643.778 1402.45 676.047 1471.52 635.24 1508.68 675.844 1514.83 688.956 1565.27 662.031 1594.88 677.647 1594.95 692.905 1601.31 701.221 1615.03 716.627 1640.47 698.548 1667.42 677.902 1683.94 657.766 1700.04 627.557 1718.83 598.829 1733.65 598.677 1733.76 598.516 1733.86 598.354 1733.94 596.023 1735.23 594.491 1737.05 593.546 1739.06 592.248 1741.81 591.957 1745 592.187 1747.8 592.441 1750.87 590.154 1753.56 587.081 1753.82 584.008 1754.08 581.315 1751.79 581.06 1748.71 580.893 1746.7 580.911 1744.53 581.187 1742.33 570.715 1747.21 560.8 1751.33 552.077 1754.31 583.267 1762.46 632.892 1765.02 685.475 1762.07 735.9 1759.25 788.807 1751.35 830.62 1738.45 844.859 1734.05 856.916 1728.77 869.7 1720.37 877.837 1715.03 884.044 1709.57 888.196 1704.3 892.723 1698.57 901.45 1705.47 896.923 1711.2 894.014 1714.89 890.342 1718.6 885.946 1722.25 898.876 1720.05 913.791 1718.42 929.637 1717.7 956.097 1716.5 985.323 1717.82 1012.46 1723.32 1019.63 1724.76 1017.45 1735.67 1010.28 1734.23 984.12 1728.93 955.813 1727.66 930.117 1728.82 883.419 1730.75 870.792 1737.75 833.413 1749.22 790.707 1762.33 737.081 1770.35 686.081 1773.2 622.664 1776.75 562.969 1772.28 532.912 1759.67 485.149 1769.05 445.134 1735.76 448.094 1688.94 448.538 1681.94 450.217 1683.25 443.506 1682.79 408.876 1680.47 379.358 1656.63 367.417 1623.95 361.257 1607.09 359.298 1583.56 365.65 1566.37 368.246 1559.34 369.962 1561.73 362.407 1559.1 337.602 1550.45 320.058 1529.59 314.713 1503.7 311.891 1490.04 312.604 1474.07 319.844 1461.81 310.491 1462.24 301.66 1461.77 294.097 1460.13 228.712 1445.99 206.402 1369.32 260.771 1326.56 281.298 1310.42 338.344 1303.42 395.184 1296.45 429.068 1292.29 462.876 1288.15 488.078 1282.24 467.869 1275.43 447.885 1263.32 433.977 1246.98 415.306 1244.32 397.617 1236.57 381.508 1225.63 355.744 1208.13 334.036 1182.43 318.957 1156.46 303.411 1129.67 294.077 1094.07 324.855 1074.03 346.894 1059.69 378.218 1078.76 406.972 1096.27 425.538 1107.57 442.926 1118.16 453.336 1117.2 465.048 1116.12 510.804 1129.11 565.036 1146.47 650.299 1173.77 757.356 1211.94 783.977 1222.61 816.356 1235.59 846.557 1251.14 876.265 1268.89 938.863 1306.29 962.978 1319.81 1037.62 1322.36 1044.94 1322.59 1044.6 1333.72 1037.28 1333.49 992.989 1331.97 966.584 1329.41 925.427 1309.62 935.433 1321.23 944.244 1334.33 949.476 1347.48 952.174 1354.28 941.833 1358.38 939.135 1351.58 927.412 1322.11 898.346 1295.11 871.671 1279.1 842.077 1261.34 812.065 1245.87 779.828 1232.95 753.31 1222.32 646.626 1184.29 561.631 1157.07 508.614 1140.09 464.368 1127.35 454.334 1128.28 440.255 1129.57 421.351 1118.07 401.164 1105.78 375.278 1090.02 347.078 1072.84 330.915 1083.37 305.914 1099.64 316.382 1129.82 328.595 1150.87 342.936 1175.56 363.476 1199.94 387.743 1216.42 407.724 1229.99 430.234 1238.18 453.817 1236.66 461.137 1236.2 461.832 1247.32 454.516 1247.78 449.029 1248.14 450.16 1247.96 454.785 1251.7 480.197 1272.27 515.994 1282.09 548.24 1276.57 555.473 1275.33 557.348 1286.33 550.117 1287.56 549.379 1287.69 548.641 1287.81 547.906 1287.92ZM509.594 815.293C507.518 813.216 510.674 810.057 512.754 812.132 526.654 826.034 545.609 858.096 527.953 875.754 525.876 877.83 522.717 874.673 524.793 872.594 540.283 857.104 521.498 827.197 509.594 815.293ZM531.537 925.252C518.218 938.571 496.885 940.895 474.156 935.161 425.888 922.983 376.661 874.042 364.271 825.825 358.701 804.154 360.257 783.501 372.794 770.528L398.77 743.65C411.507 730.469 433.018 729.029 455.253 734.618 503.91 746.85 552.748 795.689 564.979 844.345 570.579 866.62 568.874 887.916 555.886 900.9L531.532 925.247ZM382.827 776.086C372.334 786.922 370.137 803.986 375.047 823.082 386.398 867.26 432.638 913.187 476.861 924.347 496.168 929.219 513.458 927.042 524.345 916.693 515.276 917.759 505.339 916.933 495.005 914.337 446.347 902.105 397.509 853.266 385.278 804.61 382.759 794.589 381.908 784.939 382.831 776.092ZM497.711 903.508C517.426 908.463 535.046 906.104 545.903 895.246 556.756 884.393 559.12 866.769 554.164 847.054 542.943 802.422 497.183 756.662 452.554 745.445 432.839 740.489 415.22 742.848 404.362 753.706 393.509 764.559 391.145 782.184 396.101 801.898 407.322 846.53 453.082 892.29 497.711 903.508ZM978.449 1582.61C977.314 1586.86 970.846 1585.13 971.984 1580.88 976.536 1563.85 979.168 1545.6 980.223 1528.01 980.482 1523.62 987.158 1524.01 986.899 1528.4 985.823 1546.38 983.103 1565.2 978.449 1582.61ZM945.103 1598.82C943.26 1602.82 937.187 1600.02 939.031 1596.02 951.445 1569.15 956.866 1519.45 953.655 1490.04 953.19 1485.66 959.84 1484.96 960.305 1489.33 963.647 1519.93 958.026 1570.85 945.103 1598.82ZM675.729 1497.04C671.562 1495.63 673.707 1489.29 677.875 1490.7 721.922 1505.78 792.283 1495.4 830.243 1468.2 833.824 1465.63 837.726 1471.08 834.144 1473.65 794.448 1502.09 721.802 1512.81 675.725 1497.04ZM543.914 1745.25C581.576 1733.03 642.266 1699.12 671.094 1674.77 686.652 1661.62 703.512 1640.49 691.703 1620.82 670.672 1586.1 601.103 1626.03 575.386 1637.71 540.186 1653.68 503.403 1671.61 472.855 1679.79 470.735 1680.36 468.626 1680.86 466.528 1681.27 459.619 1682.63 459.983 1680.68 459.554 1688.03 456.762 1736.02 498.485 1760 543.911 1745.25ZM612.563 1521.78C582.154 1533.62 536.62 1544.68 492.997 1552.43 452.513 1559.63 413.462 1564 389.414 1563.53 381.727 1563.38 378.448 1564.49 376.495 1568.68 370.219 1582.16 373.044 1607.22 378.062 1620.67 392.225 1658.61 430.466 1679.62 469.971 1669.03 499.506 1661.11 535.7 1643.66 570.324 1627.92 604.092 1612.56 676.942 1590.61 662.778 1547.3 656.572 1528.31 636.988 1514.01 612.557 1521.78ZM393.873 1442.77C377.645 1451.94 354.145 1457.74 335.885 1460.31 323.835 1468.77 322.897 1488.31 325.62 1501.5 331.06 1527.84 350.728 1547.18 377.616 1551.5 396.854 1554.59 442.698 1550.04 491.075 1541.43 536.621 1533.34 584.126 1521.65 613.573 1509.35 662.31 1488.98 645.389 1413.53 582.041 1425.95 543.775 1433.46 418.717 1462.74 393.863 1442.76Z" fill="#582F84"/></g></g></g><g><g><g><path d="M2458.92 1287.93C2469.76 1304.8 2484.7 1326.17 2523.5 1339.87 2530.42 1342.31 2526.71 1352.83 2519.79 1350.39 2482.62 1337.26 2466.99 1320.79 2446.48 1289.15 2437.84 1289.54 2429.25 1288.99 2420.89 1287.65 2394.32 1296.9 2350.99 1302.21 2307.55 1307.54 2252.25 1314.32 2196.74 1321.13 2178.67 1335.34 2131.71 1372.28 2151.25 1437.08 2207.46 1449.24 2230.03 1454.12 2273.75 1446.66 2297.52 1434.09 2314.05 1425.34 2320.81 1413.58 2321.05 1396.38 2321.49 1365.29 2286.85 1340.54 2258.55 1347.54 2251.47 1349.44 2248.59 1338.66 2255.67 1336.77 2280.84 1331.09 2308.99 1342.29 2321.64 1362 2319.3 1352.17 2315.96 1340.62 2310.81 1332.05 2308.55 1328.28 2314.29 1324.85 2316.54 1328.62 2327.21 1346.36 2332.64 1376.62 2332.2 1396.97 2331.86 1412.55 2326.84 1426.19 2313.92 1436.66 2324.56 1443.77 2364.49 1438.9 2406.15 1431.57 2394 1418.97 2379.77 1398.3 2371.23 1383.19 2369.08 1379.37 2374.9 1376.09 2377.04 1379.91 2382.94 1390.36 2405.28 1423.88 2414.25 1429.92 2415.02 1430.44 2454.98 1422.25 2459.49 1421.33 2445.75 1408.38 2430.62 1384.69 2423.64 1367.36 2422.01 1363.28 2428.21 1360.79 2429.85 1364.87 2436.51 1381.43 2453.63 1408.63 2467.76 1419.66 2475.47 1418.09 2483.19 1416.49 2490.91 1414.98 2554.78 1402.45 2587.05 1471.52 2546.24 1508.68 2586.84 1514.83 2599.96 1565.27 2573.03 1594.88 2588.65 1594.95 2603.9 1601.31 2612.22 1615.03 2627.63 1640.47 2609.55 1667.42 2588.9 1683.94 2568.77 1700.04 2538.56 1718.83 2509.83 1733.65 2509.68 1733.76 2509.52 1733.86 2509.35 1733.94 2507.02 1735.23 2505.49 1737.05 2504.55 1739.06 2503.25 1741.81 2502.96 1745 2503.19 1747.8 2503.44 1750.87 2501.15 1753.56 2498.08 1753.82 2495.01 1754.08 2492.31 1751.79 2492.06 1748.71 2491.89 1746.7 2491.91 1744.53 2492.19 1742.33 2481.72 1747.21 2471.8 1751.33 2463.08 1754.31 2494.27 1762.46 2543.89 1765.02 2596.47 1762.07 2646.9 1759.25 2699.81 1751.35 2741.62 1738.45 2755.86 1734.05 2767.92 1728.77 2780.7 1720.37 2788.84 1715.03 2795.04 1709.57 2799.2 1704.3 2803.72 1698.57 2812.45 1705.47 2807.92 1711.2 2805.01 1714.89 2801.34 1718.6 2796.95 1722.25 2809.88 1720.05 2824.79 1718.42 2840.64 1717.7 2867.1 1716.5 2896.32 1717.82 2923.46 1723.32 2930.63 1724.76 2928.45 1735.67 2921.28 1734.23 2895.12 1728.93 2866.81 1727.66 2841.12 1728.82 2794.42 1730.75 2781.79 1737.75 2744.41 1749.22 2701.71 1762.33 2648.08 1770.35 2597.08 1773.2 2533.66 1776.75 2473.97 1772.28 2443.91 1759.67 2396.15 1769.05 2356.13 1735.76 2359.09 1688.94 2359.54 1681.94 2361.22 1683.25 2354.51 1682.79 2319.88 1680.47 2290.36 1656.63 2278.42 1623.95 2272.26 1607.09 2270.3 1583.56 2276.65 1566.37 2279.25 1559.34 2280.96 1561.73 2273.41 1559.1 2248.6 1550.45 2231.06 1529.59 2225.71 1503.7 2222.89 1490.04 2223.6 1474.07 2230.84 1461.81 2221.49 1462.24 2212.66 1461.77 2205.1 1460.13 2139.71 1445.99 2117.4 1369.32 2171.77 1326.56 2192.3 1310.42 2249.34 1303.42 2306.18 1296.45 2340.07 1292.29 2373.88 1288.15 2399.08 1282.24 2378.87 1275.43 2358.89 1263.32 2344.98 1246.98 2326.31 1244.32 2308.62 1236.57 2292.51 1225.63 2266.74 1208.13 2245.04 1182.43 2229.96 1156.46 2214.41 1129.67 2205.08 1094.07 2235.85 1074.03 2257.89 1059.69 2289.22 1078.76 2317.97 1096.27 2336.54 1107.57 2353.93 1118.16 2364.34 1117.2 2376.05 1116.12 2421.8 1129.11 2476.04 1146.47 2561.3 1173.77 2668.36 1211.94 2694.98 1222.61 2727.36 1235.59 2757.56 1251.14 2787.27 1268.89 2849.86 1306.29 2873.98 1319.81 2948.62 1322.36 2955.94 1322.59 2955.6 1333.72 2948.28 1333.49 2903.99 1331.97 2877.58 1329.41 2836.43 1309.62 2846.43 1321.23 2855.24 1334.33 2860.48 1347.48 2863.17 1354.28 2852.83 1358.38 2850.14 1351.58 2838.41 1322.11 2809.35 1295.11 2782.67 1279.1 2753.08 1261.34 2723.07 1245.87 2690.83 1232.95 2664.31 1222.32 2557.63 1184.29 2472.63 1157.07 2419.61 1140.09 2375.37 1127.35 2365.33 1128.28 2351.26 1129.57 2332.35 1118.07 2312.16 1105.78 2286.28 1090.02 2258.08 1072.84 2241.91 1083.37 2216.91 1099.64 2227.38 1129.82 2239.6 1150.87 2253.94 1175.56 2274.48 1199.94 2298.74 1216.42 2318.72 1229.99 2341.23 1238.18 2364.82 1236.66 2372.14 1236.2 2372.83 1247.32 2365.52 1247.78 2360.03 1248.14 2361.16 1247.96 2365.78 1251.7 2391.2 1272.27 2426.99 1282.09 2459.24 1276.57 2466.47 1275.33 2468.35 1286.33 2461.12 1287.56 2460.38 1287.69 2459.64 1287.81 2458.91 1287.92ZM2420.59 815.293C2418.52 813.216 2421.67 810.057 2423.75 812.132 2437.65 826.034 2456.61 858.096 2438.95 875.754 2436.88 877.83 2433.72 874.673 2435.79 872.594 2451.28 857.104 2432.5 827.197 2420.59 815.293ZM2442.54 925.252C2429.22 938.571 2407.89 940.895 2385.16 935.161 2336.89 922.983 2287.66 874.042 2275.27 825.825 2269.7 804.154 2271.26 783.501 2283.79 770.528L2309.77 743.65C2322.51 730.469 2344.02 729.029 2366.25 734.618 2414.91 746.85 2463.75 795.689 2475.98 844.345 2481.58 866.62 2479.87 887.916 2466.89 900.9L2442.53 925.247ZM2293.83 776.086C2283.33 786.922 2281.14 803.986 2286.05 823.082 2297.4 867.26 2343.64 913.187 2387.86 924.347 2407.17 929.219 2424.46 927.042 2435.34 916.693 2426.28 917.759 2416.34 916.933 2406 914.337 2357.35 902.105 2308.51 853.266 2296.28 804.61 2293.76 794.589 2292.91 784.939 2293.83 776.092ZM2408.71 903.508C2428.43 908.463 2446.05 906.104 2456.9 895.246 2467.76 884.393 2470.12 866.769 2465.16 847.054 2453.94 802.422 2408.18 756.662 2363.55 745.445 2343.84 740.489 2326.22 742.848 2315.36 753.706 2304.51 764.559 2302.15 782.184 2307.1 801.898 2318.32 846.53 2364.08 892.29 2408.71 903.508ZM2889.45 1582.61C2888.31 1586.86 2881.85 1585.13 2882.98 1580.88 2887.54 1563.85 2890.17 1545.6 2891.22 1528.01 2891.48 1523.62 2898.16 1524.01 2897.9 1528.4 2896.82 1546.38 2894.1 1565.2 2889.45 1582.61ZM2856.1 1598.82C2854.26 1602.82 2848.19 1600.02 2850.03 1596.02 2862.44 1569.15 2867.87 1519.45 2864.66 1490.04 2864.19 1485.66 2870.84 1484.96 2871.31 1489.33 2874.65 1519.93 2869.03 1570.85 2856.1 1598.82ZM2586.73 1497.04C2582.56 1495.63 2584.71 1489.29 2588.87 1490.7 2632.92 1505.78 2703.28 1495.4 2741.24 1468.2 2744.82 1465.63 2748.73 1471.08 2745.14 1473.65 2705.45 1502.09 2632.8 1512.81 2586.73 1497.04ZM2454.91 1745.25C2492.58 1733.03 2553.27 1699.12 2582.09 1674.77 2597.65 1661.62 2614.51 1640.49 2602.7 1620.82 2581.67 1586.1 2512.1 1626.03 2486.39 1637.71 2451.19 1653.68 2414.4 1671.61 2383.85 1679.79 2381.74 1680.36 2379.63 1680.86 2377.53 1681.27 2370.62 1682.63 2370.98 1680.68 2370.55 1688.03 2367.76 1736.02 2409.49 1760 2454.91 1745.25ZM2523.56 1521.78C2493.15 1533.62 2447.62 1544.68 2404 1552.43 2363.51 1559.63 2324.46 1564 2300.41 1563.53 2292.73 1563.38 2289.45 1564.49 2287.49 1568.68 2281.22 1582.16 2284.04 1607.22 2289.06 1620.67 2303.23 1658.61 2341.47 1679.62 2380.97 1669.03 2410.51 1661.11 2446.7 1643.66 2481.32 1627.92 2515.09 1612.56 2587.94 1590.61 2573.78 1547.3 2567.57 1528.31 2547.99 1514.01 2523.56 1521.78ZM2304.87 1442.77C2288.64 1451.94 2265.14 1457.74 2246.88 1460.31 2234.83 1468.77 2233.9 1488.31 2236.62 1501.5 2242.06 1527.84 2261.73 1547.18 2288.62 1551.5 2307.85 1554.59 2353.7 1550.04 2402.07 1541.43 2447.62 1533.34 2495.13 1521.65 2524.57 1509.35 2573.31 1488.98 2556.39 1413.53 2493.04 1425.95 2454.77 1433.46 2329.72 1462.74 2304.86 1442.76Z" fill="#582F84"/></g></g></g><g><g><g><path d="M469.922 608.933C480.762 625.797 495.698 647.173 534.502 660.874 541.418 663.314 537.709 673.829 530.794 671.39 493.615 658.263 477.988 641.788 457.483 610.147 448.837 610.536 440.248 609.987 431.885 608.65 405.32 617.896 361.993 623.213 318.547 628.543 263.246 635.324 207.741 642.135 189.673 656.34 142.71 693.279 162.254 758.08 218.456 770.237 241.033 775.124 284.749 767.662 308.518 755.089 325.052 746.344 331.814 734.578 332.054 717.379 332.486 686.294 297.846 661.541 269.554 668.543 262.466 670.438 259.587 659.66 266.674 657.766 291.839 652.09 319.985 663.289 332.639 682.996 330.304 673.171 326.963 661.62 321.807 653.05 319.552 649.282 325.286 645.853 327.541 649.62 338.209 667.357 343.638 697.616 343.197 717.971 342.859 733.548 337.845 747.195 324.919 757.656 335.562 764.772 375.485 759.899 417.147 752.569 404.995 739.97 390.768 719.299 382.234 704.187 380.081 700.366 385.896 697.093 388.044 700.915 393.942 711.358 416.282 744.878 425.248 750.918 426.023 751.438 465.976 743.245 470.492 742.333 456.751 729.378 441.617 705.689 434.643 688.36 433.007 684.28 439.214 681.793 440.846 685.873 447.511 702.427 464.634 729.633 478.757 740.657 486.472 739.089 494.188 737.494 501.911 735.977 565.778 723.448 598.048 792.522 557.241 829.685 597.845 835.829 610.956 886.273 584.031 915.882 599.648 915.95 614.905 922.306 623.221 936.028 638.627 961.467 620.549 988.424 599.903 1004.94 579.766 1021.04 549.558 1039.83 520.829 1054.65 520.677 1054.76 520.516 1054.86 520.354 1054.94 518.023 1056.23 516.492 1058.05 515.546 1060.06 514.248 1062.81 513.957 1066 514.187 1068.8 514.441 1071.87 512.154 1074.56 509.081 1074.82 506.009 1075.08 503.315 1072.79 503.06 1069.71 502.893 1067.7 502.911 1065.53 503.187 1063.33 492.715 1068.21 482.8 1072.33 474.077 1075.31 505.268 1083.46 554.892 1086.02 607.475 1083.07 657.9 1080.25 710.807 1072.35 752.62 1059.45 766.859 1055.05 778.916 1049.77 791.7 1041.37 799.837 1036.03 806.044 1030.57 810.197 1025.3 814.723 1019.57 823.45 1026.47 818.923 1032.2 816.014 1035.89 812.342 1039.6 807.946 1043.25 820.876 1041.05 835.791 1039.42 851.637 1038.7 878.097 1037.5 907.323 1038.82 934.464 1044.32 941.631 1045.76 939.453 1056.67 932.276 1055.23 906.12 1049.93 877.813 1048.66 852.118 1049.82 805.42 1051.75 792.792 1058.75 755.413 1070.22 712.708 1083.33 659.081 1091.35 608.081 1094.2 544.664 1097.75 484.969 1093.28 454.912 1080.67 407.149 1090.05 367.134 1056.76 370.094 1009.94 370.538 1002.94 372.217 1004.25 365.506 1003.79 330.876 1001.47 301.358 977.627 289.418 944.954 283.257 928.094 281.298 904.561 287.65 887.366 290.246 880.341 291.962 882.735 284.407 880.098 259.602 871.452 242.058 850.588 236.713 824.699 233.891 811.042 234.604 795.069 241.844 782.808 232.491 783.24 223.66 782.771 216.097 781.135 150.712 766.987 128.402 690.321 182.771 647.56 203.298 631.416 260.344 624.421 317.184 617.45 351.069 613.294 384.876 609.149 410.078 603.243 389.869 596.426 369.885 584.318 355.977 567.981 337.306 565.318 319.617 557.574 303.509 546.633 277.744 529.132 256.036 503.429 240.957 477.457 225.411 450.674 216.077 415.07 246.855 395.035 268.894 380.69 300.218 399.765 328.972 417.269 347.538 428.574 364.926 439.163 375.336 438.198 387.048 437.118 432.804 450.11 487.036 467.472 572.299 494.772 679.356 532.939 705.978 543.611 738.357 556.588 768.558 572.14 798.265 589.888 860.864 627.292 884.978 640.811 959.624 643.363 966.941 643.592 966.596 654.719 959.28 654.49 914.989 652.973 888.584 650.406 847.427 630.622 857.434 642.232 866.244 655.329 871.476 668.481 874.175 675.283 863.833 679.382 861.135 672.582 849.413 643.112 820.346 616.107 793.671 600.101 764.078 582.342 734.066 566.871 701.828 553.948 675.31 543.32 568.626 505.287 483.631 478.07 430.614 461.094 386.369 448.349 376.334 449.276 362.255 450.574 343.351 439.066 323.164 426.776 297.278 411.017 269.078 393.844 252.915 404.367 227.914 420.638 238.382 450.821 250.595 471.867 264.936 496.563 285.476 520.94 309.743 537.422 329.724 550.992 352.234 559.184 375.818 557.657 383.138 557.199 383.832 568.325 376.516 568.783 371.029 569.14 372.16 568.961 376.785 572.703 402.197 593.269 437.994 603.086 470.24 597.566 477.473 596.334 479.349 607.329 472.117 608.561 471.379 608.689 470.641 608.805 469.906 608.918ZM431.594 136.293C429.518 134.216 432.674 131.057 434.754 133.132 448.654 147.034 467.609 179.096 449.953 196.754 447.876 198.83 444.717 195.673 446.793 193.594 462.283 178.104 443.498 148.197 431.594 136.293ZM453.537 246.252C440.218 259.571 418.885 261.895 396.156 256.161 347.888 243.984 298.661 195.042 286.271 146.825 280.701 125.154 282.257 104.501 294.794 91.5279L320.77 64.6501C333.507 51.4695 355.018 50.0295 377.253 55.6181 425.91 67.8502 474.748 116.689 486.979 165.345 492.579 187.62 490.874 208.916 477.886 221.9L453.532 246.247ZM304.827 97.0859C294.334 107.922 292.137 124.986 297.047 144.082 308.398 188.26 354.638 234.187 398.861 245.347 418.169 250.219 435.458 248.042 446.345 237.693 437.276 238.759 427.339 237.933 417.005 235.337 368.348 223.105 319.51 174.266 307.278 125.61 304.759 115.589 303.908 105.939 304.831 97.0925ZM419.711 224.508C439.426 229.464 457.046 227.104 467.903 216.247 478.757 205.393 481.12 187.769 476.164 168.055 464.943 123.422 419.183 77.6622 374.554 66.4448 354.839 61.4888 337.22 63.8486 326.362 74.7059 315.509 85.5594 313.145 103.184 318.101 122.898 329.322 167.53 375.082 213.29 419.711 224.508ZM900.449 903.607C899.315 907.861 892.846 906.134 893.985 901.879 898.536 884.852 901.169 866.599 902.223 849.01 902.482 844.622 909.158 845.012 908.899 849.403 907.823 867.377 905.103 886.204 900.449 903.606ZM867.103 919.824C865.26 923.82 859.187 921.016 861.031 917.024 873.445 890.15 878.866 840.448 875.656 811.039 875.19 806.665 881.84 805.959 882.305 810.333 885.647 840.931 880.026 891.854 867.103 919.818ZM597.729 818.037C593.562 816.626 595.707 810.289 599.875 811.703 643.922 826.781 714.284 816.404 752.243 789.199 755.824 786.632 759.726 792.079 756.144 794.646 716.449 823.094 643.802 833.81 597.725 818.037ZM465.914 1066.25C503.576 1054.03 564.266 1020.12 593.094 995.768 608.653 982.625 625.513 961.495 613.703 941.817 592.672 907.102 523.103 947.03 497.386 958.712 462.186 974.685 425.403 992.613 394.855 1000.79 392.735 1001.36 390.626 1001.86 388.528 1002.27 381.619 1003.63 381.983 1001.68 381.554 1009.03 378.762 1057.02 420.485 1081 465.911 1066.25ZM534.563 842.779C504.154 854.618 458.62 865.675 414.997 873.435 374.513 880.634 335.462 884.997 311.414 884.528 303.727 884.379 300.448 885.492 298.495 889.68 292.219 903.163 295.044 928.223 300.063 941.668 314.225 979.609 352.466 1000.62 391.971 990.025 421.507 982.113 457.7 964.66 492.324 948.92 526.092 933.561 598.942 911.61 584.779 868.297 578.572 849.306 558.988 835.005 534.557 842.783ZM315.873 763.767C299.645 772.937 276.145 778.744 257.885 781.307 245.835 789.768 244.897 809.309 247.62 822.5 253.06 848.84 272.728 868.18 299.616 872.496 318.854 875.587 364.698 871.042 413.075 862.435 458.621 854.338 506.126 842.651 535.573 830.346 584.31 809.984 567.389 734.526 504.041 746.953 465.775 754.461 340.717 783.74 315.863 763.763Z" fill="#582F84" transform="matrix(1.0009 0 0 1 2944 679)"/></g></g></g><path d="M4245.24 1420.3 4263.29 1420.3 4263.29 1441.03 4245.24 1441.03ZM4201.45 1420.3 4219.5 1420.3 4219.5 1441.03 4201.45 1441.03ZM4157.67 1420.3 4175.72 1420.3 4175.72 1441.03 4157.67 1441.03Z" fill="#582F84" fill-rule="evenodd"/><text fill="#000000" fill-opacity="0" font-family="Arial,Arial_MSFontService,sans-serif" font-size="20.7305" x="4157.67" y="1438.44">…</text></g></svg>