<svg width="4142" height="1491" xmlns="http://www.w3.org/2000/svg" xmlns:xlink="http://www.w3.org/1999/xlink" xml:space="preserve" overflow="hidden"><g transform="translate(-129 -517)"><g><g><g><path d="M352.967 457.381C361.109 470.048 372.328 486.104 401.475 496.395 406.669 498.227 403.883 506.126 398.689 504.293 370.764 494.434 359.025 482.059 343.624 458.293 337.13 458.585 330.678 458.173 324.397 457.168 304.444 464.113 271.9 468.107 239.267 472.11 197.729 477.203 156.038 482.319 142.467 492.989 107.192 520.735 121.872 569.408 164.087 578.539 181.044 582.21 213.881 576.605 231.734 567.162 244.152 560.593 249.232 551.756 249.412 538.837 249.737 515.488 223.718 496.896 202.467 502.155 197.143 503.578 194.981 495.483 200.304 494.06 219.205 489.797 240.347 498.209 249.851 513.011 248.098 505.632 245.588 496.955 241.715 490.518 240.022 487.688 244.329 485.112 246.022 487.942 254.035 501.265 258.113 523.992 257.782 539.282 257.528 550.982 253.762 561.232 244.052 569.089 252.047 574.434 282.034 570.774 313.327 565.268 304.2 555.805 293.513 540.279 287.103 528.928 285.486 526.058 289.853 523.599 291.467 526.47 295.897 534.314 312.677 559.492 319.412 564.029 319.994 564.419 350.003 558.266 353.395 557.58 343.074 547.849 331.707 530.056 326.469 517.04 325.24 513.975 329.902 512.107 331.128 515.172 336.134 527.606 348.995 548.041 359.603 556.321 365.398 555.144 371.194 553.945 376.995 552.806 424.967 543.395 449.205 595.278 418.554 623.192 449.052 627.807 458.901 665.696 438.677 687.936 450.407 687.987 461.867 692.761 468.113 703.068 479.685 722.176 466.106 742.424 450.598 754.827 435.473 766.923 412.783 781.039 391.205 792.17 391.09 792.247 390.97 792.323 390.847 792.386 389.097 793.351 387.947 794.722 387.236 796.232 386.262 798.294 386.043 800.692 386.215 802.797 386.406 805.104 384.688 807.125 382.38 807.32 380.072 807.509 378.049 805.789 377.858 803.482 377.732 801.972 377.746 800.343 377.953 798.686 370.088 802.349 362.64 805.447 356.088 807.684 379.516 813.809 416.79 815.732 456.286 813.515 494.161 811.397 533.9 805.461 565.307 795.77 576.002 792.47 585.058 788.499 594.661 782.193 600.773 778.179 605.435 774.082 608.554 770.125 611.954 765.818 618.509 770.999 615.108 775.306 612.924 778.074 610.165 780.864 606.863 783.605 616.575 781.955 627.778 780.724 639.681 780.186 659.555 779.284 681.508 780.277 701.893 784.409 707.277 785.493 705.641 793.687 700.25 792.603 680.604 788.625 659.342 787.667 640.041 788.541 604.966 789.988 595.481 795.246 567.405 803.86 535.328 813.711 495.048 819.731 456.741 821.877 409.107 824.541 364.269 821.185 341.693 811.711 305.818 818.759 275.761 793.75 277.984 758.582 278.318 753.324 279.579 754.31 274.538 753.967 248.527 752.226 226.356 734.314 217.387 709.773 212.76 697.109 211.288 679.432 216.059 666.517 218.009 661.241 219.298 663.038 213.623 661.058 194.992 654.564 181.814 638.893 177.799 619.447 175.68 609.189 176.215 597.191 181.653 587.982 174.628 588.306 167.995 587.954 162.314 586.725 113.203 576.099 96.4451 518.513 137.283 486.395 152.701 474.268 195.549 469.014 238.243 463.778 263.694 460.656 289.088 457.543 308.017 453.107 292.838 447.987 277.828 438.892 267.381 426.621 253.357 424.621 240.07 418.804 227.971 410.586 208.619 397.441 192.313 378.135 180.988 358.627 169.31 338.51 162.3 311.767 185.418 296.718 201.971 285.944 225.499 300.271 247.097 313.419 261.042 321.91 274.103 329.863 281.922 329.139 290.719 328.328 325.087 338.086 365.822 351.127 429.864 371.632 510.277 400.301 530.273 408.317 554.594 418.064 577.278 429.745 599.592 443.076 646.611 471.171 664.723 481.325 720.792 483.242 726.287 483.414 726.029 491.771 720.533 491.599 687.265 490.46 667.432 488.532 636.518 473.672 644.034 482.393 650.652 492.23 654.582 502.109 656.609 507.218 648.841 510.296 646.815 505.189 638.01 483.053 616.177 462.769 596.141 450.747 573.913 437.408 551.37 425.787 527.156 416.081 507.238 408.098 427.105 379.531 363.265 359.088 323.442 346.336 290.209 336.763 282.672 337.46 272.097 338.434 257.897 329.791 242.735 320.559 223.291 308.723 202.109 295.824 189.969 303.728 171.19 315.949 179.053 338.62 188.227 354.428 198.998 372.978 214.427 391.288 232.654 403.668 247.662 413.86 264.569 420.014 282.284 418.866 287.782 418.522 288.303 426.88 282.808 427.224 278.687 427.491 279.537 427.357 283.01 430.168 302.098 445.615 328.986 452.989 353.206 448.843 358.639 447.918 360.048 456.176 354.616 457.102 354.061 457.198 353.507 457.285 352.955 457.37ZM324.178 102.372C322.619 100.812 324.989 98.4391 326.552 99.9983 336.993 110.44 351.23 134.522 337.968 147.786 336.408 149.345 334.035 146.974 335.594 145.412 347.229 133.777 333.12 111.314 324.178 102.372ZM340.66 184.964C330.656 194.969 314.633 196.714 297.56 192.407 261.305 183.261 224.33 146.5 215.024 110.283 210.84 94.0057 212.008 78.4926 221.425 68.7483L240.936 48.5599C250.504 38.6597 266.661 37.5781 283.362 41.7758 319.909 50.9636 356.592 87.6475 365.779 124.194 369.986 140.925 368.705 156.921 358.949 166.674L340.656 184.961ZM228.962 72.9231C221.08 81.0621 219.43 93.8792 223.117 108.223 231.644 141.406 266.375 175.903 299.592 184.285 314.094 187.944 327.081 186.309 335.258 178.536 328.446 179.336 320.982 178.716 313.22 176.766 276.673 167.578 239.99 130.894 230.803 94.3483 228.91 86.8211 228.271 79.5728 228.964 72.928ZM315.253 168.632C330.061 172.354 343.296 170.582 351.451 162.427 359.603 154.275 361.378 141.037 357.656 126.229 349.227 92.7046 314.856 58.3336 281.335 49.9079 266.526 46.1854 253.292 47.9579 245.137 56.113 236.985 64.2653 235.209 77.5033 238.932 92.311 247.36 125.835 281.731 160.206 315.253 168.632ZM676.344 678.716C675.492 681.911 670.633 680.614 671.489 677.418 674.907 664.629 676.885 650.918 677.677 637.708 677.871 634.412 682.886 634.704 682.691 638.003 681.883 651.503 679.84 665.644 676.344 678.715ZM651.297 690.897C649.913 693.898 645.352 691.792 646.737 688.794 656.061 668.608 660.133 631.276 657.721 609.187 657.372 605.901 662.367 605.371 662.716 608.657 665.226 631.639 661.004 669.888 651.297 690.893ZM448.966 614.443C445.835 613.383 447.447 608.623 450.577 609.685 483.662 621.011 536.512 613.217 565.024 592.782 567.713 590.854 570.644 594.945 567.954 596.874 538.138 618.241 483.572 626.29 448.963 614.443ZM349.957 800.881C378.246 791.701 423.831 766.231 445.484 747.94 457.17 738.068 469.834 722.197 460.964 707.417 445.167 681.341 392.913 711.332 373.596 720.107 347.156 732.104 319.528 745.57 296.583 751.716 294.991 752.142 293.407 752.513 291.831 752.82 286.641 753.848 286.915 752.38 286.593 757.903 284.495 793.945 315.834 811.956 349.954 800.881ZM401.52 633.027C378.68 641.919 344.478 650.225 311.712 656.053 281.304 661.46 251.972 664.738 233.909 664.386 228.135 664.274 225.672 665.109 224.205 668.256 219.491 678.382 221.613 697.205 225.383 707.305 236.02 735.803 264.744 751.583 294.417 743.626 316.601 737.684 343.787 724.574 369.794 712.751 395.158 701.215 449.877 684.727 439.238 652.194 434.576 637.93 419.866 627.188 401.516 633.03ZM237.258 573.679C225.069 580.568 207.418 584.929 193.702 586.854 184.651 593.21 183.947 607.887 185.992 617.795 190.078 637.58 204.851 652.106 225.047 655.348 239.497 657.67 273.931 654.256 310.268 647.791 344.479 641.709 380.161 632.931 402.279 623.689 438.886 608.394 426.176 551.716 378.594 561.05 349.852 566.69 255.919 588.681 237.251 573.677Z" fill="#582F84" transform="matrix(1.00119 0 0 1 1322 818)"/></g></g></g><g><g><g><path d="M352.967 457.381C361.109 470.048 372.328 486.104 401.475 496.395 406.669 498.227 403.883 506.126 398.689 504.293 370.764 494.434 359.025 482.059 343.624 458.293 337.13 458.585 330.678 458.173 324.397 457.168 304.444 464.113 271.9 468.107 239.267 472.11 197.729 477.203 156.038 482.319 142.467 492.989 107.192 520.735 121.872 569.408 164.087 578.539 181.044 582.21 213.881 576.605 231.734 567.162 244.152 560.593 249.232 551.756 249.412 538.837 249.737 515.488 223.718 496.896 202.467 502.155 197.143 503.578 194.981 495.483 200.304 494.06 219.205 489.797 240.347 498.209 249.851 513.011 248.098 505.632 245.588 496.955 241.715 490.518 240.022 487.688 244.329 485.112 246.022 487.942 254.035 501.265 258.113 523.992 257.782 539.282 257.528 550.982 253.762 561.232 244.052 569.089 252.047 574.434 282.034 570.774 313.327 565.268 304.2 555.805 293.513 540.279 287.103 528.928 285.486 526.058 289.853 523.599 291.467 526.47 295.897 534.314 312.677 559.492 319.412 564.029 319.994 564.419 350.003 558.266 353.395 557.58 343.074 547.849 331.707 530.056 326.469 517.04 325.24 513.975 329.902 512.107 331.128 515.172 336.134 527.606 348.995 548.041 359.603 556.321 365.398 555.144 371.194 553.945 376.995 552.806 424.967 543.395 449.205 595.278 418.554 623.192 449.052 627.807 458.901 665.696 438.677 687.936 450.407 687.987 461.867 692.761 468.113 703.068 479.685 722.176 466.106 742.424 450.598 754.827 435.473 766.923 412.783 781.039 391.205 792.17 391.09 792.247 390.97 792.323 390.847 792.386 389.097 793.351 387.947 794.722 387.236 796.232 386.262 798.294 386.043 800.692 386.215 802.797 386.406 805.104 384.688 807.125 382.38 807.32 380.072 807.509 378.049 805.789 377.858 803.482 377.732 801.972 377.746 800.343 377.953 798.686 370.088 802.349 362.64 805.447 356.088 807.684 379.516 813.809 416.79 815.732 456.286 813.515 494.161 811.397 533.9 805.461 565.307 795.77 576.002 792.47 585.058 788.499 594.661 782.193 600.773 778.179 605.435 774.082 608.554 770.125 611.954 765.818 618.509 770.999 615.108 775.306 612.924 778.074 610.165 780.864 606.863 783.605 616.575 781.955 627.778 780.724 639.681 780.186 659.555 779.284 681.508 780.277 701.893 784.409 707.277 785.493 705.641 793.687 700.25 792.603 680.604 788.625 659.342 787.667 640.041 788.541 604.966 789.988 595.481 795.246 567.405 803.86 535.328 813.711 495.048 819.731 456.741 821.877 409.107 824.541 364.269 821.185 341.693 811.711 305.818 818.759 275.761 793.75 277.984 758.582 278.318 753.324 279.579 754.31 274.538 753.967 248.527 752.226 226.356 734.314 217.387 709.773 212.76 697.109 211.288 679.432 216.059 666.517 218.009 661.241 219.298 663.038 213.623 661.058 194.992 654.564 181.814 638.893 177.799 619.447 175.68 609.189 176.215 597.191 181.653 587.982 174.628 588.306 167.995 587.954 162.314 586.725 113.203 576.099 96.4451 518.513 137.283 486.395 152.701 474.268 195.549 469.014 238.243 463.778 263.694 460.656 289.088 457.543 308.017 453.107 292.838 447.987 277.828 438.892 267.381 426.621 253.357 424.621 240.07 418.804 227.971 410.586 208.619 397.441 192.313 378.135 180.988 358.627 169.31 338.51 162.3 311.767 185.418 296.718 201.971 285.944 225.499 300.271 247.097 313.419 261.042 321.91 274.103 329.863 281.922 329.139 290.719 328.328 325.087 338.086 365.822 351.127 429.864 371.632 510.277 400.301 530.273 408.317 554.594 418.064 577.278 429.745 599.592 443.076 646.611 471.171 664.723 481.325 720.792 483.242 726.287 483.414 726.029 491.771 720.533 491.599 687.265 490.46 667.432 488.532 636.518 473.672 644.034 482.393 650.652 492.23 654.582 502.109 656.609 507.218 648.841 510.296 646.815 505.189 638.01 483.053 616.177 462.769 596.141 450.747 573.913 437.408 551.37 425.787 527.156 416.081 507.238 408.098 427.105 379.531 363.265 359.088 323.442 346.336 290.209 336.763 282.672 337.46 272.097 338.434 257.897 329.791 242.735 320.559 223.291 308.723 202.109 295.824 189.969 303.728 171.19 315.949 179.053 338.62 188.227 354.428 198.998 372.978 214.427 391.288 232.654 403.668 247.662 413.86 264.569 420.014 282.284 418.866 287.782 418.522 288.303 426.88 282.808 427.224 278.687 427.491 279.537 427.357 283.01 430.168 302.098 445.615 328.986 452.989 353.206 448.843 358.639 447.918 360.048 456.176 354.616 457.102 354.061 457.198 353.507 457.285 352.955 457.37ZM324.178 102.372C322.619 100.812 324.989 98.4391 326.552 99.9983 336.993 110.44 351.23 134.522 337.968 147.786 336.408 149.345 334.035 146.974 335.594 145.412 347.229 133.777 333.12 111.314 324.178 102.372ZM340.66 184.964C330.656 194.969 314.633 196.714 297.56 192.407 261.305 183.261 224.33 146.5 215.024 110.283 210.84 94.0057 212.008 78.4926 221.425 68.7483L240.936 48.5599C250.504 38.6597 266.661 37.5781 283.362 41.7758 319.909 50.9636 356.592 87.6475 365.779 124.194 369.986 140.925 368.705 156.921 358.949 166.674L340.656 184.961ZM228.962 72.9231C221.08 81.0621 219.43 93.8792 223.117 108.223 231.644 141.406 266.375 175.903 299.592 184.285 314.094 187.944 327.081 186.309 335.258 178.536 328.446 179.336 320.982 178.716 313.22 176.766 276.673 167.578 239.99 130.894 230.803 94.3483 228.91 86.8211 228.271 79.5728 228.964 72.928ZM315.253 168.632C330.061 172.354 343.296 170.582 351.451 162.427 359.603 154.275 361.378 141.037 357.656 126.229 349.227 92.7046 314.856 58.3336 281.335 49.9079 266.526 46.1854 253.292 47.9579 245.137 56.113 236.985 64.2653 235.209 77.5033 238.932 92.311 247.36 125.835 281.731 160.206 315.253 168.632ZM676.344 678.716C675.492 681.911 670.633 680.614 671.489 677.418 674.907 664.629 676.885 650.918 677.677 637.708 677.871 634.412 682.886 634.704 682.691 638.003 681.883 651.503 679.84 665.644 676.344 678.715ZM651.297 690.897C649.913 693.898 645.352 691.792 646.737 688.794 656.061 668.608 660.133 631.276 657.721 609.187 657.372 605.901 662.367 605.371 662.716 608.657 665.226 631.639 661.004 669.888 651.297 690.893ZM448.966 614.443C445.835 613.383 447.447 608.623 450.577 609.685 483.662 621.011 536.512 613.217 565.024 592.782 567.713 590.854 570.644 594.945 567.954 596.874 538.138 618.241 483.572 626.29 448.963 614.443ZM349.957 800.881C378.246 791.701 423.831 766.231 445.484 747.94 457.17 738.068 469.834 722.197 460.964 707.417 445.167 681.341 392.913 711.332 373.596 720.107 347.156 732.104 319.528 745.57 296.583 751.716 294.991 752.142 293.407 752.513 291.831 752.82 286.641 753.848 286.915 752.38 286.593 757.903 284.495 793.945 315.834 811.956 349.954 800.881ZM401.52 633.027C378.68 641.919 344.478 650.225 311.712 656.053 281.304 661.46 251.972 664.738 233.909 664.386 228.135 664.274 225.672 665.109 224.205 668.256 219.491 678.382 221.613 697.205 225.383 707.305 236.02 735.803 264.744 751.583 294.417 743.626 316.601 737.684 343.787 724.574 369.794 712.751 395.158 701.215 449.877 684.727 439.238 652.194 434.576 637.93 419.866 627.188 401.516 633.03ZM237.258 573.679C225.069 580.568 207.418 584.929 193.702 586.854 184.651 593.21 183.947 607.887 185.992 617.795 190.078 637.58 204.851 652.106 225.047 655.348 239.497 657.67 273.931 654.256 310.268 647.791 344.479 641.709 380.161 632.931 402.279 623.689 438.886 608.394 426.176 551.716 378.594 561.05 349.852 566.69 255.919 588.681 237.251 573.677Z" fill="#582F84" transform="matrix(1.00119 0 0 1 605 818)"/></g></g></g><g><g><g><path d="M352.967 457.381C361.109 470.048 372.328 486.104 401.475 496.395 406.669 498.227 403.883 506.126 398.689 504.293 370.764 494.434 359.025 482.059 343.624 458.293 337.13 458.585 330.678 458.173 324.397 457.168 304.444 464.113 271.9 468.107 239.267 472.11 197.729 477.203 156.038 482.319 142.467 492.989 107.192 520.735 121.872 569.408 164.087 578.539 181.044 582.21 213.881 576.605 231.734 567.162 244.152 560.593 249.232 551.756 249.412 538.837 249.737 515.488 223.718 496.896 202.467 502.155 197.143 503.578 194.981 495.483 200.304 494.06 219.205 489.797 240.347 498.209 249.851 513.011 248.098 505.632 245.588 496.955 241.715 490.518 240.022 487.688 244.329 485.112 246.022 487.942 254.035 501.265 258.113 523.992 257.782 539.282 257.528 550.982 253.762 561.232 244.052 569.089 252.047 574.434 282.034 570.774 313.327 565.268 304.2 555.805 293.513 540.279 287.103 528.928 285.486 526.058 289.853 523.599 291.467 526.47 295.897 534.314 312.677 559.492 319.412 564.029 319.994 564.419 350.003 558.266 353.395 557.58 343.074 547.849 331.707 530.056 326.469 517.04 325.24 513.975 329.902 512.107 331.128 515.172 336.134 527.606 348.995 548.041 359.603 556.321 365.398 555.144 371.194 553.945 376.995 552.806 424.967 543.395 449.205 595.278 418.554 623.192 449.052 627.807 458.901 665.696 438.677 687.936 450.407 687.987 461.867 692.761 468.113 703.068 479.685 722.176 466.106 742.424 450.598 754.827 435.473 766.923 412.783 781.039 391.205 792.17 391.09 792.247 390.97 792.323 390.847 792.386 389.097 793.351 387.947 794.722 387.236 796.232 386.262 798.294 386.043 800.692 386.215 802.797 386.406 805.104 384.688 807.125 382.38 807.32 380.072 807.509 378.049 805.789 377.858 803.482 377.732 801.972 377.746 800.343 377.953 798.686 370.088 802.349 362.64 805.447 356.088 807.684 379.516 813.809 416.79 815.732 456.286 813.515 494.161 811.397 533.9 805.461 565.307 795.77 576.002 792.47 585.058 788.499 594.661 782.193 600.773 778.179 605.435 774.082 608.554 770.125 611.954 765.818 618.509 770.999 615.108 775.306 612.924 778.074 610.165 780.864 606.863 783.605 616.575 781.955 627.778 780.724 639.681 780.186 659.555 779.284 681.508 780.277 701.893 784.409 707.277 785.493 705.641 793.687 700.25 792.603 680.604 788.625 659.342 787.667 640.041 788.541 604.966 789.988 595.481 795.246 567.405 803.86 535.328 813.711 495.048 819.731 456.741 821.877 409.107 824.541 364.269 821.185 341.693 811.711 305.818 818.759 275.761 793.75 277.984 758.582 278.318 753.324 279.579 754.31 274.538 753.967 248.527 752.226 226.356 734.314 217.387 709.773 212.76 697.109 211.288 679.432 216.059 666.517 218.009 661.241 219.298 663.038 213.623 661.058 194.992 654.564 181.814 638.893 177.799 619.447 175.68 609.189 176.215 597.191 181.653 587.982 174.628 588.306 167.995 587.954 162.314 586.725 113.203 576.099 96.4451 518.513 137.283 486.395 152.701 474.268 195.549 469.014 238.243 463.778 263.694 460.656 289.088 457.543 308.017 453.107 292.838 447.987 277.828 438.892 267.381 426.621 253.357 424.621 240.07 418.804 227.971 410.586 208.619 397.441 192.313 378.135 180.988 358.627 169.31 338.51 162.3 311.767 185.418 296.718 201.971 285.944 225.499 300.271 247.097 313.419 261.042 321.91 274.103 329.863 281.922 329.139 290.719 328.328 325.087 338.086 365.822 351.127 429.864 371.632 510.277 400.301 530.273 408.317 554.594 418.064 577.278 429.745 599.592 443.076 646.611 471.171 664.723 481.325 720.792 483.242 726.287 483.414 726.029 491.771 720.533 491.599 687.265 490.46 667.432 488.532 636.518 473.672 644.034 482.393 650.652 492.23 654.582 502.109 656.609 507.218 648.841 510.296 646.815 505.189 638.01 483.053 616.177 462.769 596.141 450.747 573.913 437.408 551.37 425.787 527.156 416.081 507.238 408.098 427.105 379.531 363.265 359.088 323.442 346.336 290.209 336.763 282.672 337.46 272.097 338.434 257.897 329.791 242.735 320.559 223.291 308.723 202.109 295.824 189.969 303.728 171.19 315.949 179.053 338.62 188.227 354.428 198.998 372.978 214.427 391.288 232.654 403.668 247.662 413.86 264.569 420.014 282.284 418.866 287.782 418.522 288.303 426.88 282.808 427.224 278.687 427.491 279.537 427.357 283.01 430.168 302.098 445.615 328.986 452.989 353.206 448.843 358.639 447.918 360.048 456.176 354.616 457.102 354.061 457.198 353.507 457.285 352.955 457.37ZM324.178 102.372C322.619 100.812 324.989 98.4391 326.552 99.9983 336.993 110.44 351.23 134.522 337.968 147.786 336.408 149.345 334.035 146.974 335.594 145.412 347.229 133.777 333.12 111.314 324.178 102.372ZM340.66 184.964C330.656 194.969 314.633 196.714 297.56 192.407 261.305 183.261 224.33 146.5 215.024 110.283 210.84 94.0057 212.008 78.4926 221.425 68.7483L240.936 48.5599C250.504 38.6597 266.661 37.5781 283.362 41.7758 319.909 50.9636 356.592 87.6475 365.779 124.194 369.986 140.925 368.705 156.921 358.949 166.674L340.656 184.961ZM228.962 72.9231C221.08 81.0621 219.43 93.8792 223.117 108.223 231.644 141.406 266.375 175.903 299.592 184.285 314.094 187.944 327.081 186.309 335.258 178.536 328.446 179.336 320.982 178.716 313.22 176.766 276.673 167.578 239.99 130.894 230.803 94.3483 228.91 86.8211 228.271 79.5728 228.964 72.928ZM315.253 168.632C330.061 172.354 343.296 170.582 351.451 162.427 359.603 154.275 361.378 141.037 357.656 126.229 349.227 92.7046 314.856 58.3336 281.335 49.9079 266.526 46.1854 253.292 47.9579 245.137 56.113 236.985 64.2653 235.209 77.5033 238.932 92.311 247.36 125.835 281.731 160.206 315.253 168.632ZM676.344 678.716C675.492 681.911 670.633 680.614 671.489 677.418 674.907 664.629 676.885 650.918 677.677 637.708 677.871 634.412 682.886 634.704 682.691 638.003 681.883 651.503 679.84 665.644 676.344 678.715ZM651.297 690.897C649.913 693.898 645.352 691.792 646.737 688.794 656.061 668.608 660.133 631.276 657.721 609.187 657.372 605.901 662.367 605.371 662.716 608.657 665.226 631.639 661.004 669.888 651.297 690.893ZM448.966 614.443C445.835 613.383 447.447 608.623 450.577 609.685 483.662 621.011 536.512 613.217 565.024 592.782 567.713 590.854 570.644 594.945 567.954 596.874 538.138 618.241 483.572 626.29 448.963 614.443ZM349.957 800.881C378.246 791.701 423.831 766.231 445.484 747.94 457.17 738.068 469.834 722.197 460.964 707.417 445.167 681.341 392.913 711.332 373.596 720.107 347.156 732.104 319.528 745.57 296.583 751.716 294.991 752.142 293.407 752.513 291.831 752.82 286.641 753.848 286.915 752.38 286.593 757.903 284.495 793.945 315.834 811.956 349.954 800.881ZM401.52 633.027C378.68 641.919 344.478 650.225 311.712 656.053 281.304 661.46 251.972 664.738 233.909 664.386 228.135 664.274 225.672 665.109 224.205 668.256 219.491 678.382 221.613 697.205 225.383 707.305 236.02 735.803 264.744 751.583 294.417 743.626 316.601 737.684 343.787 724.574 369.794 712.751 395.158 701.215 449.877 684.727 439.238 652.194 434.576 637.93 419.866 627.188 401.516 633.03ZM237.258 573.679C225.069 580.568 207.418 584.929 193.702 586.854 184.651 593.21 183.947 607.887 185.992 617.795 190.078 637.58 204.851 652.106 225.047 655.348 239.497 657.67 273.931 654.256 310.268 647.791 344.479 641.709 380.161 632.931 402.279 623.689 438.886 608.394 426.176 551.716 378.594 561.05 349.852 566.69 255.919 588.681 237.251 573.677Z" fill="#582F84" transform="matrix(1.00119 0 0 1 2041 818)"/></g></g></g><g><g><g><path d="M3112.97 1275.38C3121.11 1288.05 3132.33 1304.1 3161.47 1314.4 3166.67 1316.23 3163.88 1324.13 3158.69 1322.29 3130.76 1312.43 3119.03 1300.06 3103.62 1276.29 3097.13 1276.59 3090.68 1276.17 3084.4 1275.17 3064.44 1282.11 3031.9 1286.11 2999.27 1290.11 2957.73 1295.2 2916.04 1300.32 2902.47 1310.99 2867.19 1338.74 2881.87 1387.41 2924.09 1396.54 2941.04 1400.21 2973.88 1394.61 2991.73 1385.16 3004.15 1378.59 3009.23 1369.76 3009.41 1356.84 3009.74 1333.49 2983.72 1314.9 2962.47 1320.16 2957.14 1321.58 2954.98 1313.48 2960.3 1312.06 2979.21 1307.8 3000.35 1316.21 3009.85 1331.01 3008.1 1323.63 3005.59 1314.96 3001.72 1308.52 3000.02 1305.69 3004.33 1303.11 3006.02 1305.94 3014.04 1319.26 3018.11 1341.99 3017.78 1357.28 3017.53 1368.98 3013.76 1379.23 3004.05 1387.09 3012.05 1392.43 3042.03 1388.77 3073.33 1383.27 3064.2 1373.81 3053.51 1358.28 3047.1 1346.93 3045.49 1344.06 3049.85 1341.6 3051.47 1344.47 3055.9 1352.31 3072.68 1377.49 3079.41 1382.03 3079.99 1382.42 3110 1376.27 3113.4 1375.58 3103.07 1365.85 3091.71 1348.06 3086.47 1335.04 3085.24 1331.98 3089.9 1330.11 3091.13 1333.17 3096.13 1345.61 3109 1366.04 3119.6 1374.32 3125.4 1373.14 3131.19 1371.95 3136.99 1370.81 3184.97 1361.4 3209.2 1413.28 3178.55 1441.19 3209.05 1445.81 3218.9 1483.7 3198.68 1505.94 3210.41 1505.99 3221.87 1510.76 3228.11 1521.07 3239.69 1540.18 3226.11 1560.42 3210.6 1572.83 3195.47 1584.92 3172.78 1599.04 3151.2 1610.17 3151.09 1610.25 3150.97 1610.32 3150.85 1610.39 3149.1 1611.35 3147.95 1612.72 3147.24 1614.23 3146.26 1616.29 3146.04 1618.69 3146.22 1620.8 3146.41 1623.1 3144.69 1625.12 3142.38 1625.32 3140.07 1625.51 3138.05 1623.79 3137.86 1621.48 3137.73 1619.97 3137.75 1618.34 3137.95 1616.69 3130.09 1620.35 3122.64 1623.45 3116.09 1625.68 3139.52 1631.81 3176.79 1633.73 3216.29 1631.52 3254.16 1629.4 3293.9 1623.46 3325.31 1613.77 3336 1610.47 3345.06 1606.5 3354.66 1600.19 3360.77 1596.18 3365.44 1592.08 3368.55 1588.12 3371.95 1583.82 3378.51 1589 3375.11 1593.31 3372.92 1596.07 3370.17 1598.86 3366.86 1601.6 3376.58 1599.95 3387.78 1598.72 3399.68 1598.19 3419.56 1597.28 3441.51 1598.28 3461.89 1602.41 3467.28 1603.49 3465.64 1611.69 3460.25 1610.6 3440.6 1606.62 3419.34 1605.67 3400.04 1606.54 3364.97 1607.99 3355.48 1613.25 3327.41 1621.86 3295.33 1631.71 3255.05 1637.73 3216.74 1639.88 3169.11 1642.54 3124.27 1639.19 3101.69 1629.71 3065.82 1636.76 3035.76 1611.75 3037.98 1576.58 3038.32 1571.32 3039.58 1572.31 3034.54 1571.97 3008.53 1570.23 2986.36 1552.31 2977.39 1527.77 2972.76 1515.11 2971.29 1497.43 2976.06 1484.52 2978.01 1479.24 2979.3 1481.04 2973.62 1479.06 2954.99 1472.56 2941.81 1456.89 2937.8 1437.45 2935.68 1427.19 2936.22 1415.19 2941.65 1405.98 2934.63 1406.31 2928 1405.95 2922.31 1404.73 2873.2 1394.1 2856.45 1336.51 2897.28 1304.39 2912.7 1292.27 2955.55 1287.01 2998.24 1281.78 3023.69 1278.66 3049.09 1275.54 3068.02 1271.11 3052.84 1265.99 3037.83 1256.89 3027.38 1244.62 3013.36 1242.62 3000.07 1236.8 2987.97 1228.59 2968.62 1215.44 2952.31 1196.14 2940.99 1176.63 2929.31 1156.51 2922.3 1129.77 2945.42 1114.72 2961.97 1103.94 2985.5 1118.27 3007.1 1131.42 3021.04 1139.91 3034.1 1147.86 3041.92 1147.14 3050.72 1146.33 3085.09 1156.09 3125.82 1169.13 3189.86 1189.63 3270.28 1218.3 3290.27 1226.32 3314.59 1236.06 3337.28 1247.74 3359.59 1261.08 3406.61 1289.17 3424.72 1299.33 3480.79 1301.24 3486.29 1301.41 3486.03 1309.77 3480.53 1309.6 3447.27 1308.46 3427.43 1306.53 3396.52 1291.67 3404.03 1300.39 3410.65 1310.23 3414.58 1320.11 3416.61 1325.22 3408.84 1328.3 3406.82 1323.19 3398.01 1301.05 3376.18 1280.77 3356.14 1268.75 3333.91 1255.41 3311.37 1243.79 3287.16 1234.08 3267.24 1226.1 3187.11 1197.53 3123.26 1177.09 3083.44 1164.34 3050.21 1154.76 3042.67 1155.46 3032.1 1156.43 3017.9 1147.79 3002.73 1138.56 2983.29 1126.72 2962.11 1113.82 2949.97 1121.73 2931.19 1133.95 2939.05 1156.62 2948.23 1172.43 2959 1190.98 2974.43 1209.29 2992.65 1221.67 3007.66 1231.86 3024.57 1238.01 3042.28 1236.87 3047.78 1236.52 3048.3 1244.88 3042.81 1245.22 3038.69 1245.49 3039.54 1245.36 3043.01 1248.17 3062.1 1263.62 3088.99 1270.99 3113.21 1266.84 3118.64 1265.92 3120.05 1274.18 3114.62 1275.1 3114.06 1275.2 3113.51 1275.29 3112.96 1275.37ZM3084.18 920.372C3082.62 918.812 3084.99 916.439 3086.55 917.998 3096.99 928.44 3111.23 952.523 3097.97 965.786 3096.41 967.345 3094.04 964.974 3095.59 963.412 3107.23 951.777 3093.12 929.314 3084.18 920.372ZM3100.66 1002.96C3090.66 1012.97 3074.63 1014.71 3057.56 1010.41 3021.31 1001.26 2984.33 964.5 2975.02 928.283 2970.84 912.006 2972.01 896.493 2981.43 886.748L3000.94 866.56C3010.5 856.66 3026.66 855.578 3043.36 859.776 3079.91 868.964 3116.59 905.648 3125.78 942.194 3129.99 958.925 3128.7 974.921 3118.95 984.674L3100.66 1002.96ZM2988.96 890.923C2981.08 899.062 2979.43 911.879 2983.12 926.223 2991.64 959.406 3026.38 993.903 3059.59 1002.29 3074.09 1005.94 3087.08 1004.31 3095.26 996.536 3088.45 997.336 3080.98 996.716 3073.22 994.766 3036.67 985.578 2999.99 948.895 2990.8 912.348 2988.91 904.821 2988.27 897.573 2988.96 890.928ZM3075.25 986.632C3090.06 990.354 3103.3 988.582 3111.45 980.427 3119.6 972.275 3121.38 959.037 3117.66 944.229 3109.23 910.705 3074.86 876.334 3041.33 867.908 3026.53 864.186 3013.29 865.958 3005.14 874.113 2996.98 882.265 2995.21 895.503 2998.93 910.311 3007.36 943.835 3041.73 978.206 3075.25 986.632ZM3436.34 1496.72C3435.49 1499.91 3430.63 1498.61 3431.49 1495.42 3434.91 1482.63 3436.89 1468.92 3437.68 1455.71 3437.87 1452.41 3442.89 1452.7 3442.69 1456 3441.88 1469.5 3439.84 1483.64 3436.34 1496.72ZM3411.3 1508.9C3409.91 1511.9 3405.35 1509.79 3406.74 1506.79 3416.06 1486.61 3420.13 1449.28 3417.72 1427.19 3417.37 1423.9 3422.37 1423.37 3422.72 1426.66 3425.23 1449.64 3421 1487.89 3411.3 1508.89ZM3208.97 1432.44C3205.84 1431.38 3207.45 1426.62 3210.58 1427.69 3243.66 1439.01 3296.51 1431.22 3325.02 1410.78 3327.71 1408.85 3330.64 1412.95 3327.95 1414.87 3298.14 1436.24 3243.57 1444.29 3208.96 1432.44ZM3109.96 1618.88C3138.25 1609.7 3183.83 1584.23 3205.48 1565.94 3217.17 1556.07 3229.83 1540.2 3220.96 1525.42 3205.17 1499.34 3152.91 1529.33 3133.6 1538.11 3107.16 1550.1 3079.53 1563.57 3056.58 1569.72 3054.99 1570.14 3053.41 1570.51 3051.83 1570.82 3046.64 1571.85 3046.92 1570.38 3046.59 1575.9 3044.5 1611.95 3075.83 1629.96 3109.95 1618.88ZM3161.52 1451.03C3138.68 1459.92 3104.48 1468.22 3071.71 1474.05 3041.3 1479.46 3011.97 1482.74 2993.91 1482.39 2988.14 1482.27 2985.67 1483.11 2984.21 1486.26 2979.49 1496.38 2981.61 1515.21 2985.38 1525.3 2996.02 1553.8 3024.74 1569.58 3054.42 1561.63 3076.6 1555.68 3103.79 1542.57 3129.79 1530.75 3155.16 1519.22 3209.88 1502.73 3199.24 1470.19 3194.58 1455.93 3179.87 1445.19 3161.52 1451.03ZM2997.26 1391.68C2985.07 1398.57 2967.42 1402.93 2953.7 1404.85 2944.65 1411.21 2943.95 1425.89 2945.99 1435.8 2950.08 1455.58 2964.85 1470.11 2985.05 1473.35 2999.5 1475.67 3033.93 1472.26 3070.27 1465.79 3104.48 1459.71 3140.16 1450.93 3162.28 1441.69 3198.89 1426.39 3186.18 1369.72 3138.59 1379.05 3109.85 1384.69 3015.92 1406.68 2997.25 1391.68Z" fill="#582F84"/></g></g></g><path d="M3747.26 1411.97 3765.31 1411.97 3765.31 1432.71 3747.26 1432.71ZM3703.47 1411.97 3721.52 1411.97 3721.52 1432.71 3703.47 1432.71ZM3659.69 1411.97 3677.74 1411.97 3677.74 1432.71 3659.69 1432.71Z" fill="#582F84" fill-rule="evenodd"/><text fill="#000000" fill-opacity="0" font-family="Arial,Arial_MSFontService,sans-serif" font-size="20.7305" x="3659.69" y="1430.11">…</text></g></svg>