<svg width="4142" height="1045" xmlns="http://www.w3.org/2000/svg" xmlns:xlink="http://www.w3.org/1999/xlink" xml:space="preserve" overflow="hidden"><g transform="translate(-104 -693)"><path d="M1607.49 1105.42 1607.49 1117.1C1596.24 1118.19 1587.83 1123.37 1582.26 1132.64 1576.69 1141.91 1573.9 1156.61 1573.9 1176.73L1573.9 1260.17C1573.9 1269.25 1575.36 1276.47 1578.27 1281.85 1581.18 1287.22 1585.29 1289.91 1590.62 1289.91 1592.4 1289.91 1594.59 1289.52 1597.2 1288.73 1599.82 1287.94 1602.46 1286.65 1605.12 1284.88L1608.97 1294.35C1598.81 1299.38 1591.19 1303.77 1586.11 1307.52 1581.03 1311.26 1576.47 1315.65 1572.42 1320.68 1571.34 1318.81 1569.96 1317.03 1568.28 1315.36 1566.6 1313.68 1565.03 1312.15 1563.55 1310.77 1560.29 1307.81 1557.95 1305.47 1556.52 1303.74 1555.09 1302.02 1553.76 1300.07 1552.52 1297.9 1551.29 1295.73 1550.25 1293.29 1549.42 1290.58 1548.58 1287.86 1548.06 1284.63 1547.86 1280.88 1529.02 1291.73 1515.51 1299.97 1507.32 1305.59 1499.14 1311.21 1492.78 1316.24 1488.24 1320.68 1473.44 1306.87 1461.39 1297.04 1452.07 1291.17 1442.74 1285.3 1434.44 1281.77 1427.14 1280.59L1427.14 1271.86C1439.96 1266.43 1450.29 1260.71 1458.13 1254.7 1465.97 1248.68 1471.89 1242.22 1475.89 1235.32 1479.88 1228.41 1482.72 1220.89 1484.39 1212.75 1486.07 1204.62 1486.91 1193.99 1486.91 1180.87L1486.91 1162.08C1486.91 1148.37 1484.05 1137.57 1478.33 1129.68 1472.61 1121.79 1464.57 1117.84 1454.21 1117.84 1448.88 1117.84 1443.93 1119.08 1439.34 1121.54 1434.76 1124.01 1431.23 1127.12 1428.76 1130.86 1426.3 1134.61 1425.07 1138.41 1425.07 1142.26 1425.07 1146.2 1425.73 1149.63 1427.06 1152.54 1428.39 1155.45 1431.03 1158.58 1434.98 1161.93 1439.42 1165.68 1442.42 1168.34 1444 1169.92 1447.65 1173.57 1450.51 1176.88 1452.58 1179.84 1454.65 1182.79 1456.16 1185.78 1457.1 1188.79 1458.03 1191.79 1458.5 1195.22 1458.5 1199.07 1458.5 1203.01 1457.66 1207.18 1455.99 1211.57 1454.31 1215.96 1451.3 1220.32 1446.96 1224.66 1442.62 1229 1437 1232.6 1430.1 1235.46L1425.07 1226.14C1429.01 1224.86 1432.41 1222.84 1435.27 1220.08 1438.13 1217.32 1439.56 1214.6 1439.56 1211.94 1439.56 1209.57 1439.27 1207.43 1438.68 1205.5 1438.08 1203.58 1437.15 1201.68 1435.87 1199.81 1434.58 1197.93 1433.28 1196.36 1431.94 1195.07 1430.61 1193.79 1427.63 1191.18 1422.99 1187.23 1417.96 1182.99 1414.46 1179.34 1412.49 1176.28 1410.52 1173.23 1409.01 1170.02 1407.98 1166.67 1406.94 1163.31 1406.42 1159.47 1406.42 1155.13 1406.42 1146.65 1408.79 1138.48 1413.53 1130.64 1418.26 1122.8 1424.67 1116.69 1432.76 1112.3 1440.85 1107.91 1449.92 1105.71 1459.98 1105.71 1472.01 1105.71 1482.37 1108.35 1491.05 1113.63 1499.73 1118.9 1506.26 1126.18 1510.65 1135.45 1515.04 1144.72 1517.24 1155.23 1517.24 1166.96L1517.24 1180.58C1517.24 1190.64 1516.45 1199.07 1514.87 1205.87 1513.29 1212.68 1510.78 1218.89 1507.32 1224.52 1503.87 1230.14 1498.94 1235.98 1492.53 1242.05 1486.12 1248.11 1477.19 1255.39 1465.75 1263.87 1475.81 1273.14 1487.89 1282.66 1502 1292.42 1506.73 1289.27 1513.64 1285.05 1522.71 1279.78 1531.79 1274.5 1540.17 1269.89 1547.86 1265.94L1547.86 1167.56C1547.86 1157.3 1546.28 1148.94 1543.13 1142.48 1539.97 1136.02 1534.5 1129.83 1526.71 1123.91L1533.51 1114.59C1541.6 1120.9 1548.9 1124.06 1555.41 1124.06 1559.26 1124.06 1562.76 1123.44 1565.91 1122.21 1569.07 1120.98 1572.82 1118.98 1577.16 1116.22 1586.23 1110.3 1596.34 1106.7 1607.49 1105.42Z" fill="#582F84" fill-rule="evenodd"/><text fill="#000000" fill-opacity="0" font-family="Arial,Arial_MSFontService,sans-serif" font-size="215.266" x="1406.42" y="1293.77">𝔄</text><path d="M1885.58 1167.11 1943.72 1223.48 1943.72 1232.95 1885.58 1289.32 1876.85 1281.18 1910.73 1237.98 1768.4 1237.98 1729.64 1277.93 1715.73 1264.02 1748.28 1229.99 1748.28 1226.44 1715.73 1192.41 1729.64 1178.36 1768.25 1218.3 1910.73 1218.3 1876.85 1175.25Z" fill="#582F84" fill-rule="evenodd"/><text fill="#000000" fill-opacity="0" font-family="Arial,Arial_MSFontService,sans-serif" font-size="122.206" x="1715.73" y="1274.04">↣</text><path d="M2163.67 1110.3C2177.38 1110.3 2188.06 1112.42 2195.71 1116.66 2203.35 1120.9 2209.69 1127.76 2214.72 1137.23L2188.83 1149.36C2184.19 1141.27 2178.99 1135.52 2173.22 1132.12 2167.45 1128.72 2160.52 1127.02 2152.43 1127.02 2143.95 1127.02 2136.6 1128.67 2130.39 1131.97 2124.17 1135.28 2119.49 1139.89 2116.33 1145.81 2113.17 1151.72 2111.6 1158.43 2111.6 1165.93 2111.6 1170.17 2112.24 1174.34 2113.52 1178.43 2114.8 1182.52 2117.07 1186.17 2120.33 1189.38 2123.58 1192.58 2127.97 1195.17 2133.49 1197.15 2139.02 1199.12 2146.02 1200.1 2154.5 1200.1 2162.39 1200.1 2171.42 1199.76 2181.58 1199.07L2177.73 1212.83 2161.46 1218.45C2151.49 1218.45 2142.64 1218.97 2134.9 1220 2127.16 1221.04 2120.01 1222.84 2113.45 1225.4 2106.89 1227.97 2101.56 1231.03 2097.47 1234.58 2093.37 1238.13 2090.22 1242.39 2088 1247.37 2085.78 1252.36 2084.67 1258.2 2084.67 1264.91 2084.67 1272.8 2086.47 1279.31 2090.07 1284.44 2093.67 1289.56 2098.36 1293.29 2104.13 1295.61 2109.9 1297.92 2116.23 1299.08 2123.14 1299.08 2131.62 1299.08 2139.53 1297.8 2146.88 1295.24 2154.23 1292.67 2161.11 1289.17 2167.52 1284.73 2173.93 1280.29 2181.08 1274.23 2188.97 1266.53L2198 1275.71 2198 1282.36C2185.97 1292.52 2175.91 1299.77 2167.82 1304.11 2159.73 1308.45 2151.35 1311.71 2142.67 1313.88 2133.99 1316.05 2124.37 1317.13 2113.82 1317.13 2102.08 1317.13 2091.92 1315.16 2083.34 1311.21 2074.76 1307.27 2068.12 1301.75 2063.44 1294.64 2058.75 1287.54 2056.41 1279.85 2056.41 1271.56 2056.41 1257.26 2060.83 1245.2 2069.65 1235.39 2078.48 1225.58 2092.17 1217.61 2110.71 1211.5L2110.56 1209.57C2102.18 1204.05 2096.04 1198.01 2092.14 1191.45 2088.25 1184.89 2086.3 1176.58 2086.3 1166.52 2086.3 1156.66 2090.09 1147.39 2097.69 1138.71 2105.28 1130.03 2115.27 1123.12 2127.65 1117.99 2140.03 1112.86 2152.04 1110.3 2163.67 1110.3Z" fill="#582F84" fill-rule="evenodd"/><text fill="#000000" fill-opacity="0" font-family="Arial,Arial_MSFontService,sans-serif" font-size="206.833" x="2056.41" y="1291.28">ℰ</text><path d="M2387.47 1167.11 2396.2 1175.25 2362.32 1218.3 2504.79 1218.3 2543.41 1178.36 2557.31 1192.41 2524.77 1226.44 2524.77 1229.99 2557.31 1264.02 2543.41 1277.93 2504.65 1237.98 2362.32 1237.98 2396.2 1281.18 2387.47 1289.32 2329.33 1232.95 2329.33 1223.48Z" fill="#582F84" fill-rule="evenodd"/><text fill="#000000" fill-opacity="0" font-family="Arial,Arial_MSFontService,sans-serif" font-size="122.206" x="2329.33" y="1274.04">↢</text><path d="M2793.1 1211.35C2787.97 1211.35 2783.48 1211.74 2779.64 1212.53 2778.25 1224.07 2774.7 1234.01 2768.98 1242.34 2763.26 1250.68 2752.66 1260.17 2737.17 1270.82 2741.32 1272.99 2745.11 1275.39 2748.57 1278 2752.02 1280.61 2755.37 1283.25 2758.63 1285.91 2763.26 1289.86 2766.86 1292.82 2769.43 1294.79 2771.99 1296.76 2774.95 1298.66 2778.3 1300.49 2781.66 1302.31 2785.31 1303.79 2789.25 1304.93 2793.2 1306.06 2797.64 1306.63 2802.57 1306.63 2810.16 1306.63 2818.05 1304.73 2826.24 1300.93 2834.43 1297.13 2840.96 1291.73 2845.84 1284.73 2850.73 1277.73 2853.17 1269.59 2853.17 1260.32 2853.17 1250.46 2850.63 1241.8 2845.55 1234.35 2840.47 1226.91 2833.37 1221.21 2824.24 1217.27 2815.12 1213.32 2804.74 1211.35 2793.1 1211.35ZM2813.22 1130.72C2808.88 1130.72 2803.26 1131.8 2796.35 1133.97 2789.45 1136.14 2782.94 1138.9 2776.82 1142.26 2778.01 1146.69 2778.92 1152.66 2779.56 1160.16 2780.2 1167.65 2780.52 1175.64 2780.52 1184.13 2780.52 1187.68 2780.42 1190.88 2780.23 1193.74 2780.13 1195.62 2780.08 1197.29 2780.08 1198.77L2780.08 1200.84C2800.79 1198.67 2816.4 1193.89 2826.91 1186.49 2837.41 1179.1 2842.66 1169.33 2842.66 1157.2 2842.66 1152.86 2841.48 1148.64 2839.11 1144.55 2836.74 1140.46 2833.32 1137.13 2828.83 1134.56 2824.34 1132 2819.14 1130.72 2813.22 1130.72ZM2729.04 1104.09C2738.7 1104.09 2747.56 1106.43 2755.59 1111.11 2763.63 1115.8 2769.53 1122.23 2773.27 1130.42 2797.14 1121.25 2814.01 1113.01 2823.87 1105.71 2825.25 1106.8 2827.23 1107.83 2829.79 1108.82 2839.85 1112.37 2846.9 1115.28 2850.95 1117.55 2854.99 1119.82 2858.39 1122.51 2861.16 1125.61 2863.92 1128.72 2865.91 1132.05 2867.15 1135.6 2868.38 1139.15 2869 1143.34 2869 1148.17 2869 1156.95 2866.31 1165.11 2860.93 1172.66 2855.56 1180.21 2847.35 1187.63 2836.3 1194.93 2850.31 1198.87 2860.81 1204.96 2867.81 1213.2 2874.82 1221.43 2878.32 1231.57 2878.32 1243.6 2878.32 1258.59 2874.22 1272.03 2866.04 1283.92 2857.85 1295.8 2846.66 1305.05 2832.45 1311.66 2818.25 1318.27 2803.41 1321.57 2787.92 1321.57 2779.04 1321.57 2770.78 1320.44 2763.14 1318.17 2755.5 1315.9 2748.59 1312.84 2742.43 1308.99 2736.26 1305.15 2729.88 1300.51 2723.27 1295.09 2718.24 1291.04 2713.82 1287.99 2710.03 1285.91 2706.23 1283.84 2702.5 1282.81 2698.86 1282.81 2690.96 1282.81 2683.22 1288.92 2675.63 1301.15L2666.6 1294.5C2673.31 1283.84 2680.46 1276.03 2688.06 1271.05 2695.65 1266.07 2704.23 1263.57 2713.8 1263.57 2715.77 1263.57 2717.99 1263.77 2720.46 1264.17 2722.92 1264.56 2725.14 1265.2 2727.11 1266.09 2733.23 1260.17 2737.72 1255.04 2740.58 1250.7 2743.44 1246.36 2745.63 1241.78 2747.16 1236.94 2748.69 1232.11 2749.82 1225.97 2750.56 1218.52 2751.3 1211.08 2751.67 1200.55 2751.67 1186.94 2751.67 1169.18 2750.86 1155.5 2749.23 1145.88 2747.6 1136.26 2744.57 1128.84 2740.13 1123.61 2735.69 1118.39 2729.19 1115.77 2720.6 1115.77 2711.92 1115.77 2704.77 1118.31 2699.15 1123.39 2693.53 1128.47 2690.72 1135.15 2690.72 1143.44 2690.72 1147.09 2691.29 1150.29 2692.42 1153.06 2693.55 1155.82 2695.08 1158.23 2697.01 1160.31 2698.93 1162.38 2702.16 1165.09 2706.7 1168.44 2711.23 1171.8 2714.61 1174.53 2716.83 1176.65 2719.05 1178.78 2721.02 1181.17 2722.75 1183.83 2724.48 1186.49 2725.86 1189.45 2726.89 1192.71 2727.93 1195.96 2728.45 1199.76 2728.45 1204.1 2728.45 1213.07 2725.81 1221.04 2720.53 1227.99 2715.25 1234.95 2707.98 1239.95 2698.71 1243.01L2695.16 1233.39C2699.99 1231.22 2703.71 1228.95 2706.33 1226.59 2708.94 1224.22 2710.25 1221.41 2710.25 1218.15 2710.25 1215.1 2709.83 1212.53 2708.99 1210.46 2708.15 1208.39 2706.65 1206.22 2704.48 1203.95 2702.31 1201.68 2698.9 1198.82 2694.27 1195.37 2685.59 1188.86 2679.47 1182.52 2675.92 1176.36 2672.37 1170.19 2670.6 1163.27 2670.6 1155.57 2670.6 1146.99 2673.04 1138.61 2677.92 1130.42 2682.8 1122.23 2689.68 1115.8 2698.56 1111.11 2707.44 1106.43 2717.6 1104.09 2729.04 1104.09Z" fill="#582F84" fill-rule="evenodd"/><text fill="#000000" fill-opacity="0" font-family="Arial,Arial_MSFontService,sans-serif" font-size="217.485" x="2666.6" y="1294.39">𝔅</text></g></svg>